<?xml version="1.0" encoding="utf-8"?>
<!-- Generator: Adobe Illustrator 24.0.0, SVG Export Plug-In . SVG Version: 6.00 Build 0)  -->
<svg version="1.1" id="Capa_1" xmlns="http://www.w3.org/2000/svg" xmlns:xlink="http://www.w3.org/1999/xlink" x="0px" y="0px"
	 viewBox="0 0 512 367.1" style="enable-background:new 0 0 512 367.1;" xml:space="preserve">
<style type="text/css">
	.st0{fill:#FFFFFF;}
	.st1{display:none;}
	.st2{fill:none;stroke:#000000;stroke-width:2;stroke-miterlimit:10;}
	.st3{fill:#FBC63D;}
	.st4{fill:#FFFFFF;stroke:#FFFFFF;stroke-width:4;stroke-miterlimit:10;}
</style>
<polygon class="st0" points="23.56,243.47 83.28,195.47 83.28,156.4 108.59,156.4 108.59,175.75 140.96,149.7 207.75,202.91 
	193.8,215 140.77,173.33 27.84,261.89 24.12,261.89 "/>
<polygon class="st0" points="484.8,243.47 425.08,195.47 399.77,175.75 367.4,149.7 303.41,200.68 319.38,211.22 367.58,173.33 
	480.52,261.89 484.24,261.89 "/>
<path class="st0" d="M118.67,259.47l158.26-126.93c0.55-0.44,1.36-0.39,1.84,0.13l12.15,12.99c0.54,0.58,0.47,1.5-0.15,2
	L146.07,261.6c-0.24,0.19-0.54,0.29-0.84,0.29h-25.7C118.24,261.89,117.67,260.27,118.67,259.47z"/>
<polygon class="st1" points="365.64,210.15 238.33,108.04 227.33,119.81 342.07,210.15 "/>
<g>
	<path class="st0" d="M159.41,117.45L170.73,129c0.87,0.89,2.28,0.92,3.19,0.07l10.18-9.53c0,0-1.06-6.21,24.07-28.76
		c0,0,16.2-9.99,20.59-11.66c4.39-1.67-25.89-3.48-34.52,3.94c-8.63,7.42-16.5,17.41-17.56,17.56c-1.06,0.15-5.15,2.75-8.33,3.5
		c-2.2,0.51-6.63,5.65-9.16,8.78C158.09,114.25,158.19,116.21,159.41,117.45z"/>
	<path class="st0" d="M197.23,106.34l6.7-6.46c0.26-0.25,0.66-0.26,0.93-0.01c2.56,2.39,15.26,14.08,25.67,20.57
		c11.64,7.26,176.94,141.23,176.94,141.23h-31.53c0,0-150.39-117.36-158.66-129.73c-7.26-10.85-17.52-21.68-20.06-24.18
		C196.81,107.38,196.82,106.74,197.23,106.34z"/>
</g>
<g>
	<path class="st0" d="M342.45,26.88"/>
	<g>
		<path class="st2" d="M342.45,26.88"/>
	</g>
</g>
<g>
	<g>
		<path class="st0" d="M313.26,108.7c25.92-20.33,51.83-40.65,77.75-60.98"/>
		<g>
			<g>
				<g>
					<g>
						<path class="st3" d="M331.41,131.27c1.13,0.95,1.63,0.73,2.18,0.62C332.43,131.03,331.74,130.81,331.41,131.27z"/>
						<path class="st3" d="M333.61,131.9c0-0.01,0-0.01-0.01-0.02c-0.01,0-0.01,0-0.02,0C333.6,131.89,333.6,131.9,333.61,131.9z"/>
						<path class="st3" d="M369.74,21.21c-0.08,0.1-0.17,0.21-0.27,0.32C369.61,21.49,369.73,21.4,369.74,21.21z"/>
						<path class="st3" d="M355.19,120.27l-1.42-1.93c0.91-0.76,1.96,1.95,2.46,0.8c-1.76-2.93,1.65-0.84,0.83-2.5
							c0.16,0.22,0.64-0.03,1.27,0.82c-1.01-1.55,0.17-0.68,0.15-1.25c-0.22-0.48-0.41-0.38-0.83-0.76l0.21-0.99
							c0.6,0.28,1.33,1.09,1.2,1.45c2-0.73,10.73-5.33,11.87-7.4c-1.08-0.92-1.03,0.23-2.58-1.33c-0.3-1.32,0.93-0.19,0.34-1.36
							c2.18,2.42,1.48-0.17,3.85,2.16l-1.01-1.55l0.92,0.71c0.81-3.07-0.12-1.09,1.91-2.14c0.85-1.03-0.24-3.42,0.91-3.12
							c-0.1,0.05-1.02-0.66-1.04-1.24c1.04,1.24-0.01-1.47,1.13-0.28c0.13-0.36,1.1-0.86-0.55-2.38c0.82,0.76,1.85,0.52,2,1.63
							c0.29-0.15,0.74-0.08,0.62-0.61l-0.71-0.23c0.66-0.92,2.18,0.06,1.5-1.95l-0.86-0.44c0.42-0.51,0.75-0.98,2.3,0.59l-0.11,0.94
							c0.81-0.71,1.23-1.22,1.22-2.69l-0.29,0.15c-0.45-2.43,3.14-7.54,2.28-10.34l-1.43-1.04l-0.17-1.68
							c-0.1,0.05,3.06,4.61,2.65,4.23c1.43-1.32,8.56-8.59,10.68-8.8c1.15,0.29,1.77,2.04,1.93,2.26c0.3-1.04-0.81-1.65-0.13-2
							c0.35,0.11,0.79,1.07,0.85,1.34c0.13-0.36,0.74-0.09,0.27-0.73c-0.7-0.23-1.87-2-2.85-2.97l0.87-0.45l0.79,1.07
							c0.19-0.1-1.82-3.2-0.63-3.22c1.61-0.53,2.69-1.97,4.14-2.72c0.47,0.64,0.5,1.22,0.52,1.8c0.19-0.1,0.33-0.46,0.84-0.13
							c-1.18-0.87-0.05-1.15-0.65-1.43c-1.08-3.28,1.95-1.89,1.4-4.26c-1.73-2.36-29.27-40.91-31.41-43.65
							c0.29-0.15,0.58-0.3,0.84-0.13c-0.57-0.59-1.31-0.51-1.29,0.07l1.1,1.5c-0.21,0.99-0.83-0.76-1.34-0.19
							c-0.97-1.17-0.63-1.86-0.24-2.35c-0.54,0.2-1.66-0.34-0.81,1.12c-0.8-0.18-1.1-1.5-2-1.63c-0.07,0.63,0.39,2.16-0.57,1.77
							l-0.16-0.22c-1.95-0.47-0.07,2.99-1.92,2.47l-0.22-0.48c-0.86-0.45-0.75,0.97-1.9,0.68c0.35,0.11,1.17,0.87,0.94,1.28
							c-1.25-0.24-1.1,0.86-2.31,0.3l0.46,1.54c-2.46,1.56-10.15,10.29-12.29,12.27l-0.06-0.26c-3.03,3.32-10.26,8.85-12.59,13.29
							c-1.46-0.72-2.02,0.16-2.86,0.29c0.7,0.23,1.23,1.14,0.95,1.29c-1.88,1.26,0.51,0.89-0.9,2.79
							c-1.22,2.69-10.08,7.66-12.68,8.11c0.35,2.48-1.89,2.15-2,3.98l-0.22-0.48c-0.53,1.45-7.63,4.47-8.36,6.02l0.35,0.12
							c-0.22,1.88-1.54-0.1-2.82-0.03c1.61,1.83,1.56,3.62,1.33,4.03l-0.32-0.43c-0.26,0.73-0.13,3.31-0.78,4.23l-0.79-1.07
							c0.17,1.68-1.54,2.27-1.96,2.78c-1.51,0.48-4.74,0.08-5.22,2.69l-3.35-2.19l0.08,0.41c0,0,26.63,37.31,34.72,43.36l0.79,1.07
							l0.3-0.46c0.89,0.13,0.17-1.26,0.96-0.19l-0.77,0.4c0.73-0.08,0.82,0.74,1.1,1.48c0.28-0.06,0.58-0.09,1,0.1
							c-0.22-0.48-0.41-0.38-0.67-0.54c-0.02-0.58-0.43-1.85,0.28-1.62c0.58-0.3,1.36,1.67,2.04,1.32c3.74-1.63,7.7-2.77,10.65-5.47
							c0.41,0.38,0.31,0.43,0.38,0.69c0.59-1.19,1.56-1.69,2.05-2.83c0.61,0.28,1.18,0.87,1.59,1.25
							C350.1,124.03,354.93,120.11,355.19,120.27z"/>
					</g>
				</g>
			</g>
		</g>
	</g>
</g>
<g>
	<path class="st0" d="M331.04,139.12l-43.31-45.83c-1.31-1.38-1.64-3.45-0.75-5.13c2.92-5.5,6.9-9.09,11.69-11.22
		c1.76-0.78,3.82-0.37,5.14,1.02l43.5,46.03c1.3,1.38,1.62,3.43,0.76,5.13c-2.23,4.41-5.89,8.18-11.74,10.95
		C334.53,140.92,332.4,140.55,331.04,139.12z"/>
	<polygon class="st0" points="344.56,139.77 343.83,139 346.58,136.41 350.31,140.36 338.36,151.71 292.51,136.41 287.1,141.52 
		283.86,138.1 290.58,131.75 337.02,146.98 	"/>
</g>
<g>
	<rect x="133.28" y="195.42" class="st0" width="8.18" height="8.18"/>
	<rect x="142.2" y="195.42" class="st0" width="8.18" height="8.18"/>
	<rect x="133.28" y="204.35" class="st0" width="8.18" height="8.18"/>
	<rect x="142.2" y="204.35" class="st0" width="8.18" height="8.18"/>
</g>
<g>
	<rect x="358.56" y="197.24" class="st0" width="8.18" height="8.18"/>
	<rect x="367.49" y="197.24" class="st0" width="8.18" height="8.18"/>
	<rect x="358.56" y="206.17" class="st0" width="8.18" height="8.18"/>
	<rect x="367.49" y="206.17" class="st0" width="8.18" height="8.18"/>
</g>
<g>
	<path class="st0" d="M259.23,223.57h-17.95v-3.87c0-7.78,6.31-14.09,14.09-14.09h3.87V223.57z"/>
	<path class="st0" d="M278.82,223.57h-17.95v-17.95h3.87c7.78,0,14.09,6.31,14.09,14.09V223.57z"/>
	<rect x="241.28" y="225.21" class="st0" width="17.95" height="17.95"/>
	<rect x="260.87" y="225.21" class="st0" width="17.95" height="17.95"/>
</g>
<g id="w9KHn2_1_">
	<g>
		<path class="st0" d="M60.96,190.56c-0.27,0.03-0.46,0.07-0.65,0.08c-0.22,0.02-0.45,0.01-0.67,0.06
			c-0.38,0.08-0.65,0.44-0.68,0.82c-0.03,0.37-0.09,0.74,0.06,1.11c0.09,0.23-0.18,0.54-0.45,0.57c-0.22,0.03-0.32,0.17-0.43,0.34
			c-0.27,0.41-0.54,0.83-0.89,1.16c-0.13,0.13-0.49,0.03-0.74,0.01c-0.16-0.01-0.32-0.08-0.48-0.1c-0.28-0.03-0.38,0.08-0.25,0.34
			c0.26,0.52,0.55,1.02,0.86,1.51c0.27,0.42,0.55,0.83,0.87,1.22c0.36,0.43,0.74,0.86,1.15,1.25c0.9,0.86,2.07,1.28,3.11,1.91
			c0.46,0.28,0.9,0.08,1.35-0.08c0.66-0.24,1.34-0.43,2.03-0.6c0.17-0.04,0.38,0.05,0.57,0.09c0.31,0.07,0.53-0.06,0.74-0.27
			c0.45-0.46,0.9-0.9,1.36-1.35c0.17-0.16,0.23-0.27,0.01-0.47c-0.19-0.17-0.31-0.41-0.44-0.63c-0.03-0.05,0.01-0.19,0.07-0.23
			c0.06-0.04,0.19-0.06,0.25-0.02c0.26,0.17,0.53,0.26,0.86,0.24c0.21-0.01,0.45,0.15,0.62,0.3c0.36,0.31,0.7,0.64,1.01,0.99
			c0.15,0.17,0.16,0.41-0.03,0.61c-0.11,0.11-0.19,0.26-0.32,0.33c-0.2,0.11-0.42,0.15-0.61-0.06c-0.12-0.13-0.27-0.26-0.44-0.34
			c-0.09-0.04-0.27-0.02-0.35,0.05c-0.69,0.59-1.33,1.22-1.82,2c-0.17,0.27-0.44,0.48-0.66,0.71c-0.08,0.08-0.18,0.16-0.21,0.26
			c-0.02,0.08,0.03,0.27,0.08,0.28c0.42,0.1,0.85,0.22,1.28,0.25c0.5,0.03,0.82-0.3,0.99-0.73c0.14-0.36,0.41-0.59,0.72-0.77
			c0.31-0.18,0.67-0.28,0.98-0.47c0.15-0.09,0.23-0.3,0.37-0.5c-0.04,0,0-0.01,0.02,0c0.47,0.38,1.02,0.69,1.39,1.15
			c0.32,0.4,0.69,0.79,0.96,1.23c0.06,0.09,0.06,0.21,0.08,0.32c-0.1-0.05-0.22-0.09-0.3-0.17c-0.12-0.12-0.19-0.32-0.33-0.4
			c-0.16-0.1-0.37-0.15-0.55-0.14c-0.2,0.01-0.38,0.09-0.41,0.37c-0.02,0.16-0.18,0.29-0.27,0.44c-0.05,0.09-0.13,0.19-0.13,0.29
			c-0.01,0.32-0.17,0.49-0.45,0.63c-0.63,0.31-1.24,0.67-1.86,0.99c-0.5,0.25-1.05,0.28-1.6,0.21c-0.29-0.04-0.59-0.18-0.85-0.13
			c-0.25,0.05-0.47,0.29-0.69,0.45c-0.16,0.11-0.3,0.25-0.47,0.34c-0.11,0.05-0.29,0.07-0.38,0.02c-0.71-0.42-1.52-0.45-2.28-0.67
			c-0.99-0.28-2.03-0.46-2.89-1.1c-0.69-0.52-1.4-1.01-2.09-1.53c-0.82-0.62-1.63-1.25-2.44-1.89c-0.15-0.12-0.25-0.3-0.41-0.41
			c-0.49-0.34-1.14-0.17-1.49,0.35c-0.34,0.52-0.66,1.05-1.05,1.53c-0.42,0.52-0.92,0.99-1.38,1.49c-0.14,0.16-0.27,0.34-0.37,0.53
			c-0.19,0.34-0.46,0.59-0.81,0.76c-0.16,0.08-0.29,0.23-0.44,0.34c-0.18,0.12-0.37,0.24-0.56,0.34c-0.21,0.11-0.29,0.36-0.21,0.59
			c0.32,0.95,1.11,1.21,1.96,1.41c0.45,0.1,0.88,0.28,1.32,0.38c0.81,0.17,1.62,0.32,2.43,0.46c0.49,0.08,0.98,0.16,1.47,0.19
			c0.54,0.04,1.08,0.02,1.61,0.06c0.58,0.04,1.17,0.11,1.75,0.17c0.5,0.05,1,0.12,1.5,0.14c0.57,0.02,1.14-0.01,1.71,0.01
			c0.35,0.01,0.7,0.05,1.05,0.07c0.24,0.02,0.48,0.04,0.71,0.06c0.34,0.04,0.67,0.07,1.01,0.14c0.16,0.03,0.31,0.12,0.44,0.23
			c0.12,0.1-0.02,0.41-0.19,0.44c-0.18,0.03-0.36,0.07-0.55,0.06c-0.82-0.03-1.65-0.09-2.47-0.12c-1.48-0.06-2.97-0.11-4.45-0.17
			c-0.91-0.04-1.84-0.02-2.74-0.14c-0.92-0.12-1.83-0.39-2.74-0.56c-0.5-0.1-1.01-0.14-1.52-0.2c-0.06-0.01-0.15,0.03-0.17,0.07
			c-0.02,0.05,0,0.14,0.03,0.19c0.14,0.18,0.31,0.35,0.44,0.54c0.28,0.39,0.67,0.57,1.1,0.75c1.3,0.55,2.68,0.76,4.03,1.08
			c1.24,0.29,2.48,0.57,3.72,0.85c0.28,0.06,0.56,0.09,0.84,0.15c0.24,0.05,0.53,0.08,0.54,0.39c0.01,0.25-0.44,0.51-0.73,0.49
			c-1.03-0.06-2.02-0.28-3.01-0.55c-0.49-0.13-1.02-0.12-1.52-0.23c-0.94-0.22-1.86-0.49-2.8-0.74c-0.11-0.03-0.23-0.03-0.4-0.04
			c0.22,0.47,0.44,0.85,0.59,1.26c0.16,0.46,0.33,0.94,0.37,1.42c0.05,0.63-0.27,1.17-0.7,1.59c-0.49,0.48-0.93,0.99-1.24,1.59
			c-0.26,0.51-0.7,0.82-1.11,1.17c-0.3,0.26-0.62,0.51-0.9,0.79c-0.32,0.32-0.68,0.55-1.14,0.61c-0.43,0.05-0.72,0.34-0.94,0.67
			c-0.39,0.6-0.72,1.23-1.12,1.82c-0.2,0.29-0.48,0.54-0.75,0.78c-0.2,0.17-0.26,0.34-0.17,0.59c0.07,0.21,0.12,0.43,0.19,0.65
			c0.09,0.29,0.84,0.63,1.19,0.56c0.41-0.08,0.68-0.33,0.95-0.63c0.35-0.38,0.77-0.71,1.16-1.06c0.15-0.14,0.32-0.26,0.47-0.39
			c0.4-0.33,0.67-0.35,1.12-0.09c0.77,0.46,1.56,0.89,2.32,1.38c0.29,0.19,0.5,0.5,0.74,0.75c0.07,0.07,0.14,0.14,0.25,0.25
			c-0.02,0.04-0.06,0.14-0.14,0.21c-0.99,0.87-1.98,1.73-2.98,2.59c-0.24,0.2-0.51,0.37-0.74,0.58c-0.32,0.29-0.6,0.62-0.93,0.9
			c-0.6,0.53-1.23,1.03-1.84,1.54c-0.5,0.43-0.99,0.86-1.48,1.29c-0.68,0.6-1.35,1.2-2.03,1.8c-0.87,0.76-1.76,1.5-2.64,2.25
			c-0.82,0.71-1.64,1.42-2.46,2.13c-0.75,0.66-1.49,1.33-2.24,1.98c-0.46,0.4-0.95,0.77-1.41,1.16c-0.5,0.43-0.98,0.87-1.47,1.31
			c-0.29,0.26-0.58,0.51-0.87,0.77c-0.43,0.38-0.84,0.77-1.28,1.15c-0.53,0.46-1.06,0.92-1.6,1.37c-0.24,0.2-0.5,0.37-0.81,0.61
			c-0.15-0.56-0.28-1.03-0.4-1.51c-0.24-0.94-0.46-1.89-0.72-2.83c-0.07-0.24,0-0.39,0.16-0.53c0.7-0.62,1.41-1.24,2.11-1.86
			c0.59-0.53,1.18-1.07,1.78-1.6c0.64-0.56,1.3-1.09,1.93-1.66c0.39-0.36,0.74-0.77,1.12-1.14c0.35-0.34,0.72-0.67,1.09-0.99
			c0.51-0.44,1.04-0.86,1.55-1.3c0.2-0.17,0.1-0.38,0.01-0.56c-0.23-0.43-0.52-0.84-0.71-1.28c-0.24-0.59-0.4-1.22-0.6-1.83
			c-0.19-0.59-0.1-1.13,0.13-1.71c0.34-0.86,0.57-1.75,0.69-2.68c0.06-0.49,0.23-0.96,0.35-1.44c0.06-0.23,0.14-0.45,0.18-0.68
			c0.16-1.01,0.49-1.95,0.91-2.88c0.35-0.79,0.56-1.66,0.83-2.49c0.09-0.29,0.15-0.6,0.3-0.86c0.29-0.52,0.07-0.98-0.08-1.45
			c-0.12-0.36-0.32-0.69-0.42-1.05c-0.2-0.7-0.69-1.28-0.77-2.02c-0.01-0.06-0.03-0.13-0.07-0.16c-0.42-0.39-0.39-0.95-0.54-1.44
			c-0.04-0.12,0.05-0.27,0.1-0.41c0.19-0.52,0.07-0.88-0.45-1.19c-0.25-0.15-0.38-0.33-0.43-0.6c-0.06-0.35-0.19-0.66-0.09-1.05
			c0.08-0.35-0.04-0.74-0.04-1.11c-0.01-0.31,0-0.63,0.04-0.93c0.08-0.66,0.18-1.31,0.28-1.97c0.07-0.46,0.17-0.92,0.23-1.38
			c0.03-0.23,0.02-0.46,0.04-0.69c0.03-0.43,0.29-0.65,0.73-0.62c0.52,0.03,0.61-0.02,0.84-0.47c0.17-0.33,0.36-0.65,0.53-0.98
			c0.1-0.2,0.13-0.44,0.24-0.62c0.19-0.29,0.4-0.6,0.66-0.82c0.35-0.3,0.69-0.6,0.91-1.03c0.3-0.59,0.81-0.99,1.31-1.4
			c0.38-0.31,0.75-0.65,1.14-0.96c0.88-0.69,1.73-1.41,2.69-1.99c1.79-1.08,3.73-1.86,5.6-2.77c0.11-0.05,0.19-0.22,0.23-0.34
			c0.12-0.39,0.21-0.78,0.31-1.17c0.05-0.2,0.09-0.4,0.15-0.59c0.07-0.23,0.07-0.42-0.23-0.49c-0.18-0.05-0.23-0.18-0.13-0.36
			c0.38-0.7,0.86-1.31,1.45-1.86c0.55-0.52,1.23-0.52,1.86-0.72c1.07-0.33,2.04,0,2.92,0.6c0.48,0.33,0.92,0.73,1.3,1.17
			c0.19,0.22,0.2,0.59,0.27,0.9c0.17,0.67,0.34,1.35,0.52,2.02c0.04,0.13,0.15,0.24,0.21,0.36
			C60.73,190.05,60.82,190.27,60.96,190.56z M44.6,227.25c-0.03-0.02-0.05-0.04-0.08-0.06c-0.29,0.07-0.57,0.17-0.86,0.2
			c-0.59,0.07-1.15,0.01-1.59-0.46c-0.04-0.05-0.14-0.12-0.16-0.11c-0.08,0.05-0.18,0.12-0.2,0.2c-0.11,0.5-0.22,0.99-0.27,1.5
			c-0.05,0.5-0.22,0.87-0.72,1.03c-0.07,0.02-0.16,0.07-0.2,0.14c-0.26,0.47-0.51,0.94-0.75,1.42c-0.05,0.1-0.02,0.24-0.02,0.36
			c0.39-0.21,0.7-0.44,0.99-0.69c0.56-0.49,1.11-1,1.66-1.5c0.37-0.34,0.74-0.68,1.12-1.01c0.31-0.26,0.63-0.51,0.94-0.77
			C44.52,227.44,44.55,227.33,44.6,227.25z M45.98,215.63c-0.05-0.64-0.37-1.03-0.71-1.4c-0.05-0.06-0.22-0.07-0.3-0.03
			c-0.05,0.02-0.09,0.19-0.07,0.26c0.14,0.42,0.28,0.84,0.47,1.23c0.05,0.12,0.27,0.25,0.37,0.23
			C45.85,215.89,45.93,215.7,45.98,215.63z"/>
	</g>
</g>
<g>
	<path class="st0" d="M12.67,301.83c-1.81-1.34-2.79-3.26-2.93-5.76h7.19c0.07,0.85,0.32,1.47,0.76,1.86c0.44,0.39,1,0.59,1.69,0.59
		c0.62,0,1.13-0.15,1.53-0.46c0.4-0.31,0.6-0.74,0.6-1.29c0-0.71-0.33-1.26-1-1.65c-0.67-0.39-1.74-0.83-3.23-1.31
		c-1.58-0.53-2.86-1.04-3.84-1.53c-0.98-0.49-1.82-1.22-2.55-2.17c-0.72-0.95-1.08-2.2-1.08-3.73c0-1.56,0.39-2.9,1.17-4.01
		c0.78-1.11,1.86-1.96,3.23-2.53c1.38-0.57,2.94-0.86,4.68-0.86c2.82,0,5.08,0.66,6.76,1.98c1.69,1.32,2.59,3.17,2.7,5.56h-7.33
		c-0.02-0.73-0.25-1.28-0.67-1.65c-0.42-0.37-0.97-0.55-1.63-0.55c-0.51,0-0.92,0.15-1.24,0.45c-0.32,0.3-0.48,0.72-0.48,1.27
		c0,0.46,0.18,0.86,0.53,1.19c0.36,0.33,0.8,0.62,1.32,0.86c0.53,0.24,1.31,0.55,2.34,0.91c1.54,0.53,2.8,1.05,3.8,1.57
		c1,0.52,1.86,1.24,2.58,2.17c0.72,0.93,1.08,2.11,1.08,3.53c0,1.45-0.36,2.74-1.08,3.89c-0.72,1.15-1.77,2.05-3.13,2.72
		s-2.98,1-4.83,1C16.8,303.84,14.48,303.17,12.67,301.83z"/>
	<path class="st0" d="M38.55,284.75v3.96h7.74v5.13h-7.74v4.37h8.77v5.4H31.8v-24.26h15.52v5.4H38.55z"/>
	<path class="st0" d="M62.95,303.6l-4.82-8.95h-0.72v8.95h-6.74v-24.26H61.3c1.95,0,3.6,0.34,4.96,1.02
		c1.35,0.68,2.37,1.61,3.06,2.79c0.69,1.18,1.03,2.51,1.03,3.98c0,1.65-0.45,3.1-1.36,4.35c-0.91,1.25-2.23,2.14-3.97,2.67
		l5.47,9.46H62.95z M57.41,290.05h3.34c0.92,0,1.61-0.22,2.06-0.65c0.46-0.44,0.69-1.07,0.69-1.89c0-0.78-0.24-1.39-0.71-1.84
		c-0.47-0.45-1.15-0.67-2.05-0.67h-3.34V290.05z"/>
	<path class="st0" d="M97.02,279.34l-8.36,24.26h-8.64l-8.4-24.26h7.23l5.51,17.52l5.47-17.52H97.02z"/>
	<path class="st0" d="M105.86,279.34v24.26h-6.74v-24.26H105.86z"/>
	<path class="st0" d="M110.39,285.04c1-1.87,2.41-3.33,4.25-4.37c1.84-1.04,3.95-1.57,6.33-1.57c3.03,0,5.57,0.81,7.64,2.43
		c2.06,1.62,3.39,3.81,3.99,6.59h-7.26c-0.44-0.92-1.04-1.62-1.81-2.1c-0.77-0.48-1.66-0.72-2.67-0.72c-1.56,0-2.8,0.56-3.73,1.67
		s-1.39,2.6-1.39,4.46c0,1.88,0.46,3.38,1.39,4.49s2.17,1.67,3.73,1.67c1.01,0,1.9-0.24,2.67-0.72c0.77-0.48,1.37-1.18,1.81-2.1
		h7.26c-0.6,2.78-1.93,4.97-3.99,6.59c-2.06,1.62-4.61,2.43-7.64,2.43c-2.39,0-4.5-0.52-6.33-1.57c-1.84-1.04-3.25-2.5-4.25-4.37
		c-1-1.87-1.5-4.01-1.5-6.42C108.89,289.04,109.39,286.91,110.39,285.04z"/>
	<path class="st0" d="M142.54,279.34v24.26h-6.74v-24.26H142.54z"/>
	<path class="st0" d="M151.77,302.24c-1.9-1.07-3.41-2.55-4.53-4.44c-1.11-1.89-1.67-4.03-1.67-6.42c0-2.39,0.56-4.53,1.67-6.42
		c1.11-1.89,2.62-3.37,4.53-4.42c1.9-1.06,3.99-1.58,6.26-1.58c2.29,0,4.39,0.53,6.28,1.58s3.39,2.53,4.49,4.42
		c1.1,1.89,1.65,4.03,1.65,6.42c0,2.39-0.55,4.53-1.65,6.42c-1.1,1.89-2.6,3.37-4.51,4.44s-3.99,1.6-6.26,1.6
		C155.76,303.84,153.67,303.31,151.77,302.24z M162.11,295.9c1-1.12,1.5-2.63,1.5-4.51c0-1.93-0.5-3.45-1.5-4.56
		c-1-1.11-2.36-1.67-4.08-1.67c-1.74,0-3.11,0.56-4.1,1.67c-0.99,1.11-1.48,2.63-1.48,4.56c0,1.9,0.49,3.41,1.48,4.53
		c0.99,1.11,2.35,1.67,4.1,1.67C159.75,297.58,161.11,297.02,162.11,295.9z"/>
	<path class="st0" d="M175.68,301.83c-1.81-1.34-2.79-3.26-2.93-5.76h7.19c0.07,0.85,0.32,1.47,0.76,1.86
		c0.44,0.39,1,0.59,1.69,0.59c0.62,0,1.13-0.15,1.53-0.46c0.4-0.31,0.6-0.74,0.6-1.29c0-0.71-0.33-1.26-1-1.65
		c-0.67-0.39-1.74-0.83-3.23-1.31c-1.58-0.53-2.86-1.04-3.84-1.53c-0.98-0.49-1.82-1.22-2.55-2.17c-0.72-0.95-1.08-2.2-1.08-3.73
		c0-1.56,0.39-2.9,1.17-4.01c0.78-1.11,1.86-1.96,3.23-2.53c1.38-0.57,2.94-0.86,4.68-0.86c2.82,0,5.08,0.66,6.76,1.98
		c1.69,1.32,2.59,3.17,2.7,5.56h-7.33c-0.02-0.73-0.25-1.28-0.67-1.65c-0.42-0.37-0.97-0.55-1.63-0.55c-0.51,0-0.92,0.15-1.24,0.45
		c-0.32,0.3-0.48,0.72-0.48,1.27c0,0.46,0.18,0.86,0.53,1.19c0.36,0.33,0.8,0.62,1.32,0.86c0.53,0.24,1.31,0.55,2.34,0.91
		c1.54,0.53,2.8,1.05,3.8,1.57c1,0.52,1.86,1.24,2.58,2.17c0.72,0.93,1.08,2.11,1.08,3.53c0,1.45-0.36,2.74-1.08,3.89
		c-0.72,1.15-1.77,2.05-3.13,2.72c-1.36,0.67-2.98,1-4.83,1C179.81,303.84,177.49,303.17,175.68,301.83z"/>
	<path class="st0" d="M208.13,284.75v3.96h7.74v5.13h-7.74v4.37h8.77v5.4h-15.52v-24.26h15.52v5.4H208.13z"/>
	<path class="st0" d="M222.45,301.83c-1.81-1.34-2.79-3.26-2.93-5.76h7.19c0.07,0.85,0.32,1.47,0.76,1.86
		c0.44,0.39,1,0.59,1.69,0.59c0.62,0,1.13-0.15,1.53-0.46c0.4-0.31,0.6-0.74,0.6-1.29c0-0.71-0.33-1.26-1-1.65
		c-0.67-0.39-1.74-0.83-3.23-1.31c-1.58-0.53-2.86-1.04-3.84-1.53c-0.98-0.49-1.82-1.22-2.55-2.17c-0.72-0.95-1.08-2.2-1.08-3.73
		c0-1.56,0.39-2.9,1.17-4.01c0.78-1.11,1.86-1.96,3.23-2.53c1.38-0.57,2.94-0.86,4.68-0.86c2.82,0,5.08,0.66,6.76,1.98
		c1.69,1.32,2.59,3.17,2.7,5.56h-7.33c-0.02-0.73-0.25-1.28-0.67-1.65c-0.42-0.37-0.97-0.55-1.63-0.55c-0.51,0-0.92,0.15-1.24,0.45
		c-0.32,0.3-0.48,0.72-0.48,1.27c0,0.46,0.18,0.86,0.53,1.19c0.36,0.33,0.8,0.62,1.32,0.86c0.53,0.24,1.31,0.55,2.34,0.91
		c1.54,0.53,2.8,1.05,3.8,1.57c1,0.52,1.86,1.24,2.58,2.17c0.72,0.93,1.08,2.11,1.08,3.53c0,1.45-0.36,2.74-1.08,3.89
		c-0.72,1.15-1.77,2.05-3.13,2.72s-2.98,1-4.83,1C226.58,303.84,224.26,303.17,222.45,301.83z"/>
	<path class="st0" d="M259.73,291.44c-0.68,1.2-1.7,2.17-3.06,2.89c-1.36,0.72-3.03,1.08-5.01,1.08h-3.34v8.19h-6.74v-24.26h10.08
		c1.95,0,3.61,0.34,4.97,1.03c1.37,0.69,2.39,1.64,3.08,2.86c0.69,1.22,1.03,2.62,1.03,4.2
		C260.75,288.9,260.41,290.23,259.73,291.44z M253.87,287.43c0-1.77-0.95-2.65-2.86-2.65h-2.68v5.26h2.68
		C252.91,290.05,253.87,289.17,253.87,287.43z"/>
	<path class="st0" d="M270.21,284.75v3.96h7.74v5.13h-7.74v4.37h8.78v5.4h-15.52v-24.26h15.52v5.4H270.21z"/>
	<path class="st0" d="M283,285.04c1-1.87,2.41-3.33,4.25-4.37c1.83-1.04,3.95-1.57,6.33-1.57c3.03,0,5.57,0.81,7.64,2.43
		c2.06,1.62,3.4,3.81,3.99,6.59h-7.26c-0.44-0.92-1.04-1.62-1.81-2.1c-0.77-0.48-1.66-0.72-2.67-0.72c-1.56,0-2.8,0.56-3.73,1.67
		c-0.93,1.11-1.39,2.6-1.39,4.46c0,1.88,0.46,3.38,1.39,4.49c0.93,1.11,2.17,1.67,3.73,1.67c1.01,0,1.9-0.24,2.67-0.72
		c0.77-0.48,1.37-1.18,1.81-2.1h7.26c-0.6,2.78-1.93,4.97-3.99,6.59c-2.06,1.62-4.61,2.43-7.64,2.43c-2.39,0-4.5-0.52-6.33-1.57
		c-1.84-1.04-3.25-2.5-4.25-4.37c-1-1.87-1.5-4.01-1.5-6.42C281.5,289.04,282,286.91,283,285.04z"/>
	<path class="st0" d="M315.15,279.34v24.26h-6.74v-24.26H315.15z"/>
	<path class="st0" d="M334.36,299.65h-8.6l-1.31,3.96h-7.09l8.84-24.26h7.78l8.81,24.26h-7.12L334.36,299.65z M332.67,294.48
		l-2.62-7.85l-2.58,7.85H332.67z"/>
	<path class="st0" d="M351.73,298.44h7.54v5.16h-14.28v-24.26h6.74V298.44z"/>
	<path class="st0" d="M368.63,284.75v3.96h7.74v5.13h-7.74v4.37h8.78v5.4h-15.52v-24.26h15.52v5.4H368.63z"/>
	<path class="st0" d="M382.95,301.83c-1.81-1.34-2.79-3.26-2.92-5.76h7.19c0.07,0.85,0.32,1.47,0.76,1.86
		c0.44,0.39,1,0.59,1.69,0.59c0.62,0,1.13-0.15,1.53-0.46c0.4-0.31,0.6-0.74,0.6-1.29c0-0.71-0.33-1.26-1-1.65
		c-0.67-0.39-1.74-0.83-3.23-1.31c-1.58-0.53-2.86-1.04-3.84-1.53c-0.98-0.49-1.82-1.22-2.55-2.17c-0.72-0.95-1.08-2.2-1.08-3.73
		c0-1.56,0.39-2.9,1.17-4.01c0.78-1.11,1.86-1.96,3.23-2.53c1.38-0.57,2.94-0.86,4.68-0.86c2.82,0,5.08,0.66,6.76,1.98
		c1.69,1.32,2.59,3.17,2.7,5.56h-7.33c-0.02-0.73-0.25-1.28-0.67-1.65c-0.42-0.37-0.97-0.55-1.63-0.55c-0.51,0-0.92,0.15-1.24,0.45
		c-0.32,0.3-0.48,0.72-0.48,1.27c0,0.46,0.18,0.86,0.53,1.19c0.36,0.33,0.8,0.62,1.32,0.86c0.53,0.24,1.31,0.55,2.34,0.91
		c1.54,0.53,2.81,1.05,3.8,1.57c1,0.52,1.86,1.24,2.58,2.17c0.72,0.93,1.08,2.11,1.08,3.53c0,1.45-0.36,2.74-1.08,3.89
		c-0.72,1.15-1.77,2.05-3.13,2.72s-2.98,1-4.83,1C387.08,303.84,384.76,303.17,382.95,301.83z"/>
	<path class="st0" d="M426.81,291.44c-0.68,1.2-1.7,2.17-3.06,2.89c-1.37,0.72-3.03,1.08-5.01,1.08h-3.34v8.19h-6.74v-24.26h10.08
		c1.95,0,3.61,0.34,4.97,1.03c1.37,0.69,2.39,1.64,3.08,2.86c0.69,1.22,1.03,2.62,1.03,4.2
		C427.82,288.9,427.48,290.23,426.81,291.44z M420.94,287.43c0-1.77-0.95-2.65-2.86-2.65h-2.68v5.26h2.68
		C419.99,290.05,420.94,289.17,420.94,287.43z"/>
	<path class="st0" d="M445.89,299.65h-8.6l-1.31,3.96h-7.09l8.84-24.26h7.78l8.81,24.26h-7.12L445.89,299.65z M444.2,294.48
		l-2.62-7.85l-2.58,7.85H444.2z"/>
	<path class="st0" d="M468.81,303.6l-4.82-8.95h-0.72v8.95h-6.74v-24.26h10.63c1.95,0,3.6,0.34,4.96,1.02
		c1.35,0.68,2.37,1.61,3.06,2.79c0.69,1.18,1.03,2.51,1.03,3.98c0,1.65-0.45,3.1-1.36,4.35c-0.91,1.25-2.23,2.14-3.97,2.67
		l5.47,9.46H468.81z M463.27,290.05h3.34c0.92,0,1.61-0.22,2.06-0.65c0.46-0.44,0.69-1.07,0.69-1.89c0-0.78-0.24-1.39-0.71-1.84
		c-0.47-0.45-1.15-0.67-2.05-0.67h-3.34V290.05z"/>
	<path class="st0" d="M494.62,299.65h-8.6l-1.31,3.96h-7.09l8.84-24.26h7.78l8.81,24.26h-7.12L494.62,299.65z M492.93,294.48
		l-2.62-7.85l-2.58,7.85H492.93z"/>
</g>
<g>
	<path class="st0" d="M187.18,338.67c-1.34-0.57-2.4-1.4-3.18-2.48c-0.78-1.08-1.18-2.35-1.2-3.82h5.16
		c0.07,0.99,0.42,1.77,1.05,2.34c0.63,0.57,1.5,0.86,2.6,0.86c1.12,0,2.01-0.27,2.65-0.81c0.64-0.54,0.96-1.24,0.96-2.12
		c0-0.71-0.22-1.3-0.65-1.75c-0.44-0.46-0.98-0.82-1.63-1.08c-0.65-0.26-1.55-0.56-2.7-0.88c-1.56-0.46-2.83-0.91-3.8-1.36
		c-0.98-0.45-1.81-1.12-2.51-2.03c-0.7-0.91-1.05-2.12-1.05-3.63c0-1.42,0.36-2.66,1.07-3.72c0.71-1.06,1.71-1.86,2.99-2.43
		c1.28-0.56,2.75-0.84,4.4-0.84c2.48,0,4.49,0.6,6.04,1.81c1.55,1.2,2.4,2.89,2.56,5.04h-5.3c-0.05-0.83-0.4-1.51-1.05-2.05
		c-0.65-0.54-1.52-0.81-2.6-0.81c-0.94,0-1.69,0.24-2.25,0.72c-0.56,0.48-0.84,1.18-0.84,2.1c0,0.64,0.21,1.17,0.64,1.6
		c0.42,0.42,0.95,0.77,1.58,1.03c0.63,0.26,1.52,0.57,2.67,0.91c1.56,0.46,2.83,0.92,3.82,1.38c0.99,0.46,1.84,1.15,2.55,2.06
		c0.71,0.92,1.07,2.12,1.07,3.61c0,1.29-0.33,2.48-1,3.58c-0.67,1.1-1.64,1.98-2.92,2.63c-1.29,0.65-2.81,0.98-4.58,0.98
		C190.03,339.53,188.52,339.24,187.18,338.67z"/>
	<path class="st0" d="M209.11,315.27v14.87c0,1.63,0.42,2.87,1.27,3.73c0.85,0.86,2.04,1.29,3.58,1.29c1.56,0,2.76-0.43,3.61-1.29
		c0.85-0.86,1.27-2.1,1.27-3.73v-14.87h4.85v14.83c0,2.04-0.44,3.77-1.32,5.18c-0.88,1.41-2.06,2.47-3.54,3.18
		c-1.48,0.71-3.13,1.07-4.94,1.07c-1.79,0-3.41-0.36-4.87-1.07c-1.46-0.71-2.61-1.77-3.46-3.18c-0.85-1.41-1.27-3.14-1.27-5.18
		v-14.83H209.11z"/>
	<path class="st0" d="M236.97,320.9c1.07-1.87,2.52-3.33,4.37-4.37c1.85-1.04,3.92-1.57,6.21-1.57c2.68,0,5.04,0.69,7.05,2.06
		c2.02,1.38,3.43,3.28,4.23,5.71h-5.54c-0.55-1.15-1.32-2.01-2.32-2.58c-1-0.57-2.15-0.86-3.46-0.86c-1.4,0-2.64,0.33-3.73,0.98
		c-1.09,0.65-1.94,1.58-2.55,2.77c-0.61,1.19-0.91,2.59-0.91,4.2c0,1.58,0.3,2.98,0.91,4.18c0.61,1.2,1.46,2.13,2.55,2.79
		s2.33,0.98,3.73,0.98c1.31,0,2.46-0.29,3.46-0.88c1-0.58,1.77-1.45,2.32-2.6h5.54c-0.8,2.46-2.21,4.37-4.22,5.73
		c-2.01,1.37-4.36,2.05-7.07,2.05c-2.29,0-4.37-0.52-6.21-1.57c-1.85-1.04-3.3-2.5-4.37-4.35c-1.07-1.86-1.6-3.97-1.6-6.33
		C235.37,324.88,235.9,322.77,236.97,320.9z"/>
	<path class="st0" d="M277.7,334.71h-9.57l-1.58,4.58h-5.06l8.64-24.05h5.61l8.64,24.05h-5.09L277.7,334.71z M276.39,330.86
		l-3.48-10.05l-3.48,10.05H276.39z"/>
	<path class="st0" d="M291.38,338.67c-1.34-0.57-2.4-1.4-3.18-2.48c-0.78-1.08-1.18-2.35-1.2-3.82h5.16
		c0.07,0.99,0.42,1.77,1.05,2.34c0.63,0.57,1.5,0.86,2.6,0.86c1.12,0,2.01-0.27,2.65-0.81c0.64-0.54,0.96-1.24,0.96-2.12
		c0-0.71-0.22-1.3-0.65-1.75c-0.44-0.46-0.98-0.82-1.64-1.08c-0.65-0.26-1.55-0.56-2.7-0.88c-1.56-0.46-2.83-0.91-3.8-1.36
		c-0.98-0.45-1.81-1.12-2.51-2.03c-0.7-0.91-1.05-2.12-1.05-3.63c0-1.42,0.36-2.66,1.07-3.72c0.71-1.06,1.71-1.86,2.99-2.43
		c1.28-0.56,2.75-0.84,4.4-0.84c2.48,0,4.49,0.6,6.04,1.81c1.55,1.2,2.4,2.89,2.56,5.04h-5.3c-0.05-0.83-0.4-1.51-1.05-2.05
		c-0.65-0.54-1.52-0.81-2.6-0.81c-0.94,0-1.69,0.24-2.25,0.72s-0.84,1.18-0.84,2.1c0,0.64,0.21,1.17,0.64,1.6
		c0.42,0.42,0.95,0.77,1.58,1.03c0.63,0.26,1.52,0.57,2.67,0.91c1.56,0.46,2.83,0.92,3.82,1.38c0.99,0.46,1.83,1.15,2.55,2.06
		c0.71,0.92,1.07,2.12,1.07,3.61c0,1.29-0.33,2.48-1,3.58c-0.67,1.1-1.64,1.98-2.92,2.63c-1.28,0.65-2.81,0.98-4.58,0.98
		C294.23,339.53,292.72,339.24,291.38,338.67z"/>
	<path class="st0" d="M323.29,334.71h-9.57l-1.58,4.58h-5.06l8.64-24.05h5.61l8.64,24.05h-5.09L323.29,334.71z M321.98,330.86
		l-3.48-10.05l-3.48,10.05H321.98z"/>
</g>
<line class="st4" x1="9.45" y1="330.69" x2="173.77" y2="330.69"/>
<line class="st4" x1="337.14" y1="330.69" x2="503.01" y2="330.69"/>
</svg>
