<?xml version="1.0" encoding="utf-8"?>
<!-- Generator: Adobe Illustrator 24.0.0, SVG Export Plug-In . SVG Version: 6.00 Build 0)  -->
<svg version="1.1" id="Capa_1" xmlns="http://www.w3.org/2000/svg" xmlns:xlink="http://www.w3.org/1999/xlink" x="0px" y="0px"
	 viewBox="0 0 2260 1397" style="enable-background:new 0 0 2260 1397;" xml:space="preserve">
<style type="text/css">
	.st0{fill:none;stroke:#FFE000;stroke-miterlimit:10;stroke-opacity:0.2;}
</style>
<path class="st0" d="M157.4,1115.4l524-537.3c43-44.1,28.8-117.4-27.3-142.4L178.8,224.2c-56.1-25-120,13.6-124,74.9l-48.7,749
	C0.7,1130,100.2,1174.2,157.4,1115.4z"/>
<path class="st0" d="M210,1123.4l489.9-556.9c40.6-46.1,22.7-118.6-34.7-140.7L183.8,241c-57.4-22.1-119.1,19.9-119.9,81.4
	l-8.5,741.7C54.4,1146,155.8,1185,210,1123.4z"/>
<path class="st0" d="M262.1,1129.9l455.3-574.4c38.3-48.2,16.6-119.8-41.9-138.8l-485.9-158c-58.5-19-118.1,26.2-115.5,87.7
	l30.7,732.3C108.3,1160.5,211.4,1194.1,262.1,1129.9z"/>
<path class="st0" d="M314.1,1134.8l420.2-589.7c35.8-50.2,10.5-120.6-49-136.5l-489.2-131C136.6,261.7,79.5,310,85.3,371.3l69,720.8
	C162.1,1173.5,266.7,1201.5,314.1,1134.8z"/>
<path class="st0" d="M365.6,1138.5l384.6-603.1c33.2-51.9,4.2-121-56-133.8L203.4,297.3c-60.3-12.8-114.9,38.5-105.7,99.5
	l106.2,707.4C216,1184.9,321.8,1207.3,365.6,1138.5z"/>
<path class="st0" d="M416.4,1140.8l349-614.3c30.5-53.6-2-121.1-62.9-130.8l-490.9-77.8c-60.9-9.7-112.7,44.5-100.3,105l142,692.1
	C269.7,1194.8,376.3,1211.7,416.4,1140.8z"/>
<path class="st0" d="M467,1141.8l313.1-623.4c27.7-55.2-8.3-121-69.7-127.5l-489.8-51.5c-61.3-6.5-110.2,50.4-94.6,110.1
	l176.6,674.9C323.3,1203.2,430.4,1214.5,467,1141.8z"/>
<path class="st0" d="M516.6,1141.4l277.3-630.7c24.9-56.6-14.6-120.5-76.2-123.7l-487.1-25.6c-61.7-3.2-107.6,56.3-88.7,115.1
	l209.8,656.2C376.5,1210.2,484,1215.8,516.6,1141.4z"/>
<path class="st0" d="M565.5,1139.8L807.1,504c21.9-57.7-20.7-119.6-82.6-119.6H241.4c-61.8,0-104.5,61.8-82.5,119.6l241.7,635.9
	C429.4,1215.7,536.9,1215.7,565.5,1139.8z"/>
<path class="st0" d="M613.9,1137.2l206.1-639c19-58.9-26.9-118.5-88.7-115.3l-477.8,25c-61.8,3.2-101.1,67.3-76.1,123.9l271.8,614
	C481.9,1219.9,589,1214.3,613.9,1137.2z"/>
<path class="st0" d="M661.3,1133.1L832.2,493c16-59.8-33-117.1-94.5-110.6L266.4,432c-61.6,6.5-97.5,72.6-69.5,127.8l300.3,590.7
	C534,1222.7,640.3,1211.5,661.3,1133.1z"/>
<path class="st0" d="M707.8,1128.4L844,488.9c12.8-60.6-39-115.3-100.2-105.6l-463.4,73.4c-61.2,9.7-93.6,77.7-62.6,131.4
	L545,1154.2C585.4,1224.2,690.9,1207.5,707.8,1128.4z"/>
<path class="st0" d="M753.2,1122.5l102.1-637c9.8-61.2-44.8-113.2-105.5-100.3l-454.3,96.6c-60.7,12.9-89.4,82.7-55.6,134.6
	l352.3,540.5C636.2,1224.5,740.6,1202.4,753.2,1122.5z"/>
<path class="st0" d="M798,1115.8l68.4-632.7c6.7-61.7-50.8-110.9-110.7-94.8l-444.2,119c-59.9,16.1-85,87.3-48.4,137.4l375.7,513.7
	C686.5,1223.5,789.2,1196,798,1115.8z"/>
<path class="st0" d="M841.2,1108.2l35.7-626.7c3.6-62.1-56.3-108.2-115.4-89L328.7,533.1c-59.1,19.2-80.4,91.8-41.1,139.9l397.2,486
	C735.8,1221.3,836.8,1188.6,841.2,1108.2z"/>
<path class="st0" d="M883.8,1099.8l3.7-619c0.4-62.2-61.8-105.3-119.9-83L347.1,559.2c-58,22.3-75.4,96-33.6,141.9l416.8,457.6
	C784.4,1218.1,883.5,1180.2,883.8,1099.8z"/>
<path class="st0" d="M925.2,1090.5l-27.5-609.6c-2.8-62.2-67.3-102-124.1-76.7L366.5,585.5c-56.9,25.3-70.4,99.9-26.1,143.5
	l434.7,428.5C832.3,1213.8,928.8,1170.8,925.2,1090.5z"/>
<path class="st0" d="M965.5,1081l-57.7-598.9c-6-62.1-72.5-98.5-128-70.3L386.9,612c-55.5,28.3-65.1,103.5-18.4,144.8l450.6,398.6
	C879.2,1208.5,973.1,1160.7,965.5,1081z"/>
<path class="st0" d="M1004.4,1070.4l-86.8-586.5c-9.1-61.7-77.5-94.7-131.5-63.6L408.4,638.4c-53.9,31.3-59.5,107-10.7,145.7
	l464.6,368.5C925.1,1202.4,1016.2,1149.7,1004.4,1070.4z"/>
<path class="st0" d="M1042.4,1059.7L927.7,486.8c-12.3-61.1-82.4-90.6-134.7-56.7L431.1,665c-52.4,34-53.9,110-3,146.1L904.8,1149
	C970,1195.2,1058.2,1138,1042.4,1059.7z"/>
<path class="st0" d="M1079.2,1048.4L937.6,490.5c-15.4-60.5-87-86.4-137.5-49.7L454.9,691.6c-50.5,36.7-48,112.8,4.8,146.1
	l486.8,307C1014,1187.3,1098.8,1125.6,1079.2,1048.4z"/>
<path class="st0" d="M1114.8,1036.7L947.7,495c-18.5-59.7-91.4-81.9-140-42.6L479.8,717.9c-48.6,39.3-42.1,115.2,12.5,145.7
	l495.1,276.3C1056.9,1178.7,1138.2,1112.8,1114.8,1036.7z"/>
<path class="st0" d="M1148.9,1024.9L957.4,500.5c-21.4-58.7-95.6-77.1-142-35.3l-310,279.1c-46.5,41.8-36,117.4,20.3,144.9
	l501.6,245.3C1098.7,1169.4,1176.3,1099.5,1148.9,1024.9z"/>
<path class="st0" d="M1182.2,1012.7L967.7,506.6c-24.5-57.6-99.5-72.3-143.8-28L532.3,770.2c-44.3,44.3-29.7,119.3,28,143.8
	l506,214.4C1139.4,1159.5,1213.1,1085.8,1182.2,1012.7z"/>
<path class="st0" d="M1214,1000.6L978,513.8c-27.4-56.5-103.2-67.2-145.1-20.6L560.2,796.1c-42,46.5-23.3,120.8,35.6,142.1
	l508.8,183.9C1179.1,1148.9,1248.6,1071.7,1214,1000.6z"/>
<path class="st0" d="M1244.8,988L988.6,521.3c-30.1-54.9-106.6-61.8-146-13L589.1,821.4c-39.6,48.7-17,122,43.1,140.1l509.7,153.7
	C1217.5,1138,1282.7,1057.5,1244.8,988z"/>
<path class="st0" d="M1274.3,975.9l-275-445.8c-33-53.5-109.6-56.4-146.6-5.5l-234,322c-37,50.8-10.5,122.8,50.5,137.7l509,123.8
	C1254.9,1126.7,1315.7,1043.1,1274.3,975.9z"/>
<path class="st0" d="M1302.6,963.7l-292.4-424.4c-35.7-51.8-112.5-50.7-146.8,2L649.3,871.1c-34.2,52.8-4,123.4,57.9,134.9
	l506.5,94.5C1291.2,1115,1347.3,1028.5,1302.6,963.7z"/>
<path class="st0" d="M1329.7,951.6l-308-402c-38.3-49.9-115.1-44.9-146.6,9.6L680.9,895.4c-31.5,54.5,2.6,123.5,65,131.7l502.3,65.8
	C1326.2,1103.1,1377.6,1014,1329.7,951.6z"/>
<path class="st0" d="M1355.8,939.7l-322.7-379.3c-40.7-48-117.2-39-145.9,17.1l-174,341.6c-28.5,56.1,9.2,123.4,72,128.1l496.6,37.8
	C1360,1090.9,1406.6,999.5,1355.8,939.7z"/>
<path class="st0" d="M1380.7,928.2l-335.5-356.5c-43.2-46-119.3-33.1-144.9,24.6l-154,345.8c-25.6,57.5,15.8,122.7,78.8,124.1
	l489.4,10.7C1392.8,1078.6,1434.4,985.2,1380.7,928.2z"/>
<path class="st0" d="M1404.6,916.9l-346.8-333.2c-45.6-43.8-121.1-26.9-143.7,32l-134,348.8c-22.6,59,22.2,121.9,85.4,119.9
	l480.8-15.6C1424.4,1066.2,1461,971.1,1404.6,916.9z"/>
<path class="st0" d="M1427.6,906l-356.8-309.8c-47.8-41.5-122.4-20.8-141.9,39.3l-114,350.8c-19.6,60.2,28.6,120.8,91.6,115.3
	l470.6-41C1454.8,1054,1486.3,957.2,1427.6,906z"/>
<path class="st0" d="M1449.2,895.7l-365-286.1c-49.9-39-123.4-14.5-139.8,46.7l-94.2,351.4c-16.4,61.1,35,119.1,97.7,110.2
	l459.3-65.3C1484.3,1041.7,1510.5,943.7,1449.2,895.7z"/>
<path class="st0" d="M1470.2,885.8L1098,623.3c-51.8-36.5-124.2-8.2-137.3,53.8L886,1028.2c-13.1,62,41.4,117.3,103.6,105
	l446.7-88.6C1512.5,1029.5,1533.5,930.6,1470.2,885.8z"/>
<path class="st0" d="M1490,876.5l-377.6-239c-53.6-33.9-124.5-1.9-134.4,60.8l-55.4,349.6c-9.9,62.8,47.6,115.1,109.1,99.4
	l433-110.7C1539.7,1017.4,1555.5,917.9,1490,876.5z"/>
<path class="st0" d="M1509.1,867.7l-381.7-215.5c-55.4-31.2-124.6,4.4-131.3,67.7L959.6,1067c-6.6,63.1,53.6,112.5,114.3,93.4
	l418.2-131.5C1565.9,1005.7,1576.3,905.8,1509.1,867.7z"/>
<path class="st0" d="M1527.3,859.7l-384.5-192.5c-56.9-28.4-124.4,10.8-127.7,74.4l-18,343.6c-3.3,63.6,59.6,109.7,119.2,87.3
	l402.5-151.2C1591,994.3,1596.2,894.1,1527.3,859.7z"/>
<path class="st0" d="M1544.7,852.3l-385.9-169.4c-58.4-25.7-123.8,17.1-123.8,80.8v339c0,63.7,65.5,106.4,123.8,80.8l385.9-169.5
	C1615.1,983.1,1615.1,883.3,1544.7,852.3z"/>
<path class="st0" d="M1561.3,845.7l-385.9-147c-59.7-22.6-122.9,23.5-119.6,87.2l17.5,333.5c3.3,63.6,71.1,103,128,74.1l368.5-186.5
	C1638.3,972.4,1633,872.9,1561.3,845.7z"/>
<path class="st0" d="M1577.4,839.8L1192.7,715c-60.8-19.7-121.8,29.6-115.1,93.2l34.4,327.2c6.7,63.5,76.5,99.1,131.9,67.2
	l350.4-202.3C1660.5,962,1650.1,863.4,1577.4,839.8z"/>
<path class="st0" d="M1592.8,834.8l-382.5-103.5c-61.7-16.7-120.2,35.7-110.2,99l50.7,320c10.1,63.2,81.9,95.1,135.5,60.1
	L1618,993.9C1681.8,952.2,1666.4,854.6,1592.8,834.8z"/>
<path class="st0" d="M1607.8,830.4L1228.9,748c-62.7-13.6-118.6,41.9-105.2,104.6l66.3,311.9c13.3,62.7,86.9,90.7,138.6,52.8
	l312.5-229.4C1702.4,943,1681.9,846.6,1607.8,830.4z"/>
<path class="st0" d="M1621.9,827l-374.1-62c-63.4-10.6-116.4,47.8-99.8,109.9l81.1,303c16.6,62.1,91.8,86.1,141.4,45.4l293-240.9
	C1722.1,934.2,1696.7,839.5,1621.9,827z"/>
<path class="st0" d="M1635.6,824.5L1267.1,782c-63.9-7.4-113.9,53.8-94.1,115l95.4,293.5c20,61.1,96.5,81.2,143.8,37.7l273.2-251
	C1741,926,1710.8,833.1,1635.6,824.5z"/>
<path class="st0" d="M1649.2,822.8l-361.8-23.6c-64.3-4.2-111.3,59.6-88.2,119.7l108.7,283.3c23.1,60.2,100.8,76.1,145.7,30
	l253-259.6C1759.3,918.6,1724.4,827.8,1649.2,822.8z"/>
<path class="st0" d="M1662.1,822l-354.1-5.5c-64.4-0.9-108.3,65.4-82,124.3l121.3,272.4c26.3,59,104.7,70.7,147.2,22.1l232.9-266.9
	C1776.9,911.8,1737.4,823.2,1662.1,822z"/>
<path class="st0" d="M1675.1,822l-345.6,11.8c-64.6,2.2-105,70.9-75.7,128.4l133,261.1c29.3,57.6,108.5,65.2,148.3,14.2l212.7-272.8
	C1793.8,905.7,1749.9,819.7,1675.1,822z"/>
<path class="st0" d="M1687.6,823.2l-336.3,28c-64.5,5.4-101.4,76.1-69.1,132.1l143.9,249.3c32.4,56.2,112,59.4,149,6.3l192.5-277.3
	C1810.2,900.3,1762.1,817,1687.6,823.2z"/>
<path class="st0" d="M1700.1,825.1l-326.3,43.5c-64.3,8.5-97.7,81.2-62.4,135.6l153.9,237c35.4,54.5,115.4,53.5,149.3-1.8L1787,959
	C1826,895.5,1773.9,815.4,1700.1,825.1z"/>
<path class="st0" d="M1712.5,828.1l-315.7,58c-63.9,11.7-93.6,86.1-55.5,138.7l162.9,224.2c38.3,52.6,118.3,47.2,149.2-9.9
	l152.7-282.2C1841.4,891.7,1785.4,814.6,1712.5,828.1z"/>
<path class="st0" d="M1724.8,831.8l-304.3,71.6c-63.4,14.9-89.4,90.8-48.4,141.5l171,211.2c40.9,50.6,120.8,41,148.5-17.9
	l133.2-282.8C1856.4,888.5,1796.7,814.9,1724.8,831.8z"/>
<path class="st0" d="M1737.4,836.4l-292.5,84.1c-62.7,18.1-84.9,95.5-41.3,144l178.2,198.1c43.6,48.5,122.9,34.5,147.4-26
	l114.2-282.1C1870.9,886.2,1807.8,816.1,1737.4,836.4z"/>
<path class="st0" d="M1749.5,842l-280.3,95.6c-61.8,21.1-80.1,99.8-33.9,146l184.6,184.6c46.2,46.3,124.9,28,146-33.9l95.6-280.2
	C1885.2,884.7,1818.8,818.3,1749.5,842z"/>
<path class="st0" d="M1761.9,848.3l-267.5,106.3c-60.9,24.2-75.2,103.8-26.5,147.7l189.9,171c48.6,43.9,126.4,21.2,144.1-41.8
	l77.6-277.2C1899.2,883.9,1829.8,821.4,1761.9,848.3z"/>
<path class="st0" d="M1774.5,855.6l-254.4,115.7c-59.8,27.1-70.1,107.7-19.1,149l194.3,157.3c51.1,41.4,127.7,14.5,141.8-49.6
	l60.1-273C1913,884,1840.8,825.5,1774.5,855.6z"/>
<path class="st0" d="M1787.4,863.6l-241.3,124c-58.5,30.2-64.7,111.3-11.5,150l197.9,143.8c53.1,38.6,128.4,7.7,139-57.3l43.4-267.8
	C1926.5,884.8,1851.9,830.6,1787.4,863.6z"/>
<path class="st0" d="M1800.5,872.6l-227.8,131.5c-57.1,33-59.3,114.7-4,150.6l200.4,130.2c55.3,35.9,129,0.6,135.9-64.9l27.5-261.7
	C1940,886.5,1863,836.5,1800.5,872.6z"/>
<path class="st0" d="M1813.9,882.2l-214.4,137.9c-55.5,35.8-53.5,117.7,3.7,150.8l202.1,116.6c57.2,33.1,129.1-6.1,132.3-72.2
	l12.3-254.7C1953.4,889,1874.4,843.3,1813.9,882.2z"/>
<path class="st0" d="M1827.8,892.5l-200.7,143.3c-53.9,38.5-47.9,120.5,11.2,150.6l202.7,103.4c59,30.1,128.9-13.1,128.4-79.4
	l-2-246.7C1966.7,892.2,1885.9,850.9,1827.8,892.5z"/>
<path class="st0" d="M1842,903.5l-187.4,147.9c-52.1,41.2-41.9,123,18.8,150l202.7,90.2c60.6,27,128.3-20.1,124-86.4l-15.4-238.1
	C1980.1,896.2,1897.8,859.4,1842,903.5z"/>
<path class="st0" d="M1856.5,915.3l-173.7,151.3c-50.2,43.7-35.9,125.2,26.3,149l201.7,77.4c62.2,23.9,127.4-27,119.3-93.1
	l-27.9-228.7C1993.6,900.9,1910,868.8,1856.5,915.3z"/>
<path class="st0" d="M1871.6,927.7l-160.4,153.7c-48.2,46.2-29.7,127.1,33.8,147.7l199.9,65c63.5,20.6,126.1-34,114.2-99.7
	l-39.4-218.7C2007.2,906.4,1922.5,878.9,1871.6,927.7z"/>
<path class="st0" d="M1887.2,940.6l-147.3,155.3c-46.1,48.5-23.5,128.6,41.2,146l197.3,52.9c64.6,17.4,124.3-40.8,108.7-105.9
	l-50-208.1C2020.8,912.7,1935.5,889.8,1887.2,940.6z"/>
<path class="st0" d="M1903.4,954.1L1768.9,1110c-43.9,50.9-17.1,130.2,48.5,144.1l193.9,41.2c65.7,14,122.3-47.7,102.9-111.9
	l-59.4-197.1C2034.6,919.6,1948.9,901.4,1903.4,954.1z"/>
<path class="st0" d="M1920.1,968.1l-122,155.7c-41.5,53-10.8,131,55.7,141.6l189.8,30.1c66.5,10.5,119.9-54.2,96.8-117.5
	l-67.9-185.8C2048.8,927.2,1962.8,913.5,1920.1,968.1z"/>
<path class="st0" d="M1937.3,982.6l-109.7,154.7c-39,55.1-4.3,131.8,62.8,138.9l184.9,19.4c67.1,7,117.1-60.9,90.3-122.9l-75.2-174
	C2063.1,935.5,1977.2,926.5,1937.3,982.6z"/>
<path class="st0" d="M1955.3,997.4l-98,152.8c-36.6,57.1,2,132.3,69.7,135.9l179.5,9.4c67.7,3.6,113.9-67.2,83.5-127.8l-81.5-162.2
	C2077.7,944.4,1992.2,939.9,1955.3,997.4z"/>
<path class="st0" d="M1973.8,1012.8l-86.8,150.1c-34,58.8,8.5,132.4,76.5,132.4H2137c68,0,110.4-73.6,76.5-132.4l-86.8-150.1
	C2092.6,953.8,2007.7,953.8,1973.8,1012.8z"/>
</svg>
