<?xml version="1.0" encoding="utf-8"?>
<!-- Generator: Adobe Illustrator 24.0.0, SVG Export Plug-In . SVG Version: 6.00 Build 0)  -->
<svg version="1.1" id="Capa_1" xmlns="http://www.w3.org/2000/svg" xmlns:xlink="http://www.w3.org/1999/xlink" x="0px" y="0px"
	 viewBox="0 0 2260 1397" style="enable-background:new 0 0 2260 1397;" xml:space="preserve">
<style type="text/css">
	.st0{fill:none;stroke:#FFE000;stroke-miterlimit:10;stroke-opacity:0.2;}
</style>
<path class="st0" d="M2225.2,1048.1l-48.7-749c-4-61.3-67.9-99.9-124-74.9l-475.3,211.5c-56.1,25-70.3,98.3-27.3,142.4l524,537.3
	C2131.1,1174.2,2230.6,1130,2225.2,1048.1z"/>
<path class="st0" d="M2175.9,1064.1l-8.5-741.7c-0.8-61.5-62.5-103.5-119.9-81.4l-481.4,184.8c-57.4,22.1-75.3,94.6-34.7,140.7
	l489.9,556.9C2075.5,1185,2176.9,1146,2175.9,1064.1z"/>
<path class="st0" d="M2126.5,1078.7l30.7-732.3c2.6-61.5-57-106.7-115.5-87.7l-485.9,158c-58.5,19-80.2,90.6-41.9,138.8l455.3,574.4
	C2019.9,1194.1,2123,1160.5,2126.5,1078.7z"/>
<path class="st0" d="M2077,1092.1l69-720.8c5.8-61.3-51.3-109.6-110.8-93.7l-489.2,131c-59.5,15.9-84.8,86.3-49,136.5l420.2,589.7
	C1964.6,1201.5,2069.2,1173.5,2077,1092.1z"/>
<path class="st0" d="M2027.4,1104.2l106.2-707.4c9.2-61-45.4-112.3-105.7-99.5l-490.8,104.3c-60.2,12.8-89.2,81.9-56,133.8
	l384.6,603.1C1909.5,1207.3,2015.3,1184.9,2027.4,1104.2z"/>
<path class="st0" d="M1978,1115l142-692.1c12.4-60.5-39.4-114.7-100.3-105l-490.9,77.8c-60.9,9.7-93.4,77.2-62.9,130.8l349,614.3
	C1855,1211.7,1961.6,1194.8,1978,1115z"/>
<path class="st0" d="M1928.7,1124.4l176.6-674.9c15.6-59.7-33.3-116.6-94.6-110.1l-489.8,51.5c-61.4,6.5-97.4,72.3-69.7,127.5
	l313.1,623.4C1800.9,1214.5,1908,1203.2,1928.7,1124.4z"/>
<path class="st0" d="M1879.6,1132.7l209.8-656.2c18.9-58.8-27-118.3-88.7-115.1L1513.6,387c-61.6,3.2-101.1,67.1-76.2,123.7
	l277.3,630.7C1747.3,1215.8,1854.8,1210.2,1879.6,1132.7z"/>
<path class="st0" d="M1830.7,1139.9L2072.4,504c22-57.8-20.7-119.6-82.5-119.6h-483.1c-61.9,0-104.5,61.9-82.6,119.6l241.6,635.8
	C1694.4,1215.7,1801.9,1215.7,1830.7,1139.9z"/>
<path class="st0" d="M1782.1,1145.8l271.8-614c25-56.6-14.3-120.7-76.1-123.9l-477.8-25c-61.8-3.2-107.7,56.4-88.7,115.3l206.1,639
	C1642.3,1214.3,1749.4,1219.9,1782.1,1145.8z"/>
<path class="st0" d="M1734.1,1150.5l300.3-590.7c28-55.2-7.9-121.3-69.5-127.8l-471.3-49.6c-61.5-6.5-110.5,50.8-94.5,110.6
	l170.9,640.1C1591,1211.5,1697.3,1222.7,1734.1,1150.5z"/>
<path class="st0" d="M1686.3,1154.2l327.2-566.1c31-53.7-1.4-121.7-62.6-131.4l-463.4-73.4c-61.2-9.7-113,45-100.2,105.6
	l136.2,639.5C1540.4,1207.5,1645.9,1224.2,1686.3,1154.2z"/>
<path class="st0" d="M1639.1,1156.9l352.3-540.5c33.8-51.9,5.1-121.7-55.6-134.6l-454.3-96.6c-60.7-12.9-115.3,39.1-105.5,100.3
	l102.1,637C1490.7,1202.4,1595.1,1224.5,1639.1,1156.9z"/>
<path class="st0" d="M1592.5,1158.4l375.7-513.7c36.6-50.1,11.5-121.3-48.4-137.4l-444.2-119c-59.9-16.1-117.4,33.1-110.7,94.8
	l68.4,632.7C1442.1,1196,1544.8,1223.5,1592.5,1158.4z"/>
<path class="st0" d="M1546.5,1159l397.2-486c39.3-48.1,18-120.7-41.1-139.9l-432.8-140.6c-59.1-19.2-119,26.9-115.4,89l35.7,626.7
	C1394.5,1188.6,1495.5,1221.3,1546.5,1159z"/>
<path class="st0" d="M1501,1158.7l416.8-457.6c41.8-45.9,24.4-119.6-33.6-141.9l-420.5-161.4c-58.1-22.3-120.3,20.8-119.9,83
	l3.7,619C1347.8,1180.2,1446.9,1218.1,1501,1158.7z"/>
<path class="st0" d="M1456.2,1157.5L1890.9,729c44.3-43.6,30.8-118.2-26.1-143.5l-407.1-181.3c-56.8-25.3-121.3,14.5-124.1,76.7
	l-27.5,609.6C1302.5,1170.8,1399,1213.8,1456.2,1157.5z"/>
<path class="st0" d="M1412.2,1155.4l450.6-398.6c46.7-41.3,37.1-116.5-18.4-144.8l-392.9-200.2c-55.5-28.2-122,8.2-128,70.3
	l-57.7,598.9C1258.2,1160.7,1352.1,1208.5,1412.2,1155.4z"/>
<path class="st0" d="M1369,1152.6l464.6-368.5c48.8-38.7,43.2-114.4-10.7-145.7l-377.7-218.1c-54-31.1-122.4,1.9-131.5,63.6
	l-86.8,586.5C1215.1,1149.7,1306.2,1202.4,1369,1152.6z"/>
<path class="st0" d="M1326.5,1149l476.7-337.9c50.9-36.1,49.4-112.1-3-146.1l-361.9-234.9c-52.3-33.9-122.4-4.4-134.7,56.7
	l-114.7,572.9C1173.1,1138,1261.3,1195.2,1326.5,1149z"/>
<path class="st0" d="M1284.8,1144.7l486.8-307c52.8-33.3,55.3-109.4,4.8-146.1l-345.2-250.8c-50.5-36.7-122.1-10.8-137.5,49.7
	l-141.6,557.9C1132.5,1125.6,1217.3,1187.3,1284.8,1144.7z"/>
<path class="st0" d="M1243.9,1139.9L1739,863.6c54.6-30.5,61.1-106.4,12.5-145.7l-327.9-265.5c-48.6-39.3-121.5-17.1-140,42.6
	l-167.1,541.7C1093.1,1112.8,1174.4,1178.7,1243.9,1139.9z"/>
<path class="st0" d="M1204,1134.5l501.6-245.3c56.3-27.5,66.8-103.1,20.3-144.9l-310-279.1c-46.4-41.8-120.6-23.4-142,35.3
	l-191.5,524.4C1055,1099.5,1132.6,1169.4,1204,1134.5z"/>
<path class="st0" d="M1165,1128.4L1671,914c57.7-24.5,72.3-99.5,28-143.8l-291.6-291.6c-44.3-44.3-119.3-29.6-143.8,28l-214.5,506.1
	C1018.2,1085.8,1091.9,1159.5,1165,1128.4z"/>
<path class="st0" d="M1126.7,1122.1l508.8-183.9c58.9-21.3,77.6-95.6,35.6-142.1l-272.7-302.9c-41.9-46.6-117.7-35.9-145.1,20.6
	l-236,486.8C982.7,1071.7,1052.2,1148.9,1126.7,1122.1z"/>
<path class="st0" d="M1089.4,1115.2l509.7-153.7c60.1-18.1,82.7-91.4,43.1-140.1l-253.5-313.1c-39.4-48.8-115.9-41.9-146,13
	L986.5,988C948.6,1057.5,1013.8,1138,1089.4,1115.2z"/>
<path class="st0" d="M1053.1,1108.1l509-123.8c61-14.9,87.5-86.9,50.5-137.7l-234-322c-37-50.9-113.6-48-146.6,5.5l-275,445.8
	C915.6,1043.1,976.4,1126.7,1053.1,1108.1z"/>
<path class="st0" d="M1017.6,1100.5l506.5-94.5c61.9-11.5,92.1-82.1,57.9-134.9l-214.1-329.8c-34.3-52.7-111.1-53.8-146.8-2
	L928.7,963.7C884,1028.5,940.1,1115,1017.6,1100.5z"/>
<path class="st0" d="M983.1,1092.9l502.3-65.8c62.4-8.2,96.5-77.2,65-131.7l-194.2-336.2c-31.5-54.5-108.3-59.5-146.6-9.6
	L901.6,951.6C853.7,1014,905.1,1103.1,983.1,1092.9z"/>
<path class="st0" d="M949.5,1085l496.6-37.8c62.8-4.7,100.5-72,72-128.1l-174-341.6c-28.7-56.1-105.2-65.1-145.9-17.1L875.5,939.7
	C824.7,999.5,871.3,1090.9,949.5,1085z"/>
<path class="st0" d="M916.8,1076.9l489.4-10.7c63-1.4,104.4-66.6,78.8-124.1l-154-345.8c-25.6-57.7-101.7-70.6-144.9-24.6
	L850.6,928.2C796.9,985.2,838.5,1078.6,916.8,1076.9z"/>
<path class="st0" d="M885,1068.8l480.8,15.6c63.2,2,108-60.9,85.4-119.9l-134-348.8c-22.6-58.9-98.1-75.8-143.7-32L826.7,916.9
	C770.3,971.1,806.9,1066.2,885,1068.8z"/>
<path class="st0" d="M854.2,1060.6l470.6,41c63,5.5,111.2-55.1,91.6-115.3l-114-350.8c-19.5-60.1-94.1-80.8-141.9-39.3L803.7,906
	C745,957.2,776.5,1054,854.2,1060.6z"/>
<path class="st0" d="M824.1,1052.6l459.3,65.3c62.7,8.9,114.1-49.1,97.7-110.2l-94.2-351.4c-16.4-61.2-89.9-85.7-139.8-46.7
	L782.1,895.7C720.8,943.7,747,1041.7,824.1,1052.6z"/>
<path class="st0" d="M795,1044.6l446.7,88.6c62.2,12.3,116.7-43,103.6-105l-74.7-351.1c-13.1-62-85.5-90.3-137.3-53.8L761.1,885.8
	C697.8,930.6,718.8,1029.5,795,1044.6z"/>
<path class="st0" d="M766.6,1036.6l433,110.7c61.5,15.7,119-36.6,109.1-99.4l-55.4-349.6c-9.9-62.7-80.8-94.7-134.4-60.8
	L741.3,876.5C675.8,917.9,691.6,1017.4,766.6,1036.6z"/>
<path class="st0" d="M739.2,1028.9l418.2,131.5c60.7,19.1,120.9-30.3,114.3-93.4l-36.5-347.1c-6.7-63.3-75.9-98.9-131.3-67.7
	L722.2,867.7C655,905.8,665.4,1005.7,739.2,1028.9z"/>
<path class="st0" d="M712.5,1021.3l402.5,151.2c59.6,22.4,122.5-23.7,119.2-87.3l-18-343.6c-3.3-63.6-70.8-102.8-127.7-74.4
	L704,859.7C635.1,894.1,640.3,994.3,712.5,1021.3z"/>
<path class="st0" d="M686.6,1014l385.9,169.5c58.3,25.6,123.8-17.1,123.8-80.8v-339c0-63.7-65.4-106.5-123.8-80.8L686.6,852.3
	C616.2,883.3,616.2,983.1,686.6,1014z"/>
<path class="st0" d="M661.5,1007l368.5,186.5c56.9,28.9,124.7-10.5,128-74.1l17.5-333.5c3.3-63.7-59.9-109.8-119.6-87.2l-385.9,147
	C598.3,872.9,593,972.4,661.5,1007z"/>
<path class="st0" d="M637,1000.3l350.4,202.3c55.4,31.9,125.2-3.7,131.9-67.2l34.4-327.2c6.7-63.6-54.3-112.9-115.1-93.2
	L653.9,839.8C581.2,863.4,570.8,962,637,1000.3z"/>
<path class="st0" d="M613.3,993.9L945,1210.4c53.6,35,125.4,3.1,135.5-60.1l50.7-320c10-63.3-48.5-115.7-110.2-99L638.5,834.8
	C564.9,854.6,549.5,952.2,613.3,993.9z"/>
<path class="st0" d="M590.2,987.9l312.5,229.4c51.7,37.9,125.3,9.9,138.6-52.8l66.3-311.9c13.4-62.7-42.5-118.2-105.2-104.6
	l-378.9,82.4C549.4,846.6,528.9,943,590.2,987.9z"/>
<path class="st0" d="M567.8,982.4l293,240.9c49.6,40.7,124.8,16.7,141.4-45.4l81.1-303c16.6-62.1-36.4-120.5-99.8-109.9L609.4,827
	C534.6,839.5,509.2,934.2,567.8,982.4z"/>
<path class="st0" d="M545.9,977.2l273.2,251c47.3,43.5,123.8,23.4,143.8-37.7l95.4-293.5c19.8-61.2-30.2-122.4-94.1-115l-368.5,42.5
	C520.5,833.1,490.3,926,545.9,977.2z"/>
<path class="st0" d="M524.7,972.6l253,259.6c44.9,46.1,122.6,30.2,145.7-30l108.7-283.3c23.1-60.1-23.9-123.9-88.2-119.7
	l-361.8,23.6C506.9,827.8,472,918.6,524.7,972.6z"/>
<path class="st0" d="M503.9,968.4l232.9,266.9c42.5,48.6,120.9,36.9,147.2-22.1l121.3-272.4c26.3-58.9-17.6-125.2-82-124.3
	L569.2,822C493.9,823.2,454.4,911.8,503.9,968.4z"/>
<path class="st0" d="M483.5,964.7l212.7,272.8c39.8,51,119,43.4,148.3-14.2l133-261.1c29.3-57.5-11.1-126.2-75.7-128.4L556.2,822
	C481.4,819.7,437.5,905.7,483.5,964.7z"/>
<path class="st0" d="M463.7,961.6l192.5,277.3c37,53.1,116.6,49.9,149-6.3l143.9-249.3c32.3-56-4.6-126.7-69.1-132.1l-336.3-28
	C469.2,817,421.1,900.3,463.7,961.6z"/>
<path class="st0" d="M444.3,959l172.4,280.4c33.9,55.3,113.9,56.3,149.3,1.8l153.9-237c35.3-54.4,1.9-127.1-62.4-135.6l-326.3-43.5
	C457.4,815.4,405.3,895.5,444.3,959z"/>
<path class="st0" d="M425.2,956.9l152.7,282.2c30.9,57.1,110.9,62.5,149.2,9.9L890,1024.8c38.1-52.6,8.4-127-55.5-138.7l-315.7-58
	C445.9,814.6,389.9,891.7,425.2,956.9z"/>
<path class="st0" d="M406.5,955.4l133.2,282.8c27.7,58.9,107.6,68.5,148.5,17.9l171-211.2c41-50.7,15-126.6-48.4-141.5l-304.3-71.6
	C434.6,814.9,374.9,888.5,406.5,955.4z"/>
<path class="st0" d="M387.9,954.5l114.2,282.1c24.5,60.5,103.8,74.5,147.4,26l178.2-198.1c43.6-48.5,21.4-125.9-41.3-144
	l-292.5-84.1C423.5,816.1,360.4,886.2,387.9,954.5z"/>
<path class="st0" d="M369.8,954.1l95.6,280.2c21.1,61.9,99.8,80.2,146,33.9L796,1083.6c46.2-46.2,27.9-124.9-33.9-146L481.8,842
	C412.5,818.3,346.1,884.7,369.8,954.1z"/>
<path class="st0" d="M351.8,954.3l77.6,277.2c17.7,63,95.5,85.7,144.1,41.8l189.9-171c48.7-43.9,34.4-123.5-26.5-147.7L469.4,848.3
	C401.5,821.4,332.1,883.9,351.8,954.3z"/>
<path class="st0" d="M334.1,955l60.1,273c14.1,64.1,90.7,91,141.8,49.6l194.3-157.3c51-41.3,40.7-121.9-19.1-149L456.8,855.6
	C390.5,825.5,318.3,884,334.1,955z"/>
<path class="st0" d="M316.4,956.3l43.4,267.8c10.6,65,85.9,95.9,139,57.3l197.9-143.8c53.2-38.7,47-119.8-11.5-150l-241.3-124
	C379.4,830.6,304.8,884.8,316.4,956.3z"/>
<path class="st0" d="M298.8,958.3l27.5,261.7c6.9,65.5,80.6,100.8,135.9,64.9l200.4-130.2c55.3-35.9,53.1-117.6-4-150.6L430.8,872.6
	C368.3,836.5,291.3,886.5,298.8,958.3z"/>
<path class="st0" d="M281.4,960.6l12.3,254.7c3.2,66.1,75.1,105.3,132.3,72.2l202.1-116.6c57.2-33.1,59.2-115,3.7-150.8L417.4,882.2
	C356.9,843.3,277.9,889,281.4,960.6z"/>
<path class="st0" d="M263.9,963.7l-2,246.7c-0.5,66.3,69.4,109.5,128.4,79.4L593,1186.4c59.1-30.1,65.1-112.1,11.2-150.6
	L403.5,892.5C345.4,850.9,264.6,892.2,263.9,963.7z"/>
<path class="st0" d="M246.6,967.1l-15.4,238.1c-4.3,66.3,63.4,113.4,124,86.4l202.7-90.2c60.7-27,70.9-108.8,18.8-150L389.3,903.5
	C333.5,859.4,251.2,896.2,246.6,967.1z"/>
<path class="st0" d="M229.1,971.2l-27.9,228.7c-8.1,66.1,57.1,117,119.3,93.1l201.7-77.4c62.2-23.8,76.5-105.3,26.3-149L374.8,915.3
	C321.3,868.8,237.7,900.9,229.1,971.2z"/>
<path class="st0" d="M211.6,975.7l-39.4,218.7c-11.9,65.7,50.7,120.3,114.2,99.7l199.9-65c63.5-20.6,82-101.5,33.8-147.7
	L359.7,927.7C308.8,878.9,224.1,906.4,211.6,975.7z"/>
<path class="st0" d="M194.2,980.8l-50,208.1c-15.6,65.1,44.1,123.3,108.7,105.9l197.3-52.9c64.7-17.4,87.3-97.5,41.2-146
	L344.1,940.6C295.8,889.8,210.5,912.7,194.2,980.8z"/>
<path class="st0" d="M176.5,986.3l-59.4,197.1c-19.4,64.2,37.2,125.9,102.9,111.9l193.9-41.2c65.6-13.9,92.4-93.2,48.5-144.1
	L327.9,954.1C282.4,901.4,196.7,919.6,176.5,986.3z"/>
<path class="st0" d="M158.8,992.2L90.9,1178c-23.1,63.3,30.3,128,96.8,117.5l189.8-30.1c66.5-10.6,97.2-88.6,55.7-141.6l-122-155.7
	C268.5,913.5,182.5,927.2,158.8,992.2z"/>
<path class="st0" d="M140.9,998.7l-75.2,174c-26.8,62,23.2,129.9,90.3,122.9l184.9-19.4c67.1-7.1,101.8-83.8,62.8-138.9L294,982.6
	C254.1,926.5,168.2,935.5,140.9,998.7z"/>
<path class="st0" d="M122.8,1005.5l-81.5,162.2c-30.4,60.6,15.8,131.4,83.5,127.8l179.5-9.4c67.7-3.6,106.3-78.8,69.7-135.9
	l-98-152.8C239.1,939.9,153.6,944.4,122.8,1005.5z"/>
<path class="st0" d="M104.6,1012.8l-86.8,150.1c-33.9,58.8,8.5,132.4,76.5,132.4h173.5c68,0,110.5-73.6,76.5-132.4l-86.8-150.1
	C223.6,953.8,138.7,953.8,104.6,1012.8z"/>
</svg>
