<?xml version="1.0" encoding="utf-8"?>
<!-- Generator: Adobe Illustrator 24.0.0, SVG Export Plug-In . SVG Version: 6.00 Build 0)  -->
<svg version="1.1" id="Capa_1" xmlns="http://www.w3.org/2000/svg" xmlns:xlink="http://www.w3.org/1999/xlink" x="0px" y="0px"
	 viewBox="0 0 2260 3040.6" style="enable-background:new 0 0 2260 3040.6;" xml:space="preserve">
<style type="text/css">
	.st0{fill:none;stroke:url(#SVGID_1_);stroke-width:4;stroke-opacity:0.2;enable-background:new    ;}
	.st1{fill:none;stroke:url(#SVGID_2_);stroke-width:4;stroke-opacity:0.2;enable-background:new    ;}
	.st2{fill:none;stroke:url(#SVGID_3_);stroke-width:4;stroke-opacity:0.2;enable-background:new    ;}
	.st3{fill:none;stroke:url(#SVGID_4_);stroke-width:4;stroke-opacity:0.2;enable-background:new    ;}
	.st4{fill:none;stroke:url(#SVGID_5_);stroke-width:4;stroke-opacity:0.2;enable-background:new    ;}
	.st5{fill:none;stroke:url(#SVGID_6_);stroke-width:4;stroke-opacity:0.2;enable-background:new    ;}
	.st6{fill:none;stroke:url(#SVGID_7_);stroke-width:4;stroke-opacity:0.2;enable-background:new    ;}
	.st7{fill:none;stroke:url(#SVGID_8_);stroke-width:4;stroke-opacity:0.2;enable-background:new    ;}
	.st8{fill:none;stroke:url(#SVGID_9_);stroke-width:4;stroke-opacity:0.2;enable-background:new    ;}
	.st9{fill:none;stroke:url(#SVGID_10_);stroke-width:4;stroke-opacity:0.2;enable-background:new    ;}
	.st10{fill:none;stroke:url(#SVGID_11_);stroke-width:4;stroke-opacity:0.2;enable-background:new    ;}
	.st11{fill:none;stroke:url(#SVGID_12_);stroke-width:4;stroke-opacity:0.2;enable-background:new    ;}
	.st12{fill:none;stroke:url(#SVGID_13_);stroke-width:4;stroke-opacity:0.2;enable-background:new    ;}
	.st13{fill:none;stroke:url(#SVGID_14_);stroke-width:4;stroke-opacity:0.2;enable-background:new    ;}
	.st14{fill:none;stroke:url(#SVGID_15_);stroke-width:4;stroke-opacity:0.2;enable-background:new    ;}
	.st15{fill:none;stroke:url(#SVGID_16_);stroke-width:4;stroke-opacity:0.2;enable-background:new    ;}
	.st16{fill:none;stroke:url(#SVGID_17_);stroke-width:4;stroke-opacity:0.2;enable-background:new    ;}
	.st17{fill:none;stroke:url(#SVGID_18_);stroke-width:4;stroke-opacity:0.2;enable-background:new    ;}
	.st18{fill:none;stroke:url(#SVGID_19_);stroke-width:4;stroke-opacity:0.2;enable-background:new    ;}
	.st19{fill:none;stroke:url(#SVGID_20_);stroke-width:4;stroke-opacity:0.2;enable-background:new    ;}
	.st20{fill:none;stroke:url(#SVGID_21_);stroke-width:4;stroke-opacity:0.2;enable-background:new    ;}
	.st21{fill:none;stroke:url(#SVGID_22_);stroke-width:4;stroke-opacity:0.2;enable-background:new    ;}
	.st22{fill:none;stroke:url(#SVGID_23_);stroke-width:4;stroke-opacity:0.2;enable-background:new    ;}
	.st23{fill:none;stroke:url(#SVGID_24_);stroke-width:4;stroke-opacity:0.2;enable-background:new    ;}
	.st24{fill:none;stroke:url(#SVGID_25_);stroke-width:4;stroke-opacity:0.2;enable-background:new    ;}
	.st25{fill:none;stroke:url(#SVGID_26_);stroke-width:4;stroke-opacity:0.2;enable-background:new    ;}
	.st26{fill:none;stroke:url(#SVGID_27_);stroke-width:4;stroke-opacity:0.2;enable-background:new    ;}
	.st27{fill:none;stroke:url(#SVGID_28_);stroke-width:4;stroke-opacity:0.2;enable-background:new    ;}
	.st28{fill:none;stroke:url(#SVGID_29_);stroke-width:4;stroke-opacity:0.2;enable-background:new    ;}
	.st29{fill:none;stroke:url(#SVGID_30_);stroke-width:4;stroke-opacity:0.2;enable-background:new    ;}
	.st30{fill:none;stroke:url(#SVGID_31_);stroke-width:4;stroke-opacity:0.2;enable-background:new    ;}
	.st31{fill:none;stroke:url(#SVGID_32_);stroke-width:4;stroke-opacity:0.2;enable-background:new    ;}
	.st32{fill:none;stroke:url(#SVGID_33_);stroke-width:4;stroke-opacity:0.2;enable-background:new    ;}
	.st33{fill:none;stroke:url(#SVGID_34_);stroke-width:4;stroke-opacity:0.2;enable-background:new    ;}
	.st34{fill:none;stroke:url(#SVGID_35_);stroke-width:4;stroke-opacity:0.2;enable-background:new    ;}
	.st35{fill:none;stroke:url(#SVGID_36_);stroke-width:4;stroke-opacity:0.2;enable-background:new    ;}
	.st36{fill:none;stroke:url(#SVGID_37_);stroke-width:4;stroke-opacity:0.2;enable-background:new    ;}
	.st37{fill:none;stroke:url(#SVGID_38_);stroke-width:4;stroke-opacity:0.2;enable-background:new    ;}
	.st38{fill:none;stroke:url(#SVGID_39_);stroke-width:4;stroke-opacity:0.2;enable-background:new    ;}
	.st39{fill:none;stroke:url(#SVGID_40_);stroke-width:4;stroke-opacity:0.2;enable-background:new    ;}
	.st40{fill:none;stroke:url(#SVGID_41_);stroke-width:4;stroke-opacity:0.2;enable-background:new    ;}
	.st41{fill:none;stroke:url(#SVGID_42_);stroke-width:4;stroke-opacity:0.2;enable-background:new    ;}
	.st42{fill:none;stroke:url(#SVGID_43_);stroke-width:4;stroke-opacity:0.2;enable-background:new    ;}
	.st43{fill:none;stroke:url(#SVGID_44_);stroke-width:4;stroke-opacity:0.2;enable-background:new    ;}
	.st44{fill:none;stroke:url(#SVGID_45_);stroke-width:4;stroke-opacity:0.2;enable-background:new    ;}
	.st45{fill:none;stroke:url(#SVGID_46_);stroke-width:4;stroke-opacity:0.2;enable-background:new    ;}
	.st46{fill:none;stroke:url(#SVGID_47_);stroke-width:4;stroke-opacity:0.2;enable-background:new    ;}
	.st47{fill:none;stroke:url(#SVGID_48_);stroke-width:4;stroke-opacity:0.2;enable-background:new    ;}
	.st48{fill:none;stroke:url(#SVGID_49_);stroke-width:4;stroke-opacity:0.2;enable-background:new    ;}
	.st49{fill:none;stroke:url(#SVGID_50_);stroke-width:4;stroke-opacity:0.2;enable-background:new    ;}
	.st50{fill:none;stroke:url(#SVGID_51_);stroke-width:4;stroke-opacity:0.2;enable-background:new    ;}
	.st51{fill:none;stroke:url(#SVGID_52_);stroke-width:4;stroke-opacity:0.2;enable-background:new    ;}
	.st52{fill:none;stroke:url(#SVGID_53_);stroke-width:4;stroke-opacity:0.2;enable-background:new    ;}
	.st53{fill:none;stroke:url(#SVGID_54_);stroke-width:4;stroke-opacity:0.2;enable-background:new    ;}
	.st54{fill:none;stroke:url(#SVGID_55_);stroke-width:4;stroke-opacity:0.2;enable-background:new    ;}
	.st55{fill:none;stroke:url(#SVGID_56_);stroke-width:4;stroke-opacity:0.2;enable-background:new    ;}
	.st56{fill:none;stroke:url(#SVGID_57_);stroke-width:4;stroke-opacity:0.2;enable-background:new    ;}
	.st57{fill:none;stroke:url(#SVGID_58_);stroke-width:4;stroke-opacity:0.2;enable-background:new    ;}
	.st58{fill:none;stroke:url(#SVGID_59_);stroke-width:4;stroke-opacity:0.2;enable-background:new    ;}
	.st59{fill:none;stroke:url(#SVGID_60_);stroke-width:4;stroke-opacity:0.2;enable-background:new    ;}
	.st60{fill:none;stroke:url(#SVGID_61_);stroke-width:4;stroke-opacity:0.2;enable-background:new    ;}
	.st61{fill:none;stroke:url(#SVGID_62_);stroke-width:4;stroke-opacity:0.2;enable-background:new    ;}
	.st62{fill:none;stroke:url(#SVGID_63_);stroke-width:4;stroke-opacity:0.2;enable-background:new    ;}
	.st63{fill:none;stroke:url(#SVGID_64_);stroke-width:4;stroke-opacity:0.2;enable-background:new    ;}
	.st64{fill:none;stroke:url(#SVGID_65_);stroke-width:4;stroke-opacity:0.2;enable-background:new    ;}
	.st65{fill:none;stroke:url(#SVGID_66_);stroke-width:4;stroke-opacity:0.2;enable-background:new    ;}
	.st66{fill:none;stroke:url(#SVGID_67_);stroke-width:4;stroke-opacity:0.2;enable-background:new    ;}
	.st67{fill:none;stroke:url(#SVGID_68_);stroke-width:4;stroke-opacity:0.2;enable-background:new    ;}
	.st68{fill:none;stroke:url(#SVGID_69_);stroke-width:4;stroke-opacity:0.2;enable-background:new    ;}
</style>
<linearGradient id="SVGID_1_" gradientUnits="userSpaceOnUse" x1="2343.5579" y1="1465.2109" x2="3245.623" y2="1465.2109" gradientTransform="matrix(-9.398948e-02 0.9956 0.9956 9.398948e-02 54.4292 -290.9306)">
	<stop  offset="0" style="stop-color:#FFE000"/>
	<stop  offset="1" style="stop-color:#00B0FF;stop-opacity:0.1"/>
</linearGradient>
<path class="st0" d="M1783,2935.2l-622.6-733.4c-51-60.1-146.2-51-184.9,17.7l-327.3,581c-38.7,68.6,2.9,154.8,80.7,167.3
	l949.9,152.4C1782.6,3136.9,1851.1,3015.3,1783,2935.2z"/>
<linearGradient id="SVGID_2_" gradientUnits="userSpaceOnUse" x1="2323.7849" y1="1484.2697" x2="3182.1763" y2="1484.2697" gradientTransform="matrix(-9.398948e-02 0.9956 0.9956 9.398948e-02 54.4292 -290.9306)">
	<stop  offset="0" style="stop-color:#FFE000"/>
	<stop  offset="1" style="stop-color:#00B0FF;stop-opacity:0.1"/>
</linearGradient>
<path class="st1" d="M1799.4,2869.1l-651.7-692.3c-54-57.4-148.8-43.4-183.8,27.3l-293.8,592c-35,70.6,11,154.5,89.4,162.9
	l945.4,100.3C1809.5,3070.3,1871.4,2945.5,1799.4,2869.1z"/>
<linearGradient id="SVGID_3_" gradientUnits="userSpaceOnUse" x1="2304.907" y1="1503.0024" x2="3158.2632" y2="1503.0024" gradientTransform="matrix(-9.398948e-02 0.9956 0.9956 9.398948e-02 54.4292 -290.9306)">
	<stop  offset="0" style="stop-color:#FFE000"/>
	<stop  offset="1" style="stop-color:#00B0FF;stop-opacity:0.1"/>
</linearGradient>
<path class="st2" d="M1814,2803.2L1135.9,2153c-56.9-54.6-150.9-35.6-182.2,36.8l-260.1,601.1c-31.3,72.4,19.2,153.8,98,158
	l938.2,49C1834.5,3003.4,1889.7,2875.7,1814,2803.2z"/>
<linearGradient id="SVGID_4_" gradientUnits="userSpaceOnUse" x1="2286.8611" y1="1521.3918" x2="3144.2668" y2="1521.3918" gradientTransform="matrix(-9.398948e-02 0.9956 0.9956 9.398948e-02 54.4292 -290.9306)">
	<stop  offset="0" style="stop-color:#FFE000"/>
	<stop  offset="1" style="stop-color:#00B0FF;stop-opacity:0.1"/>
</linearGradient>
<path class="st3" d="M1826.6,2737.5l-702-607.2c-59.7-51.7-152.6-27.8-180.1,46.2l-226.2,608.4c-27.5,74,27.3,152.7,106.2,152.6
	l928.2-1.2C1857.5,2936.2,1905.9,2806.1,1826.6,2737.5z"/>
<linearGradient id="SVGID_5_" gradientUnits="userSpaceOnUse" x1="2269.5923" y1="1539.4222" x2="3129.1616" y2="1539.4222" gradientTransform="matrix(-9.398948e-02 0.9956 0.9956 9.398948e-02 54.4292 -290.9306)">
	<stop  offset="0" style="stop-color:#FFE000"/>
	<stop  offset="1" style="stop-color:#00B0FF;stop-opacity:0.1"/>
</linearGradient>
<path class="st4" d="M1837.5,2672.3l-723.2-563.5c-62.3-48.6-154-19.9-177.6,55.5l-192.2,613.7c-23.6,75.4,35.3,151.2,114.2,146.9
	l915.5-50.2C1878.5,2868.8,1920,2736.6,1837.5,2672.3z"/>
<linearGradient id="SVGID_6_" gradientUnits="userSpaceOnUse" x1="2253.022" y1="1557.079" x2="3112.897" y2="1557.079" gradientTransform="matrix(-9.398948e-02 0.9956 0.9956 9.398948e-02 54.4292 -290.9306)">
	<stop  offset="0" style="stop-color:#FFE000"/>
	<stop  offset="1" style="stop-color:#00B0FF;stop-opacity:0.1"/>
</linearGradient>
<path class="st5" d="M1846.5,2607.5l-741.9-519.3c-64.8-45.3-154.9-12-174.5,64.6L771.6,2770c-19.7,76.6,43.3,149.2,121.9,140.7
	l900.3-97.9C1897.7,2801.5,1932.1,2667.4,1846.5,2607.5z"/>
<linearGradient id="SVGID_7_" gradientUnits="userSpaceOnUse" x1="2237.1008" y1="1574.3386" x2="3095.437" y2="1574.3386" gradientTransform="matrix(-9.398948e-02 0.9956 0.9956 9.398948e-02 54.4292 -290.9306)">
	<stop  offset="0" style="stop-color:#FFE000"/>
	<stop  offset="1" style="stop-color:#00B0FF;stop-opacity:0.1"/>
</linearGradient>
<path class="st6" d="M1853.7,2543.3l-757.9-474.7c-67.1-42-155.4-4-171,73.6L800.1,2761c-15.6,77.6,51.1,146.8,129.2,134.1
	l882.6-144.1C1914.9,2734.1,1942.2,2598.7,1853.7,2543.3z"/>
<linearGradient id="SVGID_8_" gradientUnits="userSpaceOnUse" x1="2221.7549" y1="1591.1899" x2="3076.7529" y2="1591.1899" gradientTransform="matrix(-9.398948e-02 0.9956 0.9956 9.398948e-02 54.4292 -290.9306)">
	<stop  offset="0" style="stop-color:#FFE000"/>
	<stop  offset="1" style="stop-color:#00B0FF;stop-opacity:0.1"/>
</linearGradient>
<path class="st7" d="M1859.3,2479.8L1087.9,2050c-69.2-38.5-155.5,4-167.1,82.4l-91.3,618.6c-11.6,78.3,58.8,144,136.2,127.1
	l862.7-188.8C1930.2,2667,1950.3,2530.6,1859.3,2479.8z"/>
<linearGradient id="SVGID_9_" gradientUnits="userSpaceOnUse" x1="2206.9121" y1="1607.6202" x2="3056.8091" y2="1607.6202" gradientTransform="matrix(-9.398948e-02 0.9956 0.9956 9.398948e-02 54.4292 -290.9306)">
	<stop  offset="0" style="stop-color:#FFE000"/>
	<stop  offset="1" style="stop-color:#00B0FF;stop-opacity:0.1"/>
</linearGradient>
<path class="st8" d="M1863.2,2417.1L1081,2032.2c-71.1-35-155.2,12-162.7,90.9l-58.2,616.6c-7.4,78.9,66.4,140.8,142.8,119.8
	l840.5-231.7C1943.7,2600.1,1956.6,2463.1,1863.2,2417.1z"/>
<linearGradient id="SVGID_10_" gradientUnits="userSpaceOnUse" x1="2192.5095" y1="1607.5579" x2="3035.5908" y2="1607.5579" gradientTransform="matrix(-9.398948e-02 0.9956 0.9956 9.398948e-02 54.4292 -290.9306)">
	<stop  offset="0" style="stop-color:#FFE000"/>
	<stop  offset="1" style="stop-color:#00B0FF;stop-opacity:0.1"/>
</linearGradient>
<path class="st9" d="M1865.6,2355.3l-790.6-340c-72.8-31.3-154.5,20-157.8,99.3l-25.6,612.8c-3.3,79.2,73.8,137.2,149,112.1
	l816.2-272.8C1955.3,2533.6,1961.1,2396.3,1865.6,2355.3z"/>
<linearGradient id="SVGID_11_" gradientUnits="userSpaceOnUse" x1="2178.4873" y1="1607.4156" x2="3013.0874" y2="1607.4156" gradientTransform="matrix(-9.398948e-02 0.9956 0.9956 9.398948e-02 54.4292 -290.9306)">
	<stop  offset="0" style="stop-color:#FFE000"/>
	<stop  offset="1" style="stop-color:#00B0FF;stop-opacity:0.1"/>
</linearGradient>
<path class="st10" d="M1866.4,2294.3L1070,1999.1c-74.4-27.6-153.4,28-152.5,107.3l6.4,607.3c0.8,79.4,81,133.2,154.8,104.1
	l790-312.1C1965.2,2467.6,1963.7,2330.4,1866.4,2294.3z"/>
<linearGradient id="SVGID_12_" gradientUnits="userSpaceOnUse" x1="2164.7708" y1="1607.2177" x2="2989.2764" y2="1607.2177" gradientTransform="matrix(-9.398948e-02 0.9956 0.9956 9.398948e-02 54.4292 -290.9306)">
	<stop  offset="0" style="stop-color:#FFE000"/>
	<stop  offset="1" style="stop-color:#00B0FF;stop-opacity:0.1"/>
</linearGradient>
<path class="st11" d="M1865.8,2234.4L1066,1983.5c-75.8-23.8-151.8,35.8-146.8,115.1l37.8,600.2c5,79.3,87.9,128.9,160.1,95.8
	l761.9-349.3C1973.3,2402.1,1964.7,2265.4,1865.8,2234.4z"/>
<linearGradient id="SVGID_13_" gradientUnits="userSpaceOnUse" x1="2151.2815" y1="1607.0032" x2="2964.1475" y2="1607.0032" gradientTransform="matrix(-9.398948e-02 0.9956 0.9956 9.398948e-02 54.4292 -290.9306)">
	<stop  offset="0" style="stop-color:#FFE000"/>
	<stop  offset="1" style="stop-color:#00B0FF;stop-opacity:0.1"/>
</linearGradient>
<path class="st12" d="M1863.8,2175.6l-800.6-207c-77-19.9-149.9,43.7-140.8,122.6l68.5,591.4c9.1,79,94.7,124.1,165.1,87.2
	l732.1-384.5C1979.7,2337.2,1964,2201.5,1863.8,2175.6z"/>
<linearGradient id="SVGID_14_" gradientUnits="userSpaceOnUse" x1="2137.9612" y1="1606.8043" x2="2937.7078" y2="1606.8043" gradientTransform="matrix(-9.398948e-02 0.9956 0.9956 9.398948e-02 54.4292 -290.9306)">
	<stop  offset="0" style="stop-color:#FFE000"/>
	<stop  offset="1" style="stop-color:#00B0FF;stop-opacity:0.1"/>
</linearGradient>
<path class="st13" d="M1860.5,2117.9l-799.2-163.6c-77.9-15.9-147.6,51.4-134.3,129.8l98.4,581.1c13.3,78.4,101.2,119.1,169.5,78.4
	l700.8-417.5C1984.5,2273.1,1961.8,2138.6,1860.5,2117.9z"/>
<linearGradient id="SVGID_15_" gradientUnits="userSpaceOnUse" x1="2124.7405" y1="1606.6572" x2="2909.9629" y2="1606.6572" gradientTransform="matrix(-9.398948e-02 0.9956 0.9956 9.398948e-02 54.4292 -290.9306)">
	<stop  offset="0" style="stop-color:#FFE000"/>
	<stop  offset="1" style="stop-color:#00B0FF;stop-opacity:0.1"/>
</linearGradient>
<path class="st14" d="M1856,2061.4l-795.4-121c-78.7-12-144.8,58.9-127.5,136.6l127.3,569.3c17.4,77.7,107.4,113.6,173.5,69.3
	l668.1-448.3C1987.8,2209.8,1958,2076.9,1856,2061.4z"/>
<linearGradient id="SVGID_16_" gradientUnits="userSpaceOnUse" x1="2111.5371" y1="1606.589" x2="2880.9204" y2="1606.589" gradientTransform="matrix(-9.398948e-02 0.9956 0.9956 9.398948e-02 54.4292 -290.9306)">
	<stop  offset="0" style="stop-color:#FFE000"/>
	<stop  offset="1" style="stop-color:#00B0FF;stop-opacity:0.1"/>
</linearGradient>
<path class="st15" d="M1850.4,2006.2l-789.4-79.2c-79.3-7.9-141.7,66.3-120.3,143.1l155.3,556c21.4,76.7,113.4,107.9,177,60
	l634.1-476.9C1989.5,2147.4,1952.9,2016.5,1850.4,2006.2z"/>
<linearGradient id="SVGID_17_" gradientUnits="userSpaceOnUse" x1="2063.0303" y1="1606.6323" x2="2850.5808" y2="1606.6323" gradientTransform="matrix(-9.398948e-02 0.9956 0.9956 9.398948e-02 54.4292 -290.9306)">
	<stop  offset="0" style="stop-color:#FFE000"/>
	<stop  offset="1" style="stop-color:#00B0FF;stop-opacity:0.1"/>
</linearGradient>
<path class="st16" d="M1843.7,1952.3l-781.3-38.3c-79.7-3.9-138.3,73.6-112.8,149.2l182.3,541.4c25.4,75.6,119,101.8,180.1,50.6
	l599-503.1C1989.7,2085.9,1946.5,1957.4,1843.7,1952.3z"/>
<linearGradient id="SVGID_18_" gradientUnits="userSpaceOnUse" x1="2011.0183" y1="1606.8177" x2="2818.9751" y2="1606.8177" gradientTransform="matrix(-9.398948e-02 0.9956 0.9956 9.398948e-02 54.4292 -290.9306)">
	<stop  offset="0" style="stop-color:#FFE000"/>
	<stop  offset="1" style="stop-color:#00B0FF;stop-opacity:0.1"/>
</linearGradient>
<path class="st17" d="M1836.1,1899.8l-771.1,1.4c-79.8,0.2-134.4,80.6-105,154.9l208.1,525.5c29.4,74.2,124.3,95.5,182.6,41
	l563-526.9C1988.6,2025.4,1938.8,1899.6,1836.1,1899.8z"/>
<linearGradient id="SVGID_19_" gradientUnits="userSpaceOnUse" x1="1960.1833" y1="1607.1625" x2="2786.1111" y2="1607.1625" gradientTransform="matrix(-9.398948e-02 0.9956 0.9956 9.398948e-02 54.4292 -290.9306)">
	<stop  offset="0" style="stop-color:#FFE000"/>
	<stop  offset="1" style="stop-color:#00B0FF;stop-opacity:0.1"/>
</linearGradient>
<path class="st18" d="M1827.6,1848.7l-758.9,40.1c-79.8,4.2-130.2,87.5-96.9,160.2l232.8,508.4c33.3,72.6,129.3,88.9,184.6,31.2
	l526.1-548.4C1986.2,1966,1930,1843.3,1827.6,1848.7z"/>
<linearGradient id="SVGID_20_" gradientUnits="userSpaceOnUse" x1="1910.549" y1="1607.7091" x2="2752.0205" y2="1607.7091" gradientTransform="matrix(-9.398948e-02 0.9956 0.9956 9.398948e-02 54.4292 -290.9306)">
	<stop  offset="0" style="stop-color:#FFE000"/>
	<stop  offset="1" style="stop-color:#00B0FF;stop-opacity:0.1"/>
</linearGradient>
<path class="st19" d="M1818.3,1799l-744.9,77.4c-79.5,8.3-125.6,94.2-88.6,165l256.3,490.1c37.1,70.9,133.9,82,186.1,21.4
	l488.6-567.6C1982.6,1907.8,1920.2,1788.4,1818.3,1799z"/>
<linearGradient id="SVGID_21_" gradientUnits="userSpaceOnUse" x1="1862.1478" y1="1608.4692" x2="2716.7366" y2="1608.4692" gradientTransform="matrix(-9.398948e-02 0.9956 0.9956 9.398948e-02 54.4292 -290.9306)">
	<stop  offset="0" style="stop-color:#FFE000"/>
	<stop  offset="1" style="stop-color:#00B0FF;stop-opacity:0.1"/>
</linearGradient>
<path class="st20" d="M1808.3,1750.8l-729,113.5c-79.1,12.3-120.8,100.6-80,169.5l278.5,470.8c40.8,68.9,138.2,74.9,187.1,11.5
	l450.5-584.2C1977.8,1850.8,1909.4,1735.1,1808.3,1750.8z"/>
<linearGradient id="SVGID_22_" gradientUnits="userSpaceOnUse" x1="1815.012" y1="1609.4755" x2="2680.2773" y2="1609.4755" gradientTransform="matrix(-9.398948e-02 0.9956 0.9956 9.398948e-02 54.4292 -290.9306)">
	<stop  offset="0" style="stop-color:#FFE000"/>
	<stop  offset="1" style="stop-color:#00B0FF;stop-opacity:0.1"/>
</linearGradient>
<path class="st21" d="M1797.8,1704.1l-711.4,148.1c-78.4,16.3-115.5,106.7-71.2,173.4l299.4,450.5c44.3,66.7,142.1,67.5,187.5,1.5
	l412.1-598.6C1971.9,1795,1897.7,1683.3,1797.8,1704.1z"/>
<linearGradient id="SVGID_23_" gradientUnits="userSpaceOnUse" x1="1769.1536" y1="1610.7498" x2="2642.689" y2="1610.7498" gradientTransform="matrix(-9.398948e-02 0.9956 0.9956 9.398948e-02 54.4292 -290.9306)">
	<stop  offset="0" style="stop-color:#FFE000"/>
	<stop  offset="1" style="stop-color:#00B0FF;stop-opacity:0.1"/>
</linearGradient>
<path class="st22" d="M1786.7,1658.8L1094.4,1840c-77.6,20.3-110,112.6-62.2,177l318.9,429.3c47.8,64.4,145.6,60,187.4-8.4
	l373.4-610.5C1965.1,1740.5,1885.3,1633,1786.7,1658.8z"/>
<linearGradient id="SVGID_24_" gradientUnits="userSpaceOnUse" x1="1724.5807" y1="1612.3093" x2="2603.9961" y2="1612.3093" gradientTransform="matrix(-9.398948e-02 0.9956 0.9956 9.398948e-02 54.4292 -290.9306)">
	<stop  offset="0" style="stop-color:#FFE000"/>
	<stop  offset="1" style="stop-color:#00B0FF;stop-opacity:0.1"/>
</linearGradient>
<path class="st23" d="M1775.2,1615.1l-671.6,212.7c-76.5,24.2-104.2,118.2-53,180.1l337,407.3c51.2,61.9,148.7,52.2,186.8-18.4
	l334.6-620C1957.3,1687.3,1872.2,1584.4,1775.2,1615.1z"/>
<linearGradient id="SVGID_25_" gradientUnits="userSpaceOnUse" x1="1681.2974" y1="1614.1766" x2="2564.2585" y2="1614.1766" gradientTransform="matrix(-9.398948e-02 0.9956 0.9956 9.398948e-02 54.4292 -290.9306)">
	<stop  offset="0" style="stop-color:#FFE000"/>
	<stop  offset="1" style="stop-color:#00B0FF;stop-opacity:0.1"/>
</linearGradient>
<path class="st24" d="M1763.5,1572.9l-649.7,242.6c-75.3,28.1-98.1,123.5-43.7,182.7l353.7,384.5c54.4,59.1,151.4,44.4,185.7-28.3
	l296-627.1C1948.7,1635.5,1858.6,1537.4,1763.5,1572.9z"/>
<linearGradient id="SVGID_26_" gradientUnits="userSpaceOnUse" x1="1639.3064" y1="1616.3796" x2="2523.5066" y2="1616.3796" gradientTransform="matrix(-9.398948e-02 0.9956 0.9956 9.398948e-02 54.4292 -290.9306)">
	<stop  offset="0" style="stop-color:#FFE000"/>
	<stop  offset="1" style="stop-color:#00B0FF;stop-opacity:0.1"/>
</linearGradient>
<path class="st25" d="M1751.5,1532.3L1125,1803.1c-73.8,31.9-91.7,128.5-34.3,184.8l368.9,361.2c57.5,56.3,153.7,36.3,184-38.2
	l257.5-632C1939.4,1585,1844.5,1492.1,1751.5,1532.3z"/>
<linearGradient id="SVGID_27_" gradientUnits="userSpaceOnUse" x1="1598.598" y1="1618.9308" x2="2481.7969" y2="1618.9308" gradientTransform="matrix(-9.398948e-02 0.9956 0.9956 9.398948e-02 54.4292 -290.9306)">
	<stop  offset="0" style="stop-color:#FFE000"/>
	<stop  offset="1" style="stop-color:#00B0FF;stop-opacity:0.1"/>
</linearGradient>
<path class="st26" d="M1739.3,1493.1l-602,297.3c-72.2,35.6-85.1,133.1-24.7,186.4l382.7,337.3c60.4,53.2,155.5,28.2,181.8-47.9
	l219.3-634.6C1929.5,1536,1830,1448.4,1739.3,1493.1z"/>
<linearGradient id="SVGID_28_" gradientUnits="userSpaceOnUse" x1="1559.1631" y1="1621.8478" x2="2439.1621" y2="1621.8478" gradientTransform="matrix(-9.398948e-02 0.9956 0.9956 9.398948e-02 54.4292 -290.9306)">
	<stop  offset="0" style="stop-color:#FFE000"/>
	<stop  offset="1" style="stop-color:#00B0FF;stop-opacity:0.1"/>
</linearGradient>
<path class="st27" d="M1727.1,1455.5l-576.6,322c-70.4,39.3-78.3,137.5-15.1,187.5l395,313c63.2,50.1,156.9,19.9,179.1-57.6
	l181.6-634.9C1918.9,1488.4,1815.3,1406.3,1727.1,1455.5z"/>
<linearGradient id="SVGID_29_" gradientUnits="userSpaceOnUse" x1="1520.9817" y1="1625.1517" x2="2395.6719" y2="1625.1517" gradientTransform="matrix(-9.398948e-02 0.9956 0.9956 9.398948e-02 54.4292 -290.9306)">
	<stop  offset="0" style="stop-color:#FFE000"/>
	<stop  offset="1" style="stop-color:#00B0FF;stop-opacity:0.1"/>
</linearGradient>
<path class="st28" d="M1715,1419.4l-550.3,344.8c-68.4,42.8-71.2,141.4-5.5,188.2l405.8,288.3c65.8,46.7,157.9,11.6,175.9-67.1
	l144.5-633.1C1907.9,1442.2,1800.4,1365.9,1715,1419.4z"/>
<linearGradient id="SVGID_30_" gradientUnits="userSpaceOnUse" x1="1484.0344" y1="1628.8633" x2="2351.376" y2="1628.8633" gradientTransform="matrix(-9.398948e-02 0.9956 0.9956 9.398948e-02 54.4292 -290.9306)">
	<stop  offset="0" style="stop-color:#FFE000"/>
	<stop  offset="1" style="stop-color:#00B0FF;stop-opacity:0.1"/>
</linearGradient>
<path class="st29" d="M1703,1384.7l-523.2,365.9c-66.2,46.3-64,145,4.2,188.3l415,263.3c68.2,43.3,158.5,3.2,172.2-76.4l108.1-629.2
	C1896.5,1397.5,1785.4,1327.1,1703,1384.7z"/>
<linearGradient id="SVGID_31_" gradientUnits="userSpaceOnUse" x1="1448.2959" y1="1632.9906" x2="2306.3276" y2="1632.9906" gradientTransform="matrix(-9.398948e-02 0.9956 0.9956 9.398948e-02 54.4292 -290.9306)">
	<stop  offset="0" style="stop-color:#FFE000"/>
	<stop  offset="1" style="stop-color:#00B0FF;stop-opacity:0.1"/>
</linearGradient>
<path class="st30" d="M1691.3,1351.5l-495.4,385.1c-63.9,49.6-56.6,148.3,13.9,188l422.8,238.2c70.5,39.7,158.6-5.2,168-85.5
	l72.6-623.2C1884.8,1354.2,1770.5,1289.9,1691.3,1351.5z"/>
<linearGradient id="SVGID_32_" gradientUnits="userSpaceOnUse" x1="1413.7324" y1="1647.5555" x2="2260.5864" y2="1647.5555" gradientTransform="matrix(-9.398948e-02 0.9956 0.9956 9.398948e-02 54.4292 -290.9306)">
	<stop  offset="0" style="stop-color:#FFE000"/>
	<stop  offset="1" style="stop-color:#00B0FF;stop-opacity:0.1"/>
</linearGradient>
<path class="st31" d="M1679.8,1319.7l-467.1,402.4c-61.3,52.8-49,151.1,23.6,187.1l429.1,212.9c72.5,36,158.3-13.6,163.3-94.4
	l38-615.3C1872.8,1312.4,1755.7,1254.3,1679.8,1319.7z"/>
<linearGradient id="SVGID_33_" gradientUnits="userSpaceOnUse" x1="1380.3134" y1="1668.798" x2="2214.217" y2="1668.798" gradientTransform="matrix(-9.398948e-02 0.9956 0.9956 9.398948e-02 54.4292 -290.9306)">
	<stop  offset="0" style="stop-color:#FFE000"/>
	<stop  offset="1" style="stop-color:#00B0FF;stop-opacity:0.1"/>
</linearGradient>
<path class="st32" d="M1668.7,1289.2l-438.3,417.8c-58.7,55.9-41.2,153.6,33.2,185.8l433.9,187.7c74.4,32.2,157.5-22,158.1-103.1
	l4.4-605.5C1860.7,1272,1741,1220.3,1668.7,1289.2z"/>
<linearGradient id="SVGID_34_" gradientUnits="userSpaceOnUse" x1="1348.0001" y1="1689.8169" x2="2167.28" y2="1689.8169" gradientTransform="matrix(-9.398948e-02 0.9956 0.9956 9.398948e-02 54.4292 -290.9306)">
	<stop  offset="0" style="stop-color:#FFE000"/>
	<stop  offset="1" style="stop-color:#00B0FF;stop-opacity:0.1"/>
</linearGradient>
<path class="st33" d="M1658.1,1260.1l-409.2,431.4c-55.9,58.9-33.4,155.7,42.7,184l437.2,162.5c76.1,28.3,156.3-30.3,152.5-111.4
	l-28-594C1848.6,1233.1,1726.7,1187.8,1658.1,1260.1z"/>
<linearGradient id="SVGID_35_" gradientUnits="userSpaceOnUse" x1="1316.7502" y1="1710.5792" x2="2119.8479" y2="1710.5792" gradientTransform="matrix(-9.398948e-02 0.9956 0.9956 9.398948e-02 54.4292 -290.9306)">
	<stop  offset="0" style="stop-color:#FFE000"/>
	<stop  offset="1" style="stop-color:#00B0FF;stop-opacity:0.1"/>
</linearGradient>
<path class="st34" d="M1648,1232.3l-379.9,443.2c-52.9,61.7-25.5,157.4,52.1,181.7l439.1,137.5c77.6,24.3,154.7-38.6,146.4-119.5
	l-59.2-580.7C1836.4,1195.6,1712.7,1156.8,1648,1232.3z"/>
<linearGradient id="SVGID_36_" gradientUnits="userSpaceOnUse" x1="1286.5219" y1="1731.0524" x2="2071.9751" y2="1731.0524" gradientTransform="matrix(-9.398948e-02 0.9956 0.9956 9.398948e-02 54.4292 -290.9306)">
	<stop  offset="0" style="stop-color:#FFE000"/>
	<stop  offset="1" style="stop-color:#00B0FF;stop-opacity:0.1"/>
</linearGradient>
<path class="st35" d="M1638.5,1205.8L1288,1658.9c-49.8,64.4-17.4,158.7,61.4,178.9l439.5,112.8c78.8,20.2,152.6-46.8,139.9-127.2
	l-89-565.9C1824.4,1159.4,1699.2,1127.3,1638.5,1205.8z"/>
<linearGradient id="SVGID_37_" gradientUnits="userSpaceOnUse" x1="1257.2681" y1="1751.1957" x2="2023.7386" y2="1751.1957" gradientTransform="matrix(-9.398948e-02 0.9956 0.9956 9.398948e-02 54.4292 -290.9306)">
	<stop  offset="0" style="stop-color:#FFE000"/>
	<stop  offset="1" style="stop-color:#00B0FF;stop-opacity:0.1"/>
</linearGradient>
<path class="st36" d="M1629.6,1180.4l-321.1,461.2c-46.6,66.9-9.3,159.5,70.5,175.6l438.6,88.4c79.9,16.1,150.1-54.9,133-134.6
	l-117.5-549.5C1812.5,1124.6,1686.2,1099.2,1629.6,1180.4z"/>
<linearGradient id="SVGID_38_" gradientUnits="userSpaceOnUse" x1="1228.9385" y1="1770.9774" x2="1975.2095" y2="1770.9774" gradientTransform="matrix(-9.398948e-02 0.9956 0.9956 9.398948e-02 54.4292 -290.9306)">
	<stop  offset="0" style="stop-color:#FFE000"/>
	<stop  offset="1" style="stop-color:#00B0FF;stop-opacity:0.1"/>
</linearGradient>
<path class="st37" d="M1621.5,1156.2l-291.9,467.4c-43.2,69.2-1.2,160,79.5,171.9l436.3,64.4c80.7,11.9,147.1-62.9,125.8-141.6
	l-144.4-531.8C1800.9,1091.2,1673.9,1072.5,1621.5,1156.2z"/>
<linearGradient id="SVGID_39_" gradientUnits="userSpaceOnUse" x1="1201.4846" y1="1790.3668" x2="1926.4573" y2="1790.3668" gradientTransform="matrix(-9.398948e-02 0.9956 0.9956 9.398948e-02 54.4292 -290.9306)">
	<stop  offset="0" style="stop-color:#FFE000"/>
	<stop  offset="1" style="stop-color:#00B0FF;stop-opacity:0.1"/>
</linearGradient>
<path class="st38" d="M1614.2,1133.1l-262.8,472c-39.7,71.4,6.9,160.1,88.3,167.7l432.7,40.8c81.3,7.7,143.8-70.7,118.1-148.3
	l-169.8-512.8C1789.6,1059.1,1662.2,1047,1614.2,1133.1z"/>
<linearGradient id="SVGID_40_" gradientUnits="userSpaceOnUse" x1="1174.853" y1="1809.3389" x2="1899.9648" y2="1809.3389" gradientTransform="matrix(-9.398948e-02 0.9956 0.9956 9.398948e-02 54.4292 -290.9306)">
	<stop  offset="0" style="stop-color:#FFE000"/>
	<stop  offset="1" style="stop-color:#00B0FF;stop-opacity:0.1"/>
</linearGradient>
<path class="st39" d="M1607.8,1111l-234.1,474.8c-36.2,73.4,15,159.7,96.8,163.1l427.8,17.9c81.7,3.4,140-78.4,110.1-154.5
	l-193.7-492.7C1778.7,1028.2,1651.2,1022.9,1607.8,1111z"/>
<linearGradient id="SVGID_41_" gradientUnits="userSpaceOnUse" x1="1148.9901" y1="1827.8752" x2="1872.63" y2="1827.8752" gradientTransform="matrix(-9.398948e-02 0.9956 0.9956 9.398948e-02 54.4292 -290.9306)">
	<stop  offset="0" style="stop-color:#FFE000"/>
	<stop  offset="1" style="stop-color:#00B0FF;stop-opacity:0.1"/>
</linearGradient>
<path class="st40" d="M1602.2,1089.9l-205.8,476c-32.5,75.2,23.2,159,105.1,158.1l421.7-4.5c81.9-0.9,135.8-85.8,101.7-160.3
	L1809,1087.7C1768.2,998.6,1641.1,999.9,1602.2,1089.9z"/>
<linearGradient id="SVGID_42_" gradientUnits="userSpaceOnUse" x1="1123.8409" y1="1845.9407" x2="1844.479" y2="1845.9407" gradientTransform="matrix(-9.398948e-02 0.9956 0.9956 9.398948e-02 54.4292 -290.9306)">
	<stop  offset="0" style="stop-color:#FFE000"/>
	<stop  offset="1" style="stop-color:#00B0FF;stop-opacity:0.1"/>
</linearGradient>
<path class="st41" d="M1597.6,1069.7l-178,475.6c-28.8,76.8,31.2,157.8,113.1,152.6l414.4-26.1c81.9-5.2,131.2-93,93.1-165.6
	l-236.3-449.4C1758.2,970.1,1631.8,978.1,1597.6,1069.7z"/>
<linearGradient id="SVGID_43_" gradientUnits="userSpaceOnUse" x1="1099.3495" y1="1863.5195" x2="1815.4983" y2="1863.5195" gradientTransform="matrix(-9.398948e-02 0.9956 0.9956 9.398948e-02 54.4292 -290.9306)">
	<stop  offset="0" style="stop-color:#FFE000"/>
	<stop  offset="1" style="stop-color:#00B0FF;stop-opacity:0.1"/>
</linearGradient>
<path class="st42" d="M1593.9,1050.2l-150.9,473.6c-24.9,78.3,39.2,156.2,120.9,146.8l406-47c81.6-9.5,126.3-100,84.1-170.5
	l-255.1-426.5C1748.8,942.8,1623.5,957.4,1593.9,1050.2z"/>
<linearGradient id="SVGID_44_" gradientUnits="userSpaceOnUse" x1="1075.4594" y1="1880.5964" x2="1785.6989" y2="1880.5964" gradientTransform="matrix(-9.398948e-02 0.9956 0.9956 9.398948e-02 54.4292 -290.9306)">
	<stop  offset="0" style="stop-color:#FFE000"/>
	<stop  offset="1" style="stop-color:#00B0FF;stop-opacity:0.1"/>
</linearGradient>
<path class="st43" d="M1591.3,1031.6l-124.4,470.1c-21.1,79.6,47.2,154.3,128.3,140.5l396.5-67.1c81.2-13.7,121-106.7,74.9-174.9
	l-272.1-403C1740.1,916.6,1616.1,937.6,1591.3,1031.6z"/>
<linearGradient id="SVGID_45_" gradientUnits="userSpaceOnUse" x1="1052.1133" y1="1897.1555" x2="1755.0902" y2="1897.1555" gradientTransform="matrix(-9.398948e-02 0.9956 0.9956 9.398948e-02 54.4292 -290.9306)">
	<stop  offset="0" style="stop-color:#FFE000"/>
	<stop  offset="1" style="stop-color:#00B0FF;stop-opacity:0.1"/>
</linearGradient>
<path class="st44" d="M1589.7,1013.6l-98.6,465.1c-17.1,80.6,55,151.9,135.4,133.9l386-86.3c80.4-18,115.3-113.2,65.5-178.9
	l-287.4-378.8C1732,891.5,1609.8,918.8,1589.7,1013.6z"/>
<linearGradient id="SVGID_46_" gradientUnits="userSpaceOnUse" x1="1029.2513" y1="1913.1768" x2="1723.687" y2="1913.1768" gradientTransform="matrix(-9.398948e-02 0.9956 0.9956 9.398948e-02 54.4292 -290.9306)">
	<stop  offset="0" style="stop-color:#FFE000"/>
	<stop  offset="1" style="stop-color:#00B0FF;stop-opacity:0.1"/>
</linearGradient>
<path class="st45" d="M1589.2,996.3l-73.7,458.9c-13.1,81.5,62.7,149.2,142.2,127l374.6-104.6c79.5-22.2,109.3-119.3,55.8-182.3
	l-300.9-354.2C1724.7,867.3,1604.5,900.8,1589.2,996.3z"/>
<linearGradient id="SVGID_47_" gradientUnits="userSpaceOnUse" x1="1006.8179" y1="1928.6565" x2="1691.5074" y2="1928.6565" gradientTransform="matrix(-9.398948e-02 0.9956 0.9956 9.398948e-02 54.4292 -290.9306)">
	<stop  offset="0" style="stop-color:#FFE000"/>
	<stop  offset="1" style="stop-color:#00B0FF;stop-opacity:0.1"/>
</linearGradient>
<path class="st46" d="M1589.8,979.4l-49.7,451.3c-9.1,82.2,70.2,146.1,148.6,119.7l362.3-122c78.4-26.4,102.9-125.2,46-185.2
	l-312.6-329.3C1718.1,844,1600.3,883.7,1589.8,979.4z"/>
<linearGradient id="SVGID_48_" gradientUnits="userSpaceOnUse" x1="984.7523" y1="1936.0823" x2="1658.5717" y2="1936.0823" gradientTransform="matrix(-9.398948e-02 0.9956 0.9956 9.398948e-02 54.4292 -290.9306)">
	<stop  offset="0" style="stop-color:#FFE000"/>
	<stop  offset="1" style="stop-color:#00B0FF;stop-opacity:0.1"/>
</linearGradient>
<path class="st47" d="M1591.5,963.1l-26.7,442.5c-5,82.7,77.6,142.6,154.7,112.1l349.2-138.3c77-30.5,96.3-130.7,36-187.6
	l-322.5-304.2C1712.3,821.7,1597.3,867.2,1591.5,963.1z"/>
<linearGradient id="SVGID_49_" gradientUnits="userSpaceOnUse" x1="962.9952" y1="1939.9587" x2="1624.903" y2="1939.9587" gradientTransform="matrix(-9.398948e-02 0.9956 0.9956 9.398948e-02 54.4292 -290.9306)">
	<stop  offset="0" style="stop-color:#FFE000"/>
	<stop  offset="1" style="stop-color:#00B0FF;stop-opacity:0.1"/>
</linearGradient>
<path class="st48" d="M1594.4,947.1l-4.7,432.6c-0.9,83,84.9,138.7,160.3,104.1l335.4-153.6c75.5-34.6,89.3-135.9,25.9-189.4
	l-330.7-279C1707.4,800.1,1595.4,851.4,1594.4,947.1z"/>
<linearGradient id="SVGID_50_" gradientUnits="userSpaceOnUse" x1="941.4886" y1="1943.8569" x2="1590.5281" y2="1943.8569" gradientTransform="matrix(-9.398948e-02 0.9956 0.9956 9.398948e-02 54.4292 -290.9306)">
	<stop  offset="0" style="stop-color:#FFE000"/>
	<stop  offset="1" style="stop-color:#00B0FF;stop-opacity:0.1"/>
</linearGradient>
<path class="st49" d="M1598.3,931.5l16.2,421.7c3.2,83.1,91.9,134.5,165.6,96l320.9-167.8c73.7-38.5,82.1-140.7,15.7-190.7
	l-337.1-253.9C1703.3,779.3,1594.7,836.2,1598.3,931.5z"/>
<linearGradient id="SVGID_51_" gradientUnits="userSpaceOnUse" x1="920.1739" y1="1947.807" x2="1555.4756" y2="1947.807" gradientTransform="matrix(-9.398948e-02 0.9956 0.9956 9.398948e-02 54.4292 -290.9306)">
	<stop  offset="0" style="stop-color:#FFE000"/>
	<stop  offset="1" style="stop-color:#00B0FF;stop-opacity:0.1"/>
</linearGradient>
<path class="st50" d="M1603.5,916.1l36,409.8c7.3,83,98.7,129.9,170.4,87.5l305.8-180.9c71.7-42.4,74.6-145.1,5.3-191.5
	l-341.8-228.9C1700.2,759.3,1595.2,821.4,1603.5,916.1z"/>
<linearGradient id="SVGID_52_" gradientUnits="userSpaceOnUse" x1="898.9908" y1="1951.8203" x2="1519.7756" y2="1951.8203" gradientTransform="matrix(-9.398948e-02 0.9956 0.9956 9.398948e-02 54.4292 -290.9306)">
	<stop  offset="0" style="stop-color:#FFE000"/>
	<stop  offset="1" style="stop-color:#00B0FF;stop-opacity:0.1"/>
</linearGradient>
<path class="st51" d="M1609.8,900.9l54.6,397c11.4,82.7,105.3,125,174.8,78.8l290.2-192.9c69.5-46.2,66.8-149.2-5-191.7L1779.5,788
	C1698,739.8,1596.8,807,1609.8,900.9z"/>
<linearGradient id="SVGID_53_" gradientUnits="userSpaceOnUse" x1="877.8823" y1="1955.922" x2="1483.4614" y2="1955.922" gradientTransform="matrix(-9.398948e-02 0.9956 0.9956 9.398948e-02 54.4292 -290.9306)">
	<stop  offset="0" style="stop-color:#FFE000"/>
	<stop  offset="1" style="stop-color:#00B0FF;stop-opacity:0.1"/>
</linearGradient>
<path class="st52" d="M1617.2,885.7l72.1,383.4c15.4,82.2,111.6,119.8,178.7,70l274.2-203.7c67.1-49.9,58.9-152.8-15.4-191.3
	l-346.2-179.7C1696.8,720.9,1599.7,793,1617.2,885.7z"/>
<linearGradient id="SVGID_54_" gradientUnits="userSpaceOnUse" x1="856.7892" y1="1960.1282" x2="1446.5668" y2="1960.1282" gradientTransform="matrix(-9.398948e-02 0.9956 0.9956 9.398948e-02 54.4292 -290.9306)">
	<stop  offset="0" style="stop-color:#FFE000"/>
	<stop  offset="1" style="stop-color:#00B0FF;stop-opacity:0.1"/>
</linearGradient>
<path class="st53" d="M1625.7,870.6l88.3,369.1c19.5,81.5,117.7,114.3,182.2,60.9l257.8-213.3c64.6-53.4,50.7-156-25.7-190.4
	l-346.1-155.8C1696.5,702.5,1603.9,779.2,1625.7,870.6z"/>
<linearGradient id="SVGID_55_" gradientUnits="userSpaceOnUse" x1="835.6545" y1="1964.4557" x2="1409.1292" y2="1964.4557" gradientTransform="matrix(-9.398948e-02 0.9956 0.9956 9.398948e-02 54.4292 -290.9306)">
	<stop  offset="0" style="stop-color:#FFE000"/>
	<stop  offset="1" style="stop-color:#00B0FF;stop-opacity:0.1"/>
</linearGradient>
<path class="st54" d="M1635.4,855.5l103.2,354.2c23.5,80.6,123.5,108.5,185.3,51.6l241.1-221.8c61.8-56.8,42.4-158.8-36-188.9
	l-344.3-132.4C1697.3,684.6,1609.2,765.6,1635.4,855.5z"/>
<linearGradient id="SVGID_56_" gradientUnits="userSpaceOnUse" x1="814.4194" y1="1968.926" x2="1371.1841" y2="1968.926" gradientTransform="matrix(-9.398948e-02 0.9956 0.9956 9.398948e-02 54.4292 -290.9306)">
	<stop  offset="0" style="stop-color:#FFE000"/>
	<stop  offset="1" style="stop-color:#00B0FF;stop-opacity:0.1"/>
</linearGradient>
<path class="st55" d="M1646.1,840.2L1763,1179c27.4,79.5,129,102.4,187.9,42.3l224.3-229.1C2234,932,2209,831,2128.9,805.2
	l-341.1-109.7C1699,667,1615.7,752.1,1646.1,840.2z"/>
<linearGradient id="SVGID_57_" gradientUnits="userSpaceOnUse" x1="793.0297" y1="1973.5424" x2="1332.771" y2="1973.5424" gradientTransform="matrix(-9.398948e-02 0.9956 0.9956 9.398948e-02 54.4292 -290.9306)">
	<stop  offset="0" style="stop-color:#FFE000"/>
	<stop  offset="1" style="stop-color:#00B0FF;stop-opacity:0.1"/>
</linearGradient>
<path class="st56" d="M1658,824.8l129.3,322.9c31.3,78.3,134.2,96,190,32.8l207.3-235.2c55.8-63.3,25.2-163.1-56.4-184.4
	l-336.5-87.7C1701.7,649.8,1623.4,738.6,1658,824.8z"/>
<linearGradient id="SVGID_58_" gradientUnits="userSpaceOnUse" x1="771.4296" y1="1978.3302" x2="1293.9285" y2="1978.3302" gradientTransform="matrix(-9.398948e-02 0.9956 0.9956 9.398948e-02 54.4292 -290.9306)">
	<stop  offset="0" style="stop-color:#FFE000"/>
	<stop  offset="1" style="stop-color:#00B0FF;stop-opacity:0.1"/>
</linearGradient>
<path class="st57" d="M1670.8,809.1l140.4,306.6c35.2,76.8,139.1,89.4,191.6,23.2l190.2-240.1c52.5-66.2,16.5-164.6-66.4-181.2
	L1796.1,651C1705.5,632.8,1632.3,725,1670.8,809.1z"/>
<linearGradient id="SVGID_59_" gradientUnits="userSpaceOnUse" x1="749.5635" y1="1983.2993" x2="1254.6953" y2="1983.2993" gradientTransform="matrix(-9.398948e-02 0.9956 0.9956 9.398948e-02 54.4292 -290.9306)">
	<stop  offset="0" style="stop-color:#FFE000"/>
	<stop  offset="1" style="stop-color:#00B0FF;stop-opacity:0.1"/>
</linearGradient>
<path class="st58" d="M1684.7,793.1l150.2,290.2c39,75.2,143.7,82.6,192.8,13.5L2201,853c49.1-69.1,7.6-165.6-76.2-177.6L1801.3,629
	C1710.2,616,1642.4,711.4,1684.7,793.1z"/>
<linearGradient id="SVGID_60_" gradientUnits="userSpaceOnUse" x1="724.7761" y1="1988.4559" x2="1215.1132" y2="1988.4559" gradientTransform="matrix(-9.398948e-02 0.9956 0.9956 9.398948e-02 54.4292 -290.9306)">
	<stop  offset="0" style="stop-color:#FFE000"/>
	<stop  offset="1" style="stop-color:#00B0FF;stop-opacity:0.1"/>
</linearGradient>
<path class="st59" d="M1699.6,776.8l158.8,273.5c42.6,73.4,148,75.5,193.5,3.8l156.3-246.4c45.5-71.7-1.3-166.1-85.9-173.4
	l-315.1-27.1C1715.9,599.3,1653.6,697.5,1699.6,776.8z"/>
<linearGradient id="SVGID_61_" gradientUnits="userSpaceOnUse" x1="685.0173" y1="1993.8135" x2="1175.2216" y2="1993.8135" gradientTransform="matrix(-9.398948e-02 0.9956 0.9956 9.398948e-02 54.4292 -290.9306)">
	<stop  offset="0" style="stop-color:#FFE000"/>
	<stop  offset="1" style="stop-color:#00B0FF;stop-opacity:0.1"/>
</linearGradient>
<path class="st60" d="M1715.4,760l166,256.7c46.2,71.5,151.9,68.3,193.7-5.9L2214.7,763c41.8-74.2-10.2-166.2-95.3-168.7l-305.6-9
	C1722.6,582.7,1665.9,683.4,1715.4,760z"/>
<linearGradient id="SVGID_62_" gradientUnits="userSpaceOnUse" x1="646.0664" y1="1999.3937" x2="1135.059" y2="1999.3937" gradientTransform="matrix(-9.398948e-02 0.9956 0.9956 9.398948e-02 54.4292 -290.9306)">
	<stop  offset="0" style="stop-color:#FFE000"/>
	<stop  offset="1" style="stop-color:#00B0FF;stop-opacity:0.1"/>
</linearGradient>
<path class="st61" d="M1732.2,742.7l172.1,240c49.7,69.4,155.4,60.8,193.4-15.6L2220.7,719c37.9-76.5-19.2-165.8-104.5-163.5
	l-295.2,8.1C1730.3,566.1,1679.3,669,1732.2,742.7z"/>
<linearGradient id="SVGID_63_" gradientUnits="userSpaceOnUse" x1="607.9416" y1="2005.1868" x2="1094.6669" y2="2005.1868" gradientTransform="matrix(-9.398948e-02 0.9956 0.9956 9.398948e-02 54.4292 -290.9306)">
	<stop  offset="0" style="stop-color:#FFE000"/>
	<stop  offset="1" style="stop-color:#00B0FF;stop-opacity:0.1"/>
</linearGradient>
<path class="st62" d="M1749.8,725l176.8,223.3c53.1,67.1,158.6,53.2,192.6-25.3l107-247.3c34-78.5-28.1-164.9-113.4-157.7l-283.8,24
	C1739,549.5,1693.7,654.2,1749.8,725z"/>
<linearGradient id="SVGID_64_" gradientUnits="userSpaceOnUse" x1="570.6533" y1="2011.224" x2="1054.0863" y2="2011.224" gradientTransform="matrix(-9.398948e-02 0.9956 0.9956 9.398948e-02 54.4292 -290.9306)">
	<stop  offset="0" style="stop-color:#FFE000"/>
	<stop  offset="1" style="stop-color:#00B0FF;stop-opacity:0.1"/>
</linearGradient>
<path class="st63" d="M1768.2,706.6l180.4,206.7c56.4,64.7,161.5,45.5,191.4-35l91.2-245.4c29.9-80.4-37.1-163.6-122.1-151.5
	l-271.6,38.7C1748.6,532.8,1709.1,639,1768.2,706.6z"/>
<linearGradient id="SVGID_65_" gradientUnits="userSpaceOnUse" x1="534.2046" y1="2017.4983" x2="1013.3561" y2="2017.4983" gradientTransform="matrix(-9.398948e-02 0.9956 0.9956 9.398948e-02 54.4292 -290.9306)">
	<stop  offset="0" style="stop-color:#FFE000"/>
	<stop  offset="1" style="stop-color:#00B0FF;stop-opacity:0.1"/>
</linearGradient>
<path class="st64" d="M1787.3,687.7l182.8,190.4c59.6,62.1,163.9,37.6,189.7-44.5l76-242.5c25.7-82.1-46-161.8-130.3-144.8
	l-258.7,52.1C1759.1,516,1725.5,623.3,1787.3,687.7z"/>
<linearGradient id="SVGID_66_" gradientUnits="userSpaceOnUse" x1="498.5958" y1="2024.0249" x2="972.5152" y2="2024.0249" gradientTransform="matrix(-9.398948e-02 0.9956 0.9956 9.398948e-02 54.4292 -290.9306)">
	<stop  offset="0" style="stop-color:#FFE000"/>
	<stop  offset="1" style="stop-color:#00B0FF;stop-opacity:0.1"/>
</linearGradient>
<path class="st65" d="M1807.2,668.1l184,174.4c62.7,59.4,166,29.6,187.5-54l61.2-238.6c21.5-83.6-54.8-159.5-138.3-137.6
	l-245.2,64.2C1770.5,498.9,1742.8,607,1807.2,668.1z"/>
<linearGradient id="SVGID_67_" gradientUnits="userSpaceOnUse" x1="463.8231" y1="2030.8202" x2="931.604" y2="2030.8202" gradientTransform="matrix(-9.398948e-02 0.9956 0.9956 9.398948e-02 54.4292 -290.9306)">
	<stop  offset="0" style="stop-color:#FFE000"/>
	<stop  offset="1" style="stop-color:#00B0FF;stop-opacity:0.1"/>
</linearGradient>
<path class="st66" d="M1827.8,647.8l184.1,158.7c65.6,56.5,167.8,21.5,184.9-63.4l47.1-233.7c17.1-84.9-63.5-156.7-145.9-130
	l-231.2,75C1782.8,481.6,1760.9,590.2,1827.8,647.8z"/>
<linearGradient id="SVGID_68_" gradientUnits="userSpaceOnUse" x1="429.8788" y1="2037.8876" x2="890.6609" y2="2037.8876" gradientTransform="matrix(-9.398948e-02 0.9956 0.9956 9.398948e-02 54.4292 -290.9306)">
	<stop  offset="0" style="stop-color:#FFE000"/>
	<stop  offset="1" style="stop-color:#00B0FF;stop-opacity:0.1"/>
</linearGradient>
<path class="st67" d="M1848.9,626.8l183.2,143.5c68.4,53.6,169.1,13.3,181.8-72.6l33.6-227.9c12.7-85.9-72.1-153.5-153.1-122
	l-216.8,84.5C1795.9,464,1779.9,572.7,1848.9,626.8z"/>
<linearGradient id="SVGID_69_" gradientUnits="userSpaceOnUse" x1="396.7443" y1="2045.2314" x2="849.7236" y2="2045.2314" gradientTransform="matrix(-9.398948e-02 0.9956 0.9956 9.398948e-02 54.4292 -290.9306)">
	<stop  offset="0" style="stop-color:#FFE000"/>
	<stop  offset="1" style="stop-color:#00B0FF;stop-opacity:0.1"/>
</linearGradient>
<path class="st68" d="M1870.7,605l181.2,128.7c71,50.5,170,5.1,178.2-81.6l20.9-221.3c8.2-86.7-80.6-149.8-159.8-113.5l-202.1,92.6
	C1809.9,446.1,1799.6,554.5,1870.7,605z"/>
</svg>
