<?xml version="1.0" encoding="utf-8"?>
<!-- Generator: Adobe Illustrator 24.0.0, SVG Export Plug-In . SVG Version: 6.00 Build 0)  -->
<svg version="1.1" id="Capa_1" xmlns="http://www.w3.org/2000/svg" xmlns:xlink="http://www.w3.org/1999/xlink" x="0px" y="0px"
	 viewBox="0 0 2260 1397" style="enable-background:new 0 0 2260 1397;" xml:space="preserve">
<style type="text/css">
	.st0{fill:none;stroke:url(#SVGID_1_);stroke-width:4;stroke-opacity:0.2;enable-background:new    ;}
	.st1{fill:none;stroke:url(#SVGID_2_);stroke-width:4;stroke-opacity:0.2;enable-background:new    ;}
	.st2{fill:none;stroke:url(#SVGID_3_);stroke-width:4;stroke-opacity:0.2;enable-background:new    ;}
	.st3{fill:none;stroke:url(#SVGID_4_);stroke-width:4;stroke-opacity:0.2;enable-background:new    ;}
	.st4{fill:none;stroke:url(#SVGID_5_);stroke-width:4;stroke-opacity:0.2;enable-background:new    ;}
	.st5{fill:none;stroke:url(#SVGID_6_);stroke-width:4;stroke-opacity:0.2;enable-background:new    ;}
	.st6{fill:none;stroke:url(#SVGID_7_);stroke-width:4;stroke-opacity:0.2;enable-background:new    ;}
	.st7{fill:none;stroke:url(#SVGID_8_);stroke-width:4;stroke-opacity:0.2;enable-background:new    ;}
	.st8{fill:none;stroke:url(#SVGID_9_);stroke-width:4;stroke-opacity:0.2;enable-background:new    ;}
	.st9{fill:none;stroke:url(#SVGID_10_);stroke-width:4;stroke-opacity:0.2;enable-background:new    ;}
	.st10{fill:none;stroke:url(#SVGID_11_);stroke-width:4;stroke-opacity:0.2;enable-background:new    ;}
	.st11{fill:none;stroke:url(#SVGID_12_);stroke-width:4;stroke-opacity:0.2;enable-background:new    ;}
	.st12{fill:none;stroke:url(#SVGID_13_);stroke-width:4;stroke-opacity:0.2;enable-background:new    ;}
	.st13{fill:none;stroke:url(#SVGID_14_);stroke-width:4;stroke-opacity:0.2;enable-background:new    ;}
	.st14{fill:none;stroke:url(#SVGID_15_);stroke-width:4;stroke-opacity:0.2;enable-background:new    ;}
	.st15{fill:none;stroke:url(#SVGID_16_);stroke-width:4;stroke-opacity:0.2;enable-background:new    ;}
	.st16{fill:none;stroke:url(#SVGID_17_);stroke-width:4;stroke-opacity:0.2;enable-background:new    ;}
	.st17{fill:none;stroke:url(#SVGID_18_);stroke-width:4;stroke-opacity:0.2;enable-background:new    ;}
	.st18{fill:none;stroke:url(#SVGID_19_);stroke-width:4;stroke-opacity:0.2;enable-background:new    ;}
	.st19{fill:none;stroke:url(#SVGID_20_);stroke-width:4;stroke-opacity:0.2;enable-background:new    ;}
	.st20{fill:none;stroke:url(#SVGID_21_);stroke-width:4;stroke-opacity:0.2;enable-background:new    ;}
	.st21{fill:none;stroke:url(#SVGID_22_);stroke-width:4;stroke-opacity:0.2;enable-background:new    ;}
	.st22{fill:none;stroke:url(#SVGID_23_);stroke-width:4;stroke-opacity:0.2;enable-background:new    ;}
	.st23{fill:none;stroke:url(#SVGID_24_);stroke-width:4;stroke-opacity:0.2;enable-background:new    ;}
	.st24{fill:none;stroke:url(#SVGID_25_);stroke-width:4;stroke-opacity:0.2;enable-background:new    ;}
	.st25{fill:none;stroke:url(#SVGID_26_);stroke-width:4;stroke-opacity:0.2;enable-background:new    ;}
	.st26{fill:none;stroke:url(#SVGID_27_);stroke-width:4;stroke-opacity:0.2;enable-background:new    ;}
	.st27{fill:none;stroke:url(#SVGID_28_);stroke-width:4;stroke-opacity:0.2;enable-background:new    ;}
	.st28{fill:none;stroke:url(#SVGID_29_);stroke-width:4;stroke-opacity:0.2;enable-background:new    ;}
	.st29{fill:none;stroke:url(#SVGID_30_);stroke-width:4;stroke-opacity:0.2;enable-background:new    ;}
	.st30{fill:none;stroke:url(#SVGID_31_);stroke-width:4;stroke-opacity:0.2;enable-background:new    ;}
	.st31{fill:none;stroke:url(#SVGID_32_);stroke-width:4;stroke-opacity:0.2;enable-background:new    ;}
	.st32{fill:none;stroke:url(#SVGID_33_);stroke-width:4;stroke-opacity:0.2;enable-background:new    ;}
	.st33{fill:none;stroke:url(#SVGID_34_);stroke-width:4;stroke-opacity:0.2;enable-background:new    ;}
	.st34{fill:none;stroke:url(#SVGID_35_);stroke-width:4;stroke-opacity:0.2;enable-background:new    ;}
	.st35{fill:none;stroke:url(#SVGID_36_);stroke-width:4;stroke-opacity:0.2;enable-background:new    ;}
	.st36{fill:none;stroke:url(#SVGID_37_);stroke-width:4;stroke-opacity:0.2;enable-background:new    ;}
	.st37{fill:none;stroke:url(#SVGID_38_);stroke-width:4;stroke-opacity:0.2;enable-background:new    ;}
	.st38{fill:none;stroke:url(#SVGID_39_);stroke-width:4;stroke-opacity:0.2;enable-background:new    ;}
	.st39{fill:none;stroke:url(#SVGID_40_);stroke-width:4;stroke-opacity:0.2;enable-background:new    ;}
	.st40{fill:none;stroke:url(#SVGID_41_);stroke-width:4;stroke-opacity:0.2;enable-background:new    ;}
	.st41{fill:none;stroke:url(#SVGID_42_);stroke-width:4;stroke-opacity:0.2;enable-background:new    ;}
	.st42{fill:none;stroke:url(#SVGID_43_);stroke-width:4;stroke-opacity:0.2;enable-background:new    ;}
	.st43{fill:none;stroke:url(#SVGID_44_);stroke-width:4;stroke-opacity:0.2;enable-background:new    ;}
	.st44{fill:none;stroke:url(#SVGID_45_);stroke-width:4;stroke-opacity:0.2;enable-background:new    ;}
	.st45{fill:none;stroke:url(#SVGID_46_);stroke-width:4;stroke-opacity:0.2;enable-background:new    ;}
	.st46{fill:none;stroke:url(#SVGID_47_);stroke-width:4;stroke-opacity:0.2;enable-background:new    ;}
	.st47{fill:none;stroke:url(#SVGID_48_);stroke-width:4;stroke-opacity:0.2;enable-background:new    ;}
	.st48{fill:none;stroke:url(#SVGID_49_);stroke-width:4;stroke-opacity:0.2;enable-background:new    ;}
	.st49{fill:none;stroke:url(#SVGID_50_);stroke-width:4;stroke-opacity:0.2;enable-background:new    ;}
	.st50{fill:none;stroke:url(#SVGID_51_);stroke-width:4;stroke-opacity:0.2;enable-background:new    ;}
	.st51{fill:none;stroke:url(#SVGID_52_);stroke-width:4;stroke-opacity:0.2;enable-background:new    ;}
	.st52{fill:none;stroke:url(#SVGID_53_);stroke-width:4;stroke-opacity:0.2;enable-background:new    ;}
	.st53{fill:none;stroke:url(#SVGID_54_);stroke-width:4;stroke-opacity:0.2;enable-background:new    ;}
	.st54{fill:none;stroke:url(#SVGID_55_);stroke-width:4;stroke-opacity:0.2;enable-background:new    ;}
	.st55{fill:none;stroke:url(#SVGID_56_);stroke-width:4;stroke-opacity:0.2;enable-background:new    ;}
	.st56{fill:none;stroke:url(#SVGID_57_);stroke-width:4;stroke-opacity:0.2;enable-background:new    ;}
	.st57{fill:none;stroke:url(#SVGID_58_);stroke-width:4;stroke-opacity:0.2;enable-background:new    ;}
	.st58{fill:none;stroke:url(#SVGID_59_);stroke-width:4;stroke-opacity:0.2;enable-background:new    ;}
	.st59{fill:none;stroke:url(#SVGID_60_);stroke-width:4;stroke-opacity:0.2;enable-background:new    ;}
	.st60{fill:none;stroke:url(#SVGID_61_);stroke-width:4;stroke-opacity:0.2;enable-background:new    ;}
	.st61{fill:none;stroke:url(#SVGID_62_);stroke-width:4;stroke-opacity:0.2;enable-background:new    ;}
	.st62{fill:none;stroke:url(#SVGID_63_);stroke-width:4;stroke-opacity:0.2;enable-background:new    ;}
	.st63{fill:none;stroke:url(#SVGID_64_);stroke-width:4;stroke-opacity:0.2;enable-background:new    ;}
	.st64{fill:none;stroke:url(#SVGID_65_);stroke-width:4;stroke-opacity:0.2;enable-background:new    ;}
	.st65{fill:none;stroke:url(#SVGID_66_);stroke-width:4;stroke-opacity:0.2;enable-background:new    ;}
	.st66{fill:none;stroke:url(#SVGID_67_);stroke-width:4;stroke-opacity:0.2;enable-background:new    ;}
	.st67{fill:none;stroke:url(#SVGID_68_);stroke-width:4;stroke-opacity:0.2;enable-background:new    ;}
	.st68{fill:none;stroke:url(#SVGID_69_);stroke-width:4;stroke-opacity:0.2;enable-background:new    ;}
	.st69{opacity:0.6377;fill:#00B0FF;stroke:url(#SVGID_70_);stroke-width:4;stroke-opacity:0.2;enable-background:new    ;}
	.st70{fill:#FFE000;stroke:url(#SVGID_71_);stroke-width:4;stroke-opacity:0.2;enable-background:new    ;}
</style>
<linearGradient id="SVGID_1_" gradientUnits="userSpaceOnUse" x1="1493.3145" y1="724.2133" x2="2147.4373" y2="724.2133">
	<stop  offset="0" style="stop-color:#FFE000"/>
	<stop  offset="1" style="stop-color:#00B0FF;stop-opacity:0.1"/>
</linearGradient>
<path class="st0" d="M2145.2,1066.3l-45.2-695c-3.7-56.9-63-92.7-115.1-69.5l-441,196.3c-52.1,23.2-65.2,91.2-25.3,132.1
	l486.2,498.6C2057.9,1183.3,2150.2,1142.3,2145.2,1066.3z"/>
<linearGradient id="SVGID_2_" gradientUnits="userSpaceOnUse" x1="1479.0006" y1="738.0102" x2="2101.5071" y2="738.0102">
	<stop  offset="0" style="stop-color:#FFE000"/>
	<stop  offset="1" style="stop-color:#00B0FF;stop-opacity:0.1"/>
</linearGradient>
<path class="st1" d="M2099.5,1081.1l-7.9-688.2c-0.7-57.1-58-96-111.3-75.5l-446.7,171.5c-53.3,20.5-69.9,87.8-32.2,130.6
	l454.6,516.8C2006.3,1193.3,2100.4,1157.1,2099.5,1081.1z"/>
<linearGradient id="SVGID_3_" gradientUnits="userSpaceOnUse" x1="1465.3346" y1="751.571" x2="2084.1963" y2="751.571">
	<stop  offset="0" style="stop-color:#FFE000"/>
	<stop  offset="1" style="stop-color:#00B0FF;stop-opacity:0.1"/>
</linearGradient>
<path class="st2" d="M2053.6,1094.7l28.5-679.5c2.4-57.1-52.9-99-107.2-81.4L1524,480.4c-54.3,17.6-74.4,84.1-38.9,128.8l422.5,533
	C1954.7,1201.7,2050.4,1170.6,2053.6,1094.7z"/>
<linearGradient id="SVGID_4_" gradientUnits="userSpaceOnUse" x1="1452.2709" y1="764.8834" x2="2074.064" y2="764.8834">
	<stop  offset="0" style="stop-color:#FFE000"/>
	<stop  offset="1" style="stop-color:#00B0FF;stop-opacity:0.1"/>
</linearGradient>
<path class="st3" d="M2007.7,1107.1l64-668.8c5.4-56.9-47.6-101.7-102.8-86.9l-453.9,121.6c-55.2,14.8-78.7,80.1-45.5,126.7
	l389.9,547.2C1903.4,1208.6,2000.5,1182.6,2007.7,1107.1z"/>
<linearGradient id="SVGID_5_" gradientUnits="userSpaceOnUse" x1="1439.7698" y1="777.936" x2="2063.1292" y2="777.936">
	<stop  offset="0" style="stop-color:#FFE000"/>
	<stop  offset="1" style="stop-color:#00B0FF;stop-opacity:0.1"/>
</linearGradient>
<path class="st4" d="M1961.7,1118.3l98.5-656.4c8.5-56.6-42.1-104.2-98.1-92.3l-455.4,96.8c-55.9,11.9-82.8,76-52,124.2l356.9,559.6
	C1852.3,1214,1950.5,1193.2,1961.7,1118.3z"/>
<linearGradient id="SVGID_6_" gradientUnits="userSpaceOnUse" x1="1427.7742" y1="790.7179" x2="2051.355" y2="790.7179">
	<stop  offset="0" style="stop-color:#FFE000"/>
	<stop  offset="1" style="stop-color:#00B0FF;stop-opacity:0.1"/>
</linearGradient>
<path class="st5" d="M1915.8,1128.3l131.8-642.2c11.5-56.1-36.6-106.4-93.1-97.4L1499,460.9c-56.5,9-86.7,71.6-58.4,121.4l323.8,570
	C1801.7,1218.1,1900.6,1202.4,1915.8,1128.3z"/>
<linearGradient id="SVGID_7_" gradientUnits="userSpaceOnUse" x1="1416.2487" y1="803.2124" x2="2038.7153" y2="803.2124">
	<stop  offset="0" style="stop-color:#FFE000"/>
	<stop  offset="1" style="stop-color:#00B0FF;stop-opacity:0.1"/>
</linearGradient>
<path class="st6" d="M1870.1,1137.1L2034,510.8c14.5-55.4-30.9-108.2-87.8-102.2l-454.5,47.8c-57,6-90.4,67.1-64.7,118.3
	l290.5,578.5C1751.5,1220.7,1850.9,1210.2,1870.1,1137.1z"/>
<linearGradient id="SVGID_8_" gradientUnits="userSpaceOnUse" x1="1405.1395" y1="815.4113" x2="2025.1897" y2="815.4113">
	<stop  offset="0" style="stop-color:#FFE000"/>
	<stop  offset="1" style="stop-color:#00B0FF;stop-opacity:0.1"/>
</linearGradient>
<path class="st7" d="M1824.5,1144.8l194.7-608.9c17.5-54.6-25.1-109.8-82.3-106.8l-452,23.7c-57.2,3-93.8,62.3-70.7,114.8
	l257.3,585.2C1701.8,1221.9,1801.5,1216.7,1824.5,1144.8z"/>
<linearGradient id="SVGID_9_" gradientUnits="userSpaceOnUse" x1="1394.3945" y1="827.3055" x2="2010.7521" y2="827.3055">
	<stop  offset="0" style="stop-color:#FFE000"/>
	<stop  offset="1" style="stop-color:#00B0FF;stop-opacity:0.1"/>
</linearGradient>
<path class="st8" d="M1779.2,1151.4l224.2-590c20.4-53.6-19.2-111-76.6-111h-448.3c-57.4,0-97,57.4-76.6,111l224.2,590
	C1652.7,1221.8,1752.4,1221.8,1779.2,1151.4z"/>
<linearGradient id="SVGID_10_" gradientUnits="userSpaceOnUse" x1="1383.9684" y1="827.2604" x2="1995.3918" y2="827.2604">
	<stop  offset="0" style="stop-color:#FFE000"/>
	<stop  offset="1" style="stop-color:#00B0FF;stop-opacity:0.1"/>
</linearGradient>
<path class="st9" d="M1734.1,1156.9l252.2-569.7c23.2-52.5-13.3-112-70.6-115L1472.3,449c-57.3-3-99.9,52.3-82.3,107l191.2,592.9
	C1604.3,1220.5,1703.7,1225.7,1734.1,1156.9z"/>
<linearGradient id="SVGID_11_" gradientUnits="userSpaceOnUse" x1="1373.8174" y1="827.1573" x2="1979.1013" y2="827.1573">
	<stop  offset="0" style="stop-color:#FFE000"/>
	<stop  offset="1" style="stop-color:#00B0FF;stop-opacity:0.1"/>
</linearGradient>
<path class="st10" d="M1689.5,1161.3l278.7-548.1c26-51.2-7.3-112.6-64.5-118.6l-437.3-46c-57.1-6-102.5,47.1-87.7,102.6l158.6,594
	C1556.7,1217.9,1655.4,1228.3,1689.5,1161.3z"/>
<linearGradient id="SVGID_12_" gradientUnits="userSpaceOnUse" x1="1363.8878" y1="827.0141" x2="1961.8641" y2="827.0141">
	<stop  offset="0" style="stop-color:#FFE000"/>
	<stop  offset="1" style="stop-color:#00B0FF;stop-opacity:0.1"/>
</linearGradient>
<path class="st11" d="M1645.2,1164.7l303.6-525.3c28.8-49.8-1.3-112.9-58.1-121.9l-430-68.1c-56.8-9-104.9,41.8-93,98l126.4,593.4
	C1509.8,1214.2,1607.7,1229.7,1645.2,1164.7z"/>
<linearGradient id="SVGID_13_" gradientUnits="userSpaceOnUse" x1="1354.1228" y1="826.8588" x2="1943.673" y2="826.8588">
	<stop  offset="0" style="stop-color:#FFE000"/>
	<stop  offset="1" style="stop-color:#00B0FF;stop-opacity:0.1"/>
</linearGradient>
<path class="st12" d="M1601.4,1167.2l326.9-501.5c31.4-48.2,4.7-112.9-51.6-124.9l-421.6-89.6c-56.3-12-107,36.3-97.9,93.1
	l94.7,591.1C1463.7,1209.4,1560.5,1229.9,1601.4,1167.2z"/>
<linearGradient id="SVGID_14_" gradientUnits="userSpaceOnUse" x1="1344.48" y1="826.7148" x2="1924.5328" y2="826.7148">
	<stop  offset="0" style="stop-color:#FFE000"/>
	<stop  offset="1" style="stop-color:#00B0FF;stop-opacity:0.1"/>
</linearGradient>
<path class="st13" d="M1558.1,1168.6l348.6-476.7c34-46.5,10.7-112.6-44.9-127.5L1449.6,454c-55.6-14.9-108.9,30.7-102.7,88
	l63.5,587.1C1418.6,1203.5,1513.9,1229,1558.1,1168.6z"/>
<linearGradient id="SVGID_15_" gradientUnits="userSpaceOnUse" x1="1334.9093" y1="826.6084" x2="1904.4479" y2="826.6084">
	<stop  offset="0" style="stop-color:#FFE000"/>
	<stop  offset="1" style="stop-color:#00B0FF;stop-opacity:0.1"/>
</linearGradient>
<path class="st14" d="M1515.4,1169.2l368.6-451c36.5-44.6,16.7-112-38.1-129.8l-401.6-130.5c-54.8-17.8-110.4,25-107.1,82.6
	l33.1,581.5C1374.4,1196.6,1468.1,1227,1515.4,1169.2z"/>
<linearGradient id="SVGID_16_" gradientUnits="userSpaceOnUse" x1="1325.3513" y1="826.559" x2="1883.4237" y2="826.559">
	<stop  offset="0" style="stop-color:#FFE000"/>
	<stop  offset="1" style="stop-color:#00B0FF;stop-opacity:0.1"/>
</linearGradient>
<path class="st15" d="M1473.2,1168.9L1860,744.3c38.8-42.6,22.6-111-31.2-131.7l-390.2-149.8c-53.9-20.7-111.6,19.3-111.3,77
	l3.4,574.4C1331.1,1188.8,1423,1224,1473.2,1168.9z"/>
<linearGradient id="SVGID_17_" gradientUnits="userSpaceOnUse" x1="1290.2363" y1="826.5903" x2="1861.4603" y2="826.5903">
	<stop  offset="0" style="stop-color:#FFE000"/>
	<stop  offset="1" style="stop-color:#00B0FF;stop-opacity:0.1"/>
</linearGradient>
<path class="st16" d="M1431.7,1167.8L1835,770.2c41.1-40.5,28.6-109.7-24.2-133.2L1433,468.8c-52.7-23.5-112.6,13.5-115.2,71.2
	l-25.5,565.7C1289,1180.1,1378.6,1220,1431.7,1167.8z"/>
<linearGradient id="SVGID_18_" gradientUnits="userSpaceOnUse" x1="1252.5841" y1="826.7245" x2="1838.5806" y2="826.7245">
	<stop  offset="0" style="stop-color:#FFE000"/>
	<stop  offset="1" style="stop-color:#00B0FF;stop-opacity:0.1"/>
</linearGradient>
<path class="st17" d="M1390.8,1165.8l418.1-369.9c43.3-38.3,34.4-108.1-17.1-134.4l-364.6-185.8c-51.5-26.2-113.2,7.6-118.8,65.2
	l-53.5,555.7C1247.9,1170.7,1335.1,1215.1,1390.8,1165.8z"/>
<linearGradient id="SVGID_19_" gradientUnits="userSpaceOnUse" x1="1215.7839" y1="826.9741" x2="1814.7898" y2="826.9741">
	<stop  offset="0" style="stop-color:#FFE000"/>
	<stop  offset="1" style="stop-color:#00B0FF;stop-opacity:0.1"/>
</linearGradient>
<path class="st18" d="M1350.7,1163.2l431.1-341.9c45.3-35.9,40.1-106.2-9.9-135.2l-350.5-202.4c-50.1-28.9-113.6,1.8-122,59
	l-80.5,544.2C1207.9,1160.5,1292.5,1209.4,1350.7,1163.2z"/>
<linearGradient id="SVGID_20_" gradientUnits="userSpaceOnUse" x1="1179.8529" y1="827.3698" x2="1790.1112" y2="827.3698">
	<stop  offset="0" style="stop-color:#FFE000"/>
	<stop  offset="1" style="stop-color:#00B0FF;stop-opacity:0.1"/>
</linearGradient>
<path class="st19" d="M1311.3,1159.9l442.3-313.5c47.2-33.5,45.8-104-2.8-135.6L1415,492.8c-48.5-31.5-113.6-4.1-125,52.6
	L1183.6,1077C1169,1149.7,1250.8,1202.8,1311.3,1159.9z"/>
<linearGradient id="SVGID_21_" gradientUnits="userSpaceOnUse" x1="1144.8147" y1="827.9201" x2="1764.5685" y2="827.9201">
	<stop  offset="0" style="stop-color:#FFE000"/>
	<stop  offset="1" style="stop-color:#00B0FF;stop-opacity:0.1"/>
</linearGradient>
<path class="st20" d="M1272.6,1155.9L1724.3,871c49-30.9,51.3-101.5,4.5-135.6l-320.3-232.7c-46.9-34.1-113.3-10-127.6,46.1
	l-131.4,517.7C1131.3,1138.2,1210,1195.4,1272.6,1155.9z"/>
<linearGradient id="SVGID_22_" gradientUnits="userSpaceOnUse" x1="1110.6923" y1="828.6485" x2="1738.1752" y2="828.6485">
	<stop  offset="0" style="stop-color:#FFE000"/>
	<stop  offset="1" style="stop-color:#00B0FF;stop-opacity:0.1"/>
</linearGradient>
<path class="st21" d="M1234.7,1151.4l459.4-256.3c50.7-28.3,56.7-98.7,11.6-135.2l-304.3-246.4c-45.1-36.5-112.7-15.9-129.9,39.5
	l-155.1,502.7C1094.7,1126.3,1170.2,1187.4,1234.7,1151.4z"/>
<linearGradient id="SVGID_23_" gradientUnits="userSpaceOnUse" x1="1077.4946" y1="829.571" x2="1710.9644" y2="829.571">
	<stop  offset="0" style="stop-color:#FFE000"/>
	<stop  offset="1" style="stop-color:#00B0FF;stop-opacity:0.1"/>
</linearGradient>
<path class="st22" d="M1197.6,1146.4L1663,918.8c52.2-25.5,62-95.7,18.8-134.5l-287.7-259c-43.1-38.8-111.9-21.7-131.8,32.8
	l-177.7,486.6C1059.4,1114,1131.4,1178.8,1197.6,1146.4z"/>
<linearGradient id="SVGID_24_" gradientUnits="userSpaceOnUse" x1="1045.2277" y1="830.7" x2="1682.9541" y2="830.7">
	<stop  offset="0" style="stop-color:#FFE000"/>
	<stop  offset="1" style="stop-color:#00B0FF;stop-opacity:0.1"/>
</linearGradient>
<path class="st23" d="M1161.4,1140.8l469.6-199c53.5-22.7,67.1-92.3,26-133.4l-270.6-270.6c-41.1-41.1-110.7-27.5-133.4,26
	l-199,469.6C1025.2,1101.2,1093.6,1169.6,1161.4,1140.8z"/>
<linearGradient id="SVGID_25_" gradientUnits="userSpaceOnUse" x1="1013.8943" y1="832.0518" x2="1654.1875" y2="832.0518">
	<stop  offset="0" style="stop-color:#FFE000"/>
	<stop  offset="1" style="stop-color:#00B0FF;stop-opacity:0.1"/>
</linearGradient>
<path class="st24" d="M1125.9,1134.9l472.1-170.6c54.7-19.8,72-88.7,33-131.9L1378,551.3c-38.9-43.2-109.2-33.3-134.6,19.1
	l-219,451.7C992.3,1088.2,1056.8,1159.8,1125.9,1134.9z"/>
<linearGradient id="SVGID_26_" gradientUnits="userSpaceOnUse" x1="983.4963" y1="833.6465" x2="1624.6864" y2="833.6465">
	<stop  offset="0" style="stop-color:#FFE000"/>
	<stop  offset="1" style="stop-color:#00B0FF;stop-opacity:0.1"/>
</linearGradient>
<path class="st25" d="M1091.3,1128.5l473-142.6c55.8-16.8,76.7-84.8,40-130l-235.2-290.5c-36.6-45.3-107.5-38.9-135.5,12.1
	l-237.8,433C960.6,1075,1021.1,1149.7,1091.3,1128.5z"/>
<linearGradient id="SVGID_27_" gradientUnits="userSpaceOnUse" x1="954.027" y1="835.4933" x2="1594.4922" y2="835.4933">
	<stop  offset="0" style="stop-color:#FFE000"/>
	<stop  offset="1" style="stop-color:#00B0FF;stop-opacity:0.1"/>
</linearGradient>
<path class="st26" d="M1057.6,1121.9l472.3-114.9c56.6-13.8,81.2-80.6,46.9-127.8l-217.1-298.8c-34.3-47.2-105.4-44.5-136,5.1
	L968.5,999.2C930,1061.6,986.4,1139.2,1057.6,1121.9z"/>
<linearGradient id="SVGID_28_" gradientUnits="userSpaceOnUse" x1="925.4794" y1="837.605" x2="1563.6282" y2="837.605">
	<stop  offset="0" style="stop-color:#FFE000"/>
	<stop  offset="1" style="stop-color:#00B0FF;stop-opacity:0.1"/>
</linearGradient>
<path class="st27" d="M1024.7,1114.9l470-87.7c57.4-10.7,85.5-76.2,53.7-125.2l-198.7-306c-31.8-48.9-103.1-49.9-136.2-1.9
	L942.2,987.9C900.7,1048.1,952.8,1128.3,1024.7,1114.9z"/>
<linearGradient id="SVGID_29_" gradientUnits="userSpaceOnUse" x1="897.8394" y1="839.9968" x2="1532.145" y2="839.9968">
	<stop  offset="0" style="stop-color:#FFE000"/>
	<stop  offset="1" style="stop-color:#00B0FF;stop-opacity:0.1"/>
</linearGradient>
<path class="st28" d="M992.7,1107.8l466.1-61.1c57.9-7.6,89.5-71.6,60.3-122.2l-180.2-312c-29.2-50.6-100.5-55.2-136-8.9L917,976.7
	C872.6,1034.6,920.3,1117.3,992.7,1107.8z"/>
<linearGradient id="SVGID_30_" gradientUnits="userSpaceOnUse" x1="871.0926" y1="842.6836" x2="1500.0785" y2="842.6836">
	<stop  offset="0" style="stop-color:#FFE000"/>
	<stop  offset="1" style="stop-color:#00B0FF;stop-opacity:0.1"/>
</linearGradient>
<path class="st29" d="M961.5,1100.5l460.8-35.1c58.3-4.4,93.3-66.8,66.8-118.9l-161.5-317c-26.6-52.1-97.6-60.4-135.4-15.9
	L892.8,965.7C845.7,1021.2,888.9,1106,961.5,1100.5z"/>
<linearGradient id="SVGID_31_" gradientUnits="userSpaceOnUse" x1="845.221" y1="845.6715" x2="1467.4673" y2="845.6715">
	<stop  offset="0" style="stop-color:#FFE000"/>
	<stop  offset="1" style="stop-color:#00B0FF;stop-opacity:0.1"/>
</linearGradient>
<path class="st30" d="M931.1,1093l454.1-9.9c58.5-1.3,96.9-61.8,73.1-115.2l-142.9-320.9c-23.8-53.5-94.4-65.5-134.5-22.8L869.7,955
	C819.9,1007.9,858.5,1094.6,931.1,1093z"/>
<linearGradient id="SVGID_32_" gradientUnits="userSpaceOnUse" x1="820.2" y1="856.2153" x2="1434.3546" y2="856.2153">
	<stop  offset="0" style="stop-color:#FFE000"/>
	<stop  offset="1" style="stop-color:#00B0FF;stop-opacity:0.1"/>
</linearGradient>
<path class="st31" d="M901.6,1085.5l446.1,14.5c58.6,1.9,100.2-56.5,79.2-111.3L1302.6,665c-21-54.7-91-70.3-133.3-29.7L847.5,944.5
	C795.2,994.8,829.2,1083.1,901.6,1085.5z"/>
<linearGradient id="SVGID_33_" gradientUnits="userSpaceOnUse" x1="796.0074" y1="871.593" x2="1400.7871" y2="871.593">
	<stop  offset="0" style="stop-color:#FFE000"/>
	<stop  offset="1" style="stop-color:#00B0FF;stop-opacity:0.1"/>
</linearGradient>
<path class="st32" d="M873,1077.9l436.7,38c58.5,5.1,103.2-51.1,85-107l-105.8-325.5c-18.1-55.8-87.3-75-131.7-36.5l-331,287.5
	C771.7,981.9,800.9,1071.7,873,1077.9z"/>
<linearGradient id="SVGID_34_" gradientUnits="userSpaceOnUse" x1="772.6154" y1="886.8089" x2="1366.8086" y2="886.8089">
	<stop  offset="0" style="stop-color:#FFE000"/>
	<stop  offset="1" style="stop-color:#00B0FF;stop-opacity:0.1"/>
</linearGradient>
<path class="st33" d="M845.1,1070.4l426.2,60.6c58.2,8.3,105.9-45.6,90.7-102.3l-87.4-326.1c-15.2-56.8-83.4-79.5-129.7-43.3
	L806.1,924.8C749.3,969.4,773.6,1060.3,845.1,1070.4z"/>
<linearGradient id="SVGID_35_" gradientUnits="userSpaceOnUse" x1="749.9932" y1="901.8391" x2="1332.4719" y2="901.8391">
	<stop  offset="0" style="stop-color:#FFE000"/>
	<stop  offset="1" style="stop-color:#00B0FF;stop-opacity:0.1"/>
</linearGradient>
<path class="st34" d="M818.1,1063l414.5,82.2c57.7,11.4,108.3-39.9,96.1-97.4l-69.3-325.8c-12.2-57.5-79.3-83.8-127.4-49.9
	L786.7,915.7C727.9,957.2,747.4,1049,818.1,1063z"/>
<linearGradient id="SVGID_36_" gradientUnits="userSpaceOnUse" x1="728.1104" y1="916.6599" x2="1297.816" y2="916.6599">
	<stop  offset="0" style="stop-color:#FFE000"/>
	<stop  offset="1" style="stop-color:#00B0FF;stop-opacity:0.1"/>
</linearGradient>
<path class="st35" d="M791.8,1055.6l401.8,102.7c57.1,14.6,110.4-34,101.2-92.2l-51.4-324.4c-9.2-58.2-75-87.9-124.7-56.4L768.3,907
	C707.5,945.4,722.2,1037.8,791.8,1055.6z"/>
<linearGradient id="SVGID_37_" gradientUnits="userSpaceOnUse" x1="706.933" y1="931.2419" x2="1262.897" y2="931.2419">
	<stop  offset="0" style="stop-color:#FFE000"/>
	<stop  offset="1" style="stop-color:#00B0FF;stop-opacity:0.1"/>
</linearGradient>
<path class="st36" d="M766.3,1048.4l388.1,122c56.3,17.7,112.2-28.1,106.1-86.7l-33.9-322.1c-6.2-58.7-70.4-91.8-121.8-62.8
	L750.6,898.9C688.2,934.2,697.9,1026.9,766.3,1048.4z"/>
<linearGradient id="SVGID_38_" gradientUnits="userSpaceOnUse" x1="686.4249" y1="945.5622" x2="1227.7659" y2="945.5622">
	<stop  offset="0" style="stop-color:#FFE000"/>
	<stop  offset="1" style="stop-color:#00B0FF;stop-opacity:0.1"/>
</linearGradient>
<path class="st37" d="M741.6,1041.4l373.5,140.3c55.3,20.8,113.7-22,110.6-81l-16.7-318.8c-3.1-59-65.7-95.4-118.5-69L733.7,891.4
	C669.7,923.4,674.6,1016.3,741.6,1041.4z"/>
<linearGradient id="SVGID_39_" gradientUnits="userSpaceOnUse" x1="666.5507" y1="959.5984" x2="1192.4735" y2="959.5984">
	<stop  offset="0" style="stop-color:#FFE000"/>
	<stop  offset="1" style="stop-color:#00B0FF;stop-opacity:0.1"/>
</linearGradient>
<path class="st38" d="M717.5,1034.6l358.1,157.3c54.1,23.8,114.9-15.9,114.9-75V802.3c0-59.1-60.7-98.8-114.9-75L717.5,884.6
	C652.2,913.3,652.2,1005.9,717.5,1034.6z"/>
<linearGradient id="SVGID_40_" gradientUnits="userSpaceOnUse" x1="647.2716" y1="973.3326" x2="1173.2953" y2="973.3326">
	<stop  offset="0" style="stop-color:#FFE000"/>
	<stop  offset="1" style="stop-color:#00B0FF;stop-opacity:0.1"/>
</linearGradient>
<path class="st39" d="M694.2,1028.1l341.9,173.1c52.8,26.8,115.7-9.7,118.8-68.8l16.2-309.5c3.1-59.1-55.6-101.9-111-80.9L702,878.4
	C635.6,903.7,630.7,996,694.2,1028.1z"/>
<linearGradient id="SVGID_41_" gradientUnits="userSpaceOnUse" x1="628.5491" y1="986.7514" x2="1153.5071" y2="986.7514">
	<stop  offset="0" style="stop-color:#FFE000"/>
	<stop  offset="1" style="stop-color:#00B0FF;stop-opacity:0.1"/>
</linearGradient>
<path class="st40" d="M671.5,1021.9l325.1,187.7c51.4,29.6,116.2-3.4,122.4-62.4l31.9-303.6c6.2-59-50.4-104.8-106.8-86.5L687.2,873
	C619.7,894.9,610.1,986.4,671.5,1021.9z"/>
<linearGradient id="SVGID_42_" gradientUnits="userSpaceOnUse" x1="610.3432" y1="999.8292" x2="1133.1282" y2="999.8292">
	<stop  offset="0" style="stop-color:#FFE000"/>
	<stop  offset="1" style="stop-color:#00B0FF;stop-opacity:0.1"/>
</linearGradient>
<path class="st41" d="M649.5,1016l307.8,200.9c49.7,32.5,116.4,2.9,125.7-55.8l47-296.9c9.3-58.7-45-107.4-102.3-91.9l-354.8,96
	C604.6,886.7,590.3,977.3,649.5,1016z"/>
<linearGradient id="SVGID_43_" gradientUnits="userSpaceOnUse" x1="592.6135" y1="1012.5548" x2="1112.1487" y2="1012.5548">
	<stop  offset="0" style="stop-color:#FFE000"/>
	<stop  offset="1" style="stop-color:#00B0FF;stop-opacity:0.1"/>
</linearGradient>
<path class="st42" d="M628.1,1010.4l290,212.9c48,35.2,116.3,9.2,128.6-49l61.5-289.4c12.4-58.2-39.4-109.7-97.6-97.1l-351.6,76.5
	C590.2,879.3,571.2,968.7,628.1,1010.4z"/>
<linearGradient id="SVGID_44_" gradientUnits="userSpaceOnUse" x1="575.319" y1="1024.9171" x2="1090.5763" y2="1024.9171">
	<stop  offset="0" style="stop-color:#FFE000"/>
	<stop  offset="1" style="stop-color:#00B0FF;stop-opacity:0.1"/>
</linearGradient>
<path class="st43" d="M607.3,1005.3l271.9,223.5c46,37.8,115.8,15.5,131.2-42.1l75.3-281.2c15.4-57.6-33.8-111.8-92.6-102
	l-347.2,57.6C576.5,872.7,552.9,960.6,607.3,1005.3z"/>
<linearGradient id="SVGID_45_" gradientUnits="userSpaceOnUse" x1="558.4185" y1="1036.9044" x2="1068.4183" y2="1036.9044">
	<stop  offset="0" style="stop-color:#FFE000"/>
	<stop  offset="1" style="stop-color:#00B0FF;stop-opacity:0.1"/>
</linearGradient>
<path class="st44" d="M587,1000.5l253.5,232.9c43.9,40.4,114.9,21.7,133.4-35l88.5-272.3c18.4-56.8-28-113.6-87.3-106.7l-341.9,39.4
	C563.4,866.8,535.4,953,587,1000.5z"/>
<linearGradient id="SVGID_46_" gradientUnits="userSpaceOnUse" x1="541.8684" y1="1048.5024" x2="1045.6851" y2="1048.5024">
	<stop  offset="0" style="stop-color:#FFE000"/>
	<stop  offset="1" style="stop-color:#00B0FF;stop-opacity:0.1"/>
</linearGradient>
<path class="st45" d="M567.3,996.2l234.8,240.9c41.7,42.8,113.8,28,135.2-27.8l100.9-262.9c21.4-55.8-22.2-115-81.8-111.1
	l-335.7,21.9C550.8,861.8,518.4,946.1,567.3,996.2z"/>
<linearGradient id="SVGID_47_" gradientUnits="userSpaceOnUse" x1="525.6284" y1="1059.7085" x2="1022.3898" y2="1059.7085">
	<stop  offset="0" style="stop-color:#FFE000"/>
	<stop  offset="1" style="stop-color:#00B0FF;stop-opacity:0.1"/>
</linearGradient>
<path class="st46" d="M548,992.3L764.1,1240c39.4,45.1,112.2,34.2,136.6-20.5l112.6-252.8c24.4-54.7-16.3-116.2-76.1-115.3
	l-328.6,5.1C538.7,857.6,502.1,939.8,548,992.3z"/>
<linearGradient id="SVGID_48_" gradientUnits="userSpaceOnUse" x1="509.6548" y1="1065.0841" x2="998.5471" y2="1065.0841">
	<stop  offset="0" style="stop-color:#FFE000"/>
	<stop  offset="1" style="stop-color:#00B0FF;stop-opacity:0.1"/>
</linearGradient>
<path class="st47" d="M529.1,988.9L726.5,1242c36.9,47.3,110.4,40.3,137.6-13.2l123.4-242.3c27.2-53.4-10.3-117.1-70.2-119.1
	l-320.8-10.9C527.1,854.3,486.4,934.1,529.1,988.9z"/>
<linearGradient id="SVGID_49_" gradientUnits="userSpaceOnUse" x1="493.9045" y1="1067.8903" x2="974.1738" y2="1067.8903">
	<stop  offset="0" style="stop-color:#FFE000"/>
	<stop  offset="1" style="stop-color:#00B0FF;stop-opacity:0.1"/>
</linearGradient>
<path class="st48" d="M510.7,986l178.6,257.3c34.3,49.3,108.2,46.3,138.3-5.8l133.5-231.3c30-52-4.3-117.6-64.1-122.6l-312.1-26
	C515.8,851.8,471.2,929.1,510.7,986z"/>
<linearGradient id="SVGID_50_" gradientUnits="userSpaceOnUse" x1="478.3356" y1="1070.7123" x2="949.2894" y2="1070.7123">
	<stop  offset="0" style="stop-color:#FFE000"/>
	<stop  offset="1" style="stop-color:#00B0FF;stop-opacity:0.1"/>
</linearGradient>
<path class="st49" d="M492.7,983.6l160,260.2c31.5,51.3,105.7,52.2,138.5,1.7L934,1025.6c32.8-50.5,1.8-117.9-57.9-125.8
	l-302.8-40.4C504.8,850.3,456.5,924.7,492.7,983.6z"/>
<linearGradient id="SVGID_51_" gradientUnits="userSpaceOnUse" x1="462.9056" y1="1073.5718" x2="923.9142" y2="1073.5718">
	<stop  offset="0" style="stop-color:#FFE000"/>
	<stop  offset="1" style="stop-color:#00B0FF;stop-opacity:0.1"/>
</linearGradient>
<path class="st50" d="M475,981.6l141.7,261.9c28.7,53,102.9,58,138.4,9.2l151.2-208.1c35.4-48.8,7.8-117.8-51.5-128.7l-292.9-53.8
	C494.2,849.6,442.2,921.1,475,981.6z"/>
<linearGradient id="SVGID_52_" gradientUnits="userSpaceOnUse" x1="447.5708" y1="1076.4771" x2="898.0706" y2="1076.4771">
	<stop  offset="0" style="stop-color:#FFE000"/>
	<stop  offset="1" style="stop-color:#00B0FF;stop-opacity:0.1"/>
</linearGradient>
<path class="st51" d="M457.6,980.2l123.6,262.4c25.7,54.7,99.8,63.6,137.8,16.6l158.7-196c38-47,13.9-117.5-44.9-131.3l-282.4-66.4
	C483.7,849.9,428.3,918.2,457.6,980.2z"/>
<linearGradient id="SVGID_53_" gradientUnits="userSpaceOnUse" x1="432.29" y1="1079.4464" x2="871.7822" y2="1079.4464">
	<stop  offset="0" style="stop-color:#FFE000"/>
	<stop  offset="1" style="stop-color:#00B0FF;stop-opacity:0.1"/>
</linearGradient>
<path class="st52" d="M440.4,979.4l106,261.8c22.7,56.1,96.3,69.1,136.8,24.1l165.4-183.8c40.5-45,19.9-116.8-38.3-133.6l-271.4-78
	C473.4,851,414.8,916,440.4,979.4z"/>
<linearGradient id="SVGID_54_" gradientUnits="userSpaceOnUse" x1="417.0204" y1="1082.4912" x2="845.0735" y2="1082.4912">
	<stop  offset="0" style="stop-color:#FFE000"/>
	<stop  offset="1" style="stop-color:#00B0FF;stop-opacity:0.1"/>
</linearGradient>
<path class="st53" d="M423.6,979l88.7,260c19.6,57.4,92.6,74.4,135.5,31.5L819,1099.2c42.9-42.9,25.9-115.9-31.5-135.5l-260-88.7
	C463.2,853,401.6,914.6,423.6,979z"/>
<linearGradient id="SVGID_55_" gradientUnits="userSpaceOnUse" x1="401.7207" y1="1085.624" x2="817.9719" y2="1085.624">
	<stop  offset="0" style="stop-color:#FFE000"/>
	<stop  offset="1" style="stop-color:#00B0FF;stop-opacity:0.1"/>
</linearGradient>
<path class="st54" d="M406.9,979.2l72,257.2c16.4,58.5,88.6,79.5,133.7,38.8l176.2-158.7c45.2-40.7,31.9-114.6-24.6-137.1L516,880.9
	C453,855.9,388.6,913.9,406.9,979.2z"/>
<linearGradient id="SVGID_56_" gradientUnits="userSpaceOnUse" x1="386.3483" y1="1088.8601" x2="790.5029" y2="1088.8601">
	<stop  offset="0" style="stop-color:#FFE000"/>
	<stop  offset="1" style="stop-color:#00B0FF;stop-opacity:0.1"/>
</linearGradient>
<path class="st55" d="M390.4,979.9l55.8,253.3c13.1,59.5,84.2,84.4,131.6,46l180.3-146c47.3-38.3,37.8-113.1-17.7-138.3L504.3,887.6
	C442.8,859.7,375.8,914,390.4,979.9z"/>
<linearGradient id="SVGID_57_" gradientUnits="userSpaceOnUse" x1="370.864" y1="1092.2019" x2="762.6951" y2="1092.2019">
	<stop  offset="0" style="stop-color:#FFE000"/>
	<stop  offset="1" style="stop-color:#00B0FF;stop-opacity:0.1"/>
</linearGradient>
<path class="st56" d="M374,981.1l40.3,248.5c9.8,60.3,79.7,89,129,53.2l183.6-133.4c49.4-35.9,43.6-111.2-10.7-139.2L492.3,895.1
	C432.5,864.4,363.2,914.7,374,981.1z"/>
<linearGradient id="SVGID_58_" gradientUnits="userSpaceOnUse" x1="355.2273" y1="1095.668" x2="734.5764" y2="1095.668">
	<stop  offset="0" style="stop-color:#FFE000"/>
	<stop  offset="1" style="stop-color:#00B0FF;stop-opacity:0.1"/>
</linearGradient>
<path class="st57" d="M357.7,982.9l25.5,242.8c6.4,60.8,74.8,93.5,126.1,60.2l186-120.8c51.3-33.3,49.3-109.1-3.7-139.7l-211.4-122
	C422.2,869.9,350.7,916.3,357.7,982.9z"/>
<linearGradient id="SVGID_59_" gradientUnits="userSpaceOnUse" x1="339.3982" y1="1099.2651" x2="706.1749" y2="1099.2651">
	<stop  offset="0" style="stop-color:#FFE000"/>
	<stop  offset="1" style="stop-color:#00B0FF;stop-opacity:0.1"/>
</linearGradient>
<path class="st58" d="M341.5,985.1l11.4,236.3c3,61.3,69.7,97.7,122.8,67l187.5-108.2c53.1-30.7,54.9-106.7,3.4-139.9l-198.9-128
	C411.6,876.2,338.3,918.6,341.5,985.1z"/>
<linearGradient id="SVGID_60_" gradientUnits="userSpaceOnUse" x1="321.4542" y1="1102.9982" x2="677.5208" y2="1102.9982">
	<stop  offset="0" style="stop-color:#FFE000"/>
	<stop  offset="1" style="stop-color:#00B0FF;stop-opacity:0.1"/>
</linearGradient>
<path class="st59" d="M325.3,987.9l-1.9,228.9c-0.5,61.5,64.4,101.6,119.1,73.7l188.2-95.9c54.8-27.9,60.4-104,10.4-139.7
	l-186.3-133C400.9,883.3,325.9,921.6,325.3,987.9z"/>
<linearGradient id="SVGID_61_" gradientUnits="userSpaceOnUse" x1="292.6722" y1="1106.8766" x2="648.6428" y2="1106.8766">
	<stop  offset="0" style="stop-color:#FFE000"/>
	<stop  offset="1" style="stop-color:#00B0FF;stop-opacity:0.1"/>
</linearGradient>
<path class="st60" d="M309.2,991.1L294.9,1212c-4,61.5,58.8,105.2,115.1,80.2l188.1-83.7c56.3-25.1,65.8-101,17.4-139.2L441.7,932.1
	C389.9,891.2,313.5,925.3,309.2,991.1z"/>
<linearGradient id="SVGID_62_" gradientUnits="userSpaceOnUse" x1="264.475" y1="1110.9161" x2="619.5684" y2="1110.9161">
	<stop  offset="0" style="stop-color:#FFE000"/>
	<stop  offset="1" style="stop-color:#00B0FF;stop-opacity:0.1"/>
</linearGradient>
<path class="st61" d="M293,994.9l-25.9,212.2c-7.5,61.3,53,108.6,110.7,86.4l187.2-71.8c57.7-22.1,71-97.7,24.4-138.3L428.2,943
	C378.6,899.9,301,929.7,293,994.9z"/>
<linearGradient id="SVGID_63_" gradientUnits="userSpaceOnUse" x1="236.8759" y1="1115.1099" x2="590.328" y2="1115.1099">
	<stop  offset="0" style="stop-color:#FFE000"/>
	<stop  offset="1" style="stop-color:#00B0FF;stop-opacity:0.1"/>
</linearGradient>
<path class="st62" d="M276.8,999.1L240.2,1202c-11,61,47,111.6,106,92.5l185.5-60.3c58.9-19.1,76.1-94.2,31.4-137.1L414.2,954.5
	C367,909.3,288.4,934.8,276.8,999.1z"/>
<linearGradient id="SVGID_64_" gradientUnits="userSpaceOnUse" x1="209.8824" y1="1119.4803" x2="560.9511" y2="1119.4803">
	<stop  offset="0" style="stop-color:#FFE000"/>
	<stop  offset="1" style="stop-color:#00B0FF;stop-opacity:0.1"/>
</linearGradient>
<path class="st63" d="M260.6,1003.8l-46.4,193.1c-14.5,60.4,40.9,114.4,100.9,98.3l183.1-49.1c60-16.1,81-90.5,38.2-135.5
	L399.7,966.5C354.9,919.4,275.7,940.6,260.6,1003.8z"/>
<linearGradient id="SVGID_65_" gradientUnits="userSpaceOnUse" x1="183.4966" y1="1124.0223" x2="531.4659" y2="1124.0223">
	<stop  offset="0" style="stop-color:#FFE000"/>
	<stop  offset="1" style="stop-color:#00B0FF;stop-opacity:0.1"/>
</linearGradient>
<path class="st64" d="M244.2,1008.9l-55.1,182.9c-18,59.6,34.5,116.8,95.5,103.8l179.9-38.2c60.9-12.9,85.7-86.5,45-133.7L384.7,979
	C342.5,930.1,262.9,947,244.2,1008.9z"/>
<linearGradient id="SVGID_66_" gradientUnits="userSpaceOnUse" x1="157.7188" y1="1128.7471" x2="501.9006" y2="1128.7471">
	<stop  offset="0" style="stop-color:#FFE000"/>
	<stop  offset="1" style="stop-color:#00B0FF;stop-opacity:0.1"/>
</linearGradient>
<path class="st65" d="M227.8,1014.4l-63,172.4c-21.4,58.7,28.1,118.8,89.8,109l176.1-27.9c61.7-9.8,90.2-82.2,51.7-131.4L369.2,992
	C329.6,941.4,249.8,954.1,227.8,1014.4z"/>
<linearGradient id="SVGID_67_" gradientUnits="userSpaceOnUse" x1="132.5464" y1="1133.6663" x2="472.2843" y2="1133.6663">
	<stop  offset="0" style="stop-color:#FFE000"/>
	<stop  offset="1" style="stop-color:#00B0FF;stop-opacity:0.1"/>
</linearGradient>
<path class="st66" d="M211.2,1020.4l-69.8,161.5c-24.9,57.5,21.5,120.5,83.8,114l171.6-18c62.3-6.6,94.5-77.8,58.3-128.9
	l-101.9-143.5C316.2,953.4,236.5,961.8,211.2,1020.4z"/>
<linearGradient id="SVGID_68_" gradientUnits="userSpaceOnUse" x1="107.9737" y1="1138.7825" x2="442.645" y2="1138.7825">
	<stop  offset="0" style="stop-color:#FFE000"/>
	<stop  offset="1" style="stop-color:#00B0FF;stop-opacity:0.1"/>
</linearGradient>
<path class="st67" d="M194.4,1026.7l-75.6,150.5c-28.2,56.2,14.7,121.9,77.5,118.6l166.6-8.7c62.8-3.3,98.6-73.1,64.7-126.1
	l-90.9-141.8C302.3,965.9,222.9,970,194.4,1026.7z"/>
<linearGradient id="SVGID_69_" gradientUnits="userSpaceOnUse" x1="83.987" y1="1144.0988" x2="413.0099" y2="1144.0988">
	<stop  offset="0" style="stop-color:#FFE000"/>
	<stop  offset="1" style="stop-color:#00B0FF;stop-opacity:0.1"/>
</linearGradient>
<path class="st68" d="M177.5,1033.5l-80.5,139.3c-31.5,54.6,7.9,122.9,71,122.9H329c63.1,0,102.5-68.3,71-122.9l-80.5-139.3
	C287.9,978.8,209.1,978.8,177.5,1033.5z"/>
<linearGradient id="SVGID_70_" gradientUnits="userSpaceOnUse" x1="667.7177" y1="1756.4071" x2="1090.6416" y2="1756.4071">
	<stop  offset="0" style="stop-color:#FFE000"/>
	<stop  offset="1" style="stop-color:#00B0FF;stop-opacity:0.1"/>
</linearGradient>
<rect x="669.7" y="1598" class="st69" width="418.9" height="316.7"/>
<linearGradient id="SVGID_71_" gradientUnits="userSpaceOnUse" x1="1500.4568" y1="1768.3278" x2="1923.3807" y2="1768.3278">
	<stop  offset="0" style="stop-color:#FFE000"/>
	<stop  offset="1" style="stop-color:#00B0FF;stop-opacity:0.1"/>
</linearGradient>
<rect x="1502.5" y="1610" class="st70" width="418.9" height="316.7"/>
</svg>
