<?xml version="1.0" encoding="utf-8"?>
<!-- Generator: Adobe Illustrator 24.0.0, SVG Export Plug-In . SVG Version: 6.00 Build 0)  -->
<svg version="1.1" id="Capa_1" xmlns="http://www.w3.org/2000/svg" xmlns:xlink="http://www.w3.org/1999/xlink" x="0px" y="0px"
	 viewBox="0 0 847 512" style="enable-background:new 0 0 847 512;" xml:space="preserve">
<style type="text/css">
	.st0{fill:none;stroke:#EDB20A;stroke-width:3;stroke-miterlimit:10;}
	.st1{fill:#6D6D6D;}
</style>
<g id="trazado_mapa">
	<path class="st0" d="M338.93,340.96l0.9-1.39l-0.04-1.26l-1.08-1.48c0,0-2.92-2.47-3.55-0.58c-0.63,1.89-1.17,1.98-2.38,2.78
		s-0.9,2.78-0.99,2.92c-0.09,0.13-1.84,0.36-1.84,0.36l-0.49-0.4l0.72-1.62c0,0,0.04-1.48-0.04-1.84s-1.17-1.62-1.17-1.62
		s-0.09-0.81,0.22-1.89c0.31-1.08,0.49-1.93,1.21-2.15c0.72-0.22-0.13-0.81,0.72-1.12c0.85-0.31,0.31-0.27,1.8-0.27
		s3.5,0.09,3.86-0.18s0.58-0.4,0.58-1.8c0-1.39-0.99-1.08,0.13-1.84s1.12-0.76,1.12-1.21s0-0.09,0-0.45s-0.94,0.99,0-0.36
		c0.94-1.35,0.85,0.27,0.94-1.35s0.09-0.99,0.09-1.62s0.94,0.09,1.26-2.65c0.31-2.74,0.94-3.23,1.26-3.59s0.72-0.27,2.74-3.5
		s5.57-7.68,5.16-8.8c-0.4-1.12-1.44-0.18-1.48-1.66s-1.26-1.35,0.27-2.51s0.76-2.11,2.02-2.11s1.12-0.27,2.15-0.99
		c1.03-0.72,1.21-0.76,1.17-2.06c-0.04-1.3,1.03-3.68,2.33-3.91c1.3-0.22,0.9-1.26,1.75-1.44c0.85-0.18,2.06-0.09,3.19-0.18
		c1.12-0.09,3.99-1.03,4.71-2.51c0.72-1.48,2.42-2.74,2.42-2.74s1.44-1.57,2.24-1.57c0.81,0,0.81-1.71,0.81-1.71
		s-0.09-1.21-0.31-2.74c-0.22-1.53-0.94-1.12,0.67-1.57c1.62-0.45,2.74-1.89,2.74-1.89s2.24-0.63,2.29-2.33
		c0.04-1.71,0.31-3.86,0.54-4.58c0.22-0.72,0.9-0.63,1.17-1.03c0.27-0.4,1.26-2.47,0.9-3.59s-0.27-2.56-0.27-2.56l1.39-1.48
		c0,0,0,0.45,0-0.76c0-1.21-1.48-0.4-0.31-2.38c1.17-1.98,0.94-1.57,0.94-1.57s0.76-0.31,0.58-1.93c-0.18-1.62-0.09-7.9-0.09-7.9
		l0.72-1.84c0,0,1.08-0.67,0.76-1.39c-0.31-0.72,0.18-0.99,0.22-1.48c0.04-0.49,0.13,0.72,0.04-1.03c-0.09-1.75-2.15-6.55,1.93-6.64
		c4.08-0.09,5.48,0.54,5.93,0.31c0.45-0.22,1.17-0.94,0.99-1.71c-0.18-0.76,0.99,0.31-0.54-1.17c-1.53-1.48-1.3-3.91-1.3-3.91
		l1.35-2.74l1.66-1.39c0,0,2.47-2.65,2.24-4c-0.22-1.35,0.76-3.68-1.71-3.68c-2.47,0,0.04,0.31-2.47,0
		c-2.51-0.31-1.75-0.49-1.75-1.71s0.72-3.01,0.72-4.17s0.36-2.24,0.09-2.47c-0.27-0.22,0.36-1.53,1.48-1.66
		c1.12-0.13,2.6-1.75,2.65-2.38c0.04-0.63-0.72-0.4,0.18-1.84c0.9-1.44,1.21-1.48,1.17-1.71s-1.48-0.22-0.04-1.26
		c1.44-1.03,2.15-1.62,2.15-1.62s1.08-1.93-0.63-3.64c-1.71-1.71-2.38-3.32-2.38-3.77c0-0.45-1.3-2.56-0.85-3.95
		s-0.31-2.47-0.31-3.23c0-0.76-1.12-2.65,1.84-5.21c2.96-2.56,4.67-4.4,4.67-4.4l1.53-1.39c0,0,0.58-0.99,0.45-1.21
		c-0.13-0.22-0.49-1.3-0.49-1.3l0.67-1.57l1.39-0.18l1.08-0.72l2.02,0.36c0,0,2.15,0.18,2.2-1.53c0.04-1.71,0.85-2.11,1.12-2.69
		c0.27-0.58,1.62-1.75,1.62-1.75l0.9-4l-0.27-2.02l0.36-3.46l2.11,0.54l2.38,0.18l1.98-0.36l1.98-0.72l0.9-0.58l0.22,3.95l2.47,4.26
		l0.94,1.75v2.15l4.76-2.74l2.78-0.45l1.39,0.49l2.6,1.89l1.35,0.76l1.53,1.21l0.63,1.12l2.87-0.45l2.87,1.12l0.85,1.71l1.89,1.53
		l1.21,1.48l7.63,2.65l2.56,0.31l1.53,0.94l0.13-1.03l-0.31-1.98l1.03-1.08l-0.09-2.06l1.35-0.81l2.29-2.15c0,0,0.72-1.84,2.38-0.13
		c1.66,1.71,2.96,4.44,2.96,4.44l2.02,1.08l0.31,1.57l1.44,2.56l1.62,0.85l2.51-0.27l0.58-1.21l1.78-2.98l0.31-2.74l0.59-1.92
		l1.62,2.07l1.77,1.7l0.89-0.3l0.37-1.4l-1.84-3.47l-0.59-2.51l2.95-1.99l4.57,4.79l2.51-2.36l8.56,4.87l0.15-6.79l1.33-1.33
		l1.55,1.99l1.4,1.25h1.11l0.22,2.95l0.07,2.21h2.43l1.48,0.15c-1.11,2.51-0.66,3.69-3.47,3.69c-2.8,0-3.02,2.43-3.02,2.43
		l-1.77,1.48v1.48l0.74,1.99l0.81,2.58l1.62,0.81l2.66,0.96l1.84,1.77l2.36,0.15l1.4,2.29l-0.37,3.39l-2.58,2.58l-2.14,1.48
		l-0.07,2.43l-0.3,2.07c0,0,0-0.22-3.17,1.77c-3.17,1.99-2.14,2.43-2.14,2.43l-0.81,0.96l-0.44,1.18l0.81,1.4v1.48l-0.81,1.18
		l-2.29,1.03l-1.62,0.07l-2.51,0.22l-1.77,1.33l0.81,2.36l1.11,1.33l1.92,1.77l1.62,0.81l2.36,0.44l1.18,1.92l-1.7,1.48l0.89,2.66
		h1.11l2.21,0.44l0.74,1.48v1.03v3.47l-3.25,3.61l-0.3,3.25l-0.81,1.4l-0.74,1.92l-1.99,1.7l-2.07,1.99l-1.92,0.59l-0.66,2.73
		l-0.22,3.02l-0.89,1.48l-2.29,1.03l-2.58,2.58l-2.88,1.62l-0.96,1.92l-1.4,1.84l-3.47,4.06l-1.7,3.1l-0.74,3.1l-2.29,2.73
		l-1.7,1.25l-1.4,2.66l-2.36,3.91l-1.11,1.99v2.36l0.52,1.99l1.11,2.73v1.48v1.4v2.07l-1.55,0.66l-1.33,2.29l0.89,5.16l-1.33,2.58
		l-0.66,2.07l-1.03,2.8l-1.03,1.4l-1.92,1.84l-3.54,0.3l-4.72-1.18l-1.7-0.15l-0.37,1.4l-0.74,1.77l0.22,1.33l1.25,0.44l0.52,1.25
		l-0.89,2.36v1.18l-0.15,1.03v0.89l-7.97,0.3l-6.86-0.3l-1.77,1.99l-1.11-0.44l-1.18,0.15l-0.81,1.18l-1.92-0.52l-0.44-0.89v-2.14
		l-1.11-0.89l-1.03-1.62l-0.44-0.74c0,0-1.62-0.52-2.88,0.37c-1.25,0.89-2.88-0.44-2.88-0.44l-2.14-0.15l-3.61-0.15l-0.89-1.11
		l-1.77-1.77l-2.21-0.3l-2.73-0.44l-2.14-0.74l-2.07,0.59l-0.59,0.59l-1.7,0.15l-1.62-1.99h-2.21l-0.15,1.7l-3.1-1.48l-2.07-0.22
		L393.9,316l-1.11,2.14l2.29,2.66l-1.48,2.07l-0.59,0.07l1.25,2.51l0.44,2.51l-2.07,1.03l-1.25,2.8l-0.44,2.51l-1.99,0.89
		l-1.62-1.11l-1.03-1.33l-1.92,0.22l-1.7,2.14l-2.21,1.84l-1.33,0.66l0.07,3.76l-0.22,2.43v3.1l-0.96,3.61l-2.36,1.55l-1.33,3.32
		l-0.59,3.17l-1.62,0.15l-0.81,1.99l0.66,2.29l-0.15,2.58l1.62,1.18l-0.81,0.96l-3.02-1.25l-3.02,1.33l-2.51-0.52l-1.55-0.37
		l-1.7-2.14l0.81-1.99l2.14-3.84c0,0-1.84-1.11-3.1-1.11c-1.25,0-1.33,0.74-1.62,0.74s-1.77,0.59-1.77,0.59h-1.48l-1.11-0.44
		l-0.15-2.43l-0.3-2.07l-1.48-1.55l0.15-3.17l-0.37-1.77l-1.03-1.03l-0.15-2.66l-2.21-0.52l-1.33,1.7l-2.58-0.07l-0.37-0.81
		l-1.18-1.25l-1.62,0.59h-1.7l-1.11-0.81L338.93,340.96z"/>
	<polyline class="st0" points="497.9,212.96 491.56,213.82 488.63,213.19 485.27,213.61 482.13,217.8 477.73,222.72 473.64,226.18 
		468.82,228.91 464.31,232.15 462.11,233.31 462.11,235.61 463.69,237.39 463.58,239.18 465.26,240.64 463.9,244.42 460.02,247.77 
		456.25,250.28 453.42,249.65 452.89,247.87 453,244.94 451.53,242.74 451.43,241.06 450.17,238.97 447.44,237.71 443.88,238.55 
		441.78,241.06 441.16,244 439.9,246.51 437.28,249.13 436.13,253.11 436.02,255.73 433.51,256.57 432.56,259.3 432.56,262.23 
		430.78,263.91 431.51,270.3 430.47,273.44 429.84,276.8 431.2,281.2 428.89,283.4 426.8,284.97 425.86,285.6 425.44,289.48 
		422.19,291.05 419.78,289.37 414.33,287.8 411.92,286.54 410.66,283.71 408.36,283.82 405.11,281.93 402.07,280.25 398.92,278.47 
		396.83,277.95 395.89,282.45 395.47,285.91 394.63,289.58 394.63,293.77 394.63,299.22 390.44,306.56 383.73,314.94 379.75,319.45 
		378.91,322.59 374.09,321.75 364.24,330.55 362.77,332.96 362.35,334.85 361.09,337.68 358.79,340.09 356.48,342.5 356.38,345.64 
		357.11,348.58 355.85,351.09 354.28,351.62 352.82,352.65 	"/>
	<polyline class="st0" points="397.04,315.25 395.89,311.8 394.94,310.02 392.43,308.86 390.02,308.34 388.86,308.13 	"/>
	<polyline class="st0" points="394.1,286.96 392.01,286.86 389.7,286.65 387.71,284.03 384.04,284.55 382.16,284.13 379.75,283.5 
		377.76,282.77 373.98,282.77 370.84,282.38 	"/>
	<polyline class="st0" points="396.83,277.95 399.24,274.81 402.28,273.23 403.22,270.82 406.68,267.36 409.72,264.64 
		412.44,260.03 415.17,256.05 419.57,250.81 423.86,250.07 427.32,245.57 429.1,243.89 433.09,243.26 434.45,244.31 436.75,246.93 
		438.85,248.4 442.1,249.65 445.56,252.27 447.86,253.11 448.49,253.74 448.81,255.94 449.75,258.56 449.75,260.97 451.95,262.33 
		456.25,262.23 461.28,265.79 464.73,267.99 467.46,271.45 469.45,273.44 473.22,275.54 474.06,277.74 473.75,279.42 	"/>
	<path class="st0" d="M492.92,253.22l-8.74-5.9l1.42-3.31l2.01-2.83l-1.77-4.01l-3.19-3.66l-1.18-3.78l-0.83-4.37l-2.91-2.63
		l-11.49-8.82l-2.01,0.94l-5.08,2.48l-0.71-3.42l-2.72,0.71l-3.19,1.3l-3.42-1.65l-4.84,0.47l-5.08-0.71l-3.19-2.72l-4.37,1.77
		l-2.83-0.59l-4.25-0.47l-1.3,1.3c0,0-4.13,0.12-0.94-4.49c3.19-4.6,2.36-4.13,2.36-4.13v-2.72l2.24-4.61l1.54-2.72l1.54-3.31
		l2.01-5.43l1.06-4.13l-0.47-1.65l-0.12-3.9v-2.13l-3.54-1.54l-4.13-1.65l-4.01-1.3l-3.31,0.59l-1.65,0.12l-0.71-1.42l0.59-2.13
		l0.47-3.07l-1.89-2.13l-1.3-1.18l-1.65-1.18"/>
	<polyline class="st0" points="466.24,213.9 467.3,213.55 468.36,212.96 470.37,210.24 470.13,208 468.01,206.23 468.13,203.98 
		468.72,201.74 468.95,198.32 467.65,195.6 469.54,192.88 474.38,189.34 475.45,186.04 477.34,182.14 478.4,179.19 478.28,175.41 
		480.91,171.78 	"/>
	<polyline class="st0" points="430.56,320.79 432.22,318.75 432.22,316.39 433.51,314.89 433.08,312.53 434.8,310.38 436.94,308.66 
		438.66,306.94 438.02,304.37 440.16,298.35 440.81,294.49 442.74,291.27 442.1,287.83 443.17,282.68 438.88,282.04 437.37,280.1 
		434.8,277.96 432.65,276.03 430.47,273.44 	"/>
	<path class="st0" d="M416.87,254.11l-0.84-2.62l0.34-2.28l-1.44-0.93l-3.38-2.36l-1.27-2.79l-3.63-0.34l-3.12-1.77l-1.69-2.45
		l0.17-3.12c0,0,3.72-2.45-3.72-1.77l-2.45-1.18l-3.04-0.84"/>
</g>
<g>
	<path class="st1" d="M412.23,226.27h1.98v0.74h-3v-0.68l1.97-2.98h-1.97v-0.74h3v0.68L412.23,226.27z"/>
	<path class="st1" d="M415.03,222.95c-0.1-0.1-0.15-0.22-0.15-0.37s0.05-0.27,0.15-0.37c0.1-0.1,0.23-0.15,0.39-0.15
		c0.16,0,0.29,0.05,0.39,0.15c0.1,0.1,0.15,0.22,0.15,0.37s-0.05,0.27-0.15,0.37c-0.1,0.1-0.23,0.15-0.39,0.15
		C415.26,223.1,415.13,223.05,415.03,222.95z M415.85,223.52v3.5h-0.88v-3.5H415.85z"/>
	<path class="st1" d="M418.08,223.62c0.2-0.11,0.43-0.16,0.68-0.16c0.3,0,0.57,0.07,0.81,0.22s0.43,0.36,0.57,0.63
		c0.14,0.27,0.21,0.59,0.21,0.94c0,0.36-0.07,0.67-0.21,0.95c-0.14,0.28-0.33,0.49-0.57,0.64c-0.24,0.15-0.51,0.23-0.81,0.23
		c-0.26,0-0.48-0.05-0.68-0.16c-0.2-0.1-0.35-0.24-0.48-0.4v2.17h-0.88v-5.16h0.88v0.51C417.72,223.86,417.88,223.73,418.08,223.62z
		 M419.33,224.71c-0.09-0.15-0.2-0.27-0.34-0.35c-0.14-0.08-0.29-0.12-0.46-0.12c-0.16,0-0.31,0.04-0.45,0.12
		c-0.14,0.08-0.25,0.2-0.34,0.36c-0.09,0.16-0.13,0.34-0.13,0.55c0,0.21,0.04,0.39,0.13,0.55c0.09,0.16,0.2,0.27,0.34,0.36
		c0.14,0.08,0.29,0.12,0.45,0.12c0.16,0,0.32-0.04,0.46-0.13c0.14-0.08,0.25-0.2,0.34-0.36c0.09-0.16,0.13-0.34,0.13-0.56
		C419.46,225.04,419.41,224.86,419.33,224.71z"/>
	<path class="st1" d="M420.99,224.31c0.14-0.27,0.33-0.48,0.57-0.63s0.51-0.22,0.81-0.22c0.26,0,0.49,0.05,0.69,0.16
		s0.35,0.24,0.47,0.4v-0.5h0.89v3.5h-0.89v-0.51c-0.11,0.16-0.27,0.3-0.47,0.41c-0.2,0.11-0.43,0.16-0.69,0.16
		c-0.29,0-0.56-0.08-0.81-0.23c-0.24-0.15-0.43-0.36-0.57-0.64c-0.14-0.28-0.21-0.59-0.21-0.95
		C420.77,224.9,420.85,224.59,420.99,224.31z M423.4,224.71c-0.08-0.15-0.2-0.27-0.34-0.35c-0.14-0.08-0.3-0.12-0.46-0.12
		c-0.16,0-0.32,0.04-0.45,0.12c-0.14,0.08-0.25,0.2-0.34,0.35c-0.09,0.15-0.13,0.34-0.13,0.55c0,0.21,0.04,0.39,0.13,0.55
		c0.09,0.16,0.2,0.28,0.34,0.36c0.14,0.08,0.29,0.13,0.45,0.13c0.16,0,0.32-0.04,0.46-0.12c0.14-0.08,0.26-0.2,0.34-0.35
		c0.08-0.15,0.13-0.34,0.13-0.55C423.53,225.05,423.48,224.87,423.4,224.71z"/>
	<path class="st1" d="M425.27,224.33c0.15-0.27,0.34-0.48,0.59-0.63c0.25-0.15,0.52-0.23,0.82-0.23c0.25,0,0.47,0.05,0.66,0.14
		c0.19,0.09,0.35,0.22,0.46,0.36v-0.45h0.89v5.16h-0.89v-2.15c-0.12,0.15-0.28,0.28-0.47,0.38c-0.2,0.1-0.42,0.15-0.67,0.15
		c-0.29,0-0.57-0.08-0.81-0.23c-0.25-0.15-0.44-0.37-0.58-0.64c-0.14-0.27-0.21-0.59-0.21-0.93
		C425.05,224.91,425.13,224.6,425.27,224.33z M427.67,224.71c-0.09-0.16-0.2-0.27-0.34-0.35c-0.14-0.08-0.29-0.12-0.45-0.12
		c-0.16,0-0.3,0.04-0.45,0.12c-0.14,0.08-0.26,0.2-0.34,0.35c-0.09,0.15-0.13,0.34-0.13,0.55c0,0.21,0.04,0.4,0.13,0.56
		c0.09,0.16,0.2,0.28,0.34,0.36c0.14,0.08,0.29,0.12,0.45,0.12c0.16,0,0.31-0.04,0.45-0.12c0.14-0.08,0.26-0.2,0.34-0.35
		c0.09-0.16,0.13-0.34,0.13-0.56C427.81,225.05,427.76,224.87,427.67,224.71z"/>
	<path class="st1" d="M432.86,223.52v3.5h-0.89v-0.44c-0.11,0.15-0.26,0.27-0.44,0.36c-0.18,0.09-0.38,0.13-0.6,0.13
		c-0.27,0-0.52-0.06-0.73-0.17c-0.21-0.12-0.38-0.29-0.5-0.51c-0.12-0.23-0.18-0.49-0.18-0.81v-2.05h0.88v1.93
		c0,0.28,0.07,0.49,0.21,0.64c0.14,0.15,0.33,0.22,0.57,0.22c0.24,0,0.44-0.08,0.57-0.22c0.14-0.15,0.21-0.36,0.21-0.64v-1.93
		H432.86z"/>
	<path class="st1" d="M433.79,222.95c-0.1-0.1-0.15-0.22-0.15-0.37s0.05-0.27,0.15-0.37c0.1-0.1,0.23-0.15,0.39-0.15
		c0.16,0,0.29,0.05,0.39,0.15c0.1,0.1,0.15,0.22,0.15,0.37s-0.05,0.27-0.15,0.37c-0.1,0.1-0.23,0.15-0.39,0.15
		C434.03,223.1,433.9,223.05,433.79,222.95z M434.62,223.52v3.5h-0.88v-3.5H434.62z"/>
	<path class="st1" d="M436.82,223.62c0.18-0.1,0.39-0.16,0.63-0.16v0.93h-0.23c-0.28,0-0.49,0.07-0.63,0.2
		c-0.14,0.13-0.21,0.36-0.21,0.68v1.74h-0.88v-3.5h0.88v0.54C436.49,223.87,436.63,223.73,436.82,223.62z"/>
	<path class="st1" d="M438.02,224.31c0.14-0.27,0.33-0.48,0.57-0.63s0.51-0.22,0.81-0.22c0.26,0,0.49,0.05,0.69,0.16
		s0.35,0.24,0.47,0.4v-0.5h0.89v3.5h-0.89v-0.51c-0.11,0.16-0.27,0.3-0.47,0.41c-0.2,0.11-0.43,0.16-0.69,0.16
		c-0.29,0-0.56-0.08-0.81-0.23c-0.24-0.15-0.43-0.36-0.57-0.64c-0.14-0.28-0.21-0.59-0.21-0.95
		C437.81,224.9,437.88,224.59,438.02,224.31z M440.44,224.71c-0.08-0.15-0.2-0.27-0.34-0.35c-0.14-0.08-0.3-0.12-0.46-0.12
		c-0.16,0-0.32,0.04-0.45,0.12c-0.14,0.08-0.25,0.2-0.34,0.35c-0.09,0.15-0.13,0.34-0.13,0.55c0,0.21,0.04,0.39,0.13,0.55
		c0.09,0.16,0.2,0.28,0.34,0.36c0.14,0.08,0.29,0.13,0.45,0.13c0.16,0,0.32-0.04,0.46-0.12c0.14-0.08,0.26-0.2,0.34-0.35
		c0.08-0.15,0.13-0.34,0.13-0.55C440.56,225.05,440.52,224.87,440.44,224.71z M440.44,222.61l-1.45,0.66v-0.63l1.45-0.75V222.61z"/>
</g>
<g>
	<path class="st1" d="M434.68,188.51c0.2-0.34,0.46-0.61,0.8-0.8c0.34-0.19,0.72-0.29,1.14-0.29c0.49,0,0.92,0.13,1.29,0.38
		c0.37,0.25,0.63,0.6,0.78,1.05h-1.02c-0.1-0.21-0.24-0.37-0.43-0.47c-0.18-0.11-0.39-0.16-0.63-0.16c-0.26,0-0.49,0.06-0.69,0.18
		c-0.2,0.12-0.36,0.29-0.47,0.51c-0.11,0.22-0.17,0.48-0.17,0.77c0,0.29,0.06,0.55,0.17,0.77c0.11,0.22,0.27,0.39,0.47,0.51
		c0.2,0.12,0.43,0.18,0.69,0.18c0.24,0,0.45-0.05,0.63-0.16c0.18-0.11,0.33-0.27,0.43-0.48h1.02c-0.15,0.45-0.4,0.8-0.77,1.05
		c-0.37,0.25-0.8,0.38-1.3,0.38c-0.42,0-0.8-0.1-1.14-0.29c-0.34-0.19-0.61-0.46-0.8-0.8c-0.2-0.34-0.29-0.73-0.29-1.16
		C434.38,189.24,434.48,188.86,434.68,188.51z"/>
	<path class="st1" d="M440.09,191.72c-0.27-0.15-0.48-0.36-0.63-0.63c-0.15-0.27-0.23-0.59-0.23-0.95c0-0.36,0.08-0.67,0.24-0.95
		c0.16-0.27,0.37-0.48,0.65-0.63c0.27-0.15,0.58-0.22,0.92-0.22c0.34,0,0.64,0.07,0.92,0.22c0.27,0.15,0.49,0.36,0.65,0.63
		c0.16,0.27,0.24,0.59,0.24,0.95c0,0.36-0.08,0.67-0.24,0.95c-0.16,0.27-0.38,0.49-0.66,0.63c-0.28,0.15-0.58,0.22-0.92,0.22
		C440.66,191.94,440.36,191.87,440.09,191.72z M441.45,191.06c0.14-0.08,0.25-0.19,0.34-0.35c0.08-0.16,0.13-0.34,0.13-0.57
		c0-0.33-0.09-0.59-0.26-0.77c-0.18-0.18-0.39-0.27-0.64-0.27c-0.25,0-0.46,0.09-0.63,0.27c-0.17,0.18-0.26,0.43-0.26,0.77
		c0,0.33,0.08,0.59,0.25,0.77c0.17,0.18,0.38,0.27,0.63,0.27C441.16,191.17,441.31,191.13,441.45,191.06z"/>
	<path class="st1" d="M445.53,188.49c0.2,0.1,0.35,0.24,0.47,0.4v-0.5h0.89v3.52c0,0.32-0.07,0.61-0.2,0.87
		c-0.13,0.25-0.33,0.46-0.59,0.61c-0.26,0.15-0.58,0.22-0.95,0.22c-0.5,0-0.9-0.12-1.22-0.35c-0.32-0.23-0.5-0.55-0.54-0.95h0.88
		c0.05,0.16,0.15,0.29,0.3,0.38c0.15,0.09,0.34,0.14,0.56,0.14c0.26,0,0.46-0.08,0.62-0.23c0.16-0.15,0.24-0.39,0.24-0.7v-0.54
		c-0.11,0.16-0.27,0.3-0.47,0.41c-0.2,0.11-0.43,0.16-0.69,0.16c-0.29,0-0.56-0.08-0.81-0.23c-0.24-0.15-0.44-0.36-0.58-0.64
		c-0.14-0.28-0.21-0.59-0.21-0.95c0-0.35,0.07-0.67,0.21-0.94c0.14-0.27,0.33-0.48,0.57-0.63c0.24-0.15,0.51-0.22,0.81-0.22
		C445.1,188.33,445.33,188.38,445.53,188.49z M445.87,189.59c-0.08-0.15-0.2-0.27-0.34-0.35c-0.14-0.08-0.3-0.12-0.46-0.12
		c-0.16,0-0.32,0.04-0.45,0.12c-0.14,0.08-0.25,0.2-0.34,0.35c-0.09,0.15-0.13,0.34-0.13,0.55c0,0.21,0.04,0.39,0.13,0.55
		c0.09,0.16,0.2,0.28,0.34,0.36c0.14,0.08,0.29,0.13,0.45,0.13c0.16,0,0.32-0.04,0.46-0.12c0.14-0.08,0.26-0.2,0.34-0.35
		c0.08-0.15,0.13-0.34,0.13-0.55C446,189.92,445.96,189.74,445.87,189.59z"/>
	<path class="st1" d="M451.05,188.39v3.5h-0.89v-0.44c-0.11,0.15-0.26,0.27-0.44,0.36c-0.18,0.09-0.38,0.13-0.6,0.13
		c-0.27,0-0.52-0.06-0.73-0.17c-0.21-0.12-0.38-0.29-0.5-0.51c-0.12-0.23-0.18-0.49-0.18-0.81v-2.05h0.88v1.93
		c0,0.28,0.07,0.49,0.21,0.64c0.14,0.15,0.33,0.22,0.57,0.22c0.24,0,0.44-0.08,0.57-0.22c0.14-0.15,0.21-0.36,0.21-0.64v-1.93
		H451.05z"/>
	<path class="st1" d="M451.91,189.18c0.14-0.27,0.33-0.48,0.57-0.63c0.24-0.15,0.51-0.22,0.81-0.22c0.26,0,0.49,0.05,0.69,0.16
		c0.2,0.11,0.35,0.24,0.47,0.4v-0.5h0.89v3.5h-0.89v-0.51c-0.11,0.16-0.27,0.3-0.47,0.41c-0.2,0.11-0.43,0.16-0.69,0.16
		c-0.29,0-0.56-0.08-0.81-0.23s-0.43-0.36-0.57-0.64c-0.14-0.28-0.21-0.59-0.21-0.95C451.7,189.77,451.77,189.46,451.91,189.18z
		 M454.32,189.59c-0.08-0.15-0.2-0.27-0.34-0.35c-0.14-0.08-0.3-0.12-0.46-0.12c-0.16,0-0.32,0.04-0.45,0.12
		c-0.14,0.08-0.25,0.2-0.34,0.35c-0.09,0.15-0.13,0.34-0.13,0.55c0,0.21,0.04,0.39,0.13,0.55c0.09,0.16,0.2,0.28,0.34,0.36
		c0.14,0.08,0.29,0.13,0.45,0.13c0.16,0,0.32-0.04,0.46-0.12c0.14-0.08,0.26-0.2,0.34-0.35c0.08-0.15,0.13-0.34,0.13-0.55
		C454.45,189.92,454.41,189.74,454.32,189.59z"/>
</g>
<g>
	<path class="st1" d="M478.97,196.45h-0.88l-2-3.02v3.02h-0.88v-4.41h0.88l2,3.03v-3.03h0.88V196.45z"/>
	<path class="st1" d="M483.06,194.96h-2.56c0.02,0.25,0.11,0.45,0.27,0.59c0.16,0.14,0.35,0.21,0.57,0.21c0.33,0,0.56-0.14,0.7-0.42
		H483c-0.1,0.34-0.29,0.61-0.58,0.83c-0.29,0.22-0.64,0.33-1.05,0.33c-0.34,0-0.64-0.08-0.91-0.22c-0.27-0.15-0.48-0.36-0.62-0.63
		c-0.15-0.27-0.22-0.59-0.22-0.95c0-0.36,0.07-0.68,0.22-0.95c0.15-0.27,0.35-0.48,0.62-0.63c0.27-0.15,0.57-0.22,0.92-0.22
		c0.33,0,0.63,0.07,0.89,0.21c0.26,0.14,0.47,0.35,0.61,0.61c0.15,0.26,0.22,0.57,0.22,0.91
		C483.09,194.75,483.08,194.86,483.06,194.96z M482.17,194.37c0-0.23-0.09-0.41-0.25-0.55c-0.16-0.14-0.36-0.2-0.59-0.2
		c-0.22,0-0.4,0.07-0.55,0.2c-0.15,0.13-0.24,0.32-0.27,0.55H482.17z"/>
	<path class="st1" d="M489.12,193.29c0.26,0.26,0.39,0.63,0.39,1.1v2.05h-0.88v-1.93c0-0.27-0.07-0.48-0.21-0.63
		c-0.14-0.14-0.33-0.22-0.57-0.22c-0.24,0-0.43,0.07-0.57,0.22c-0.14,0.15-0.21,0.35-0.21,0.63v1.93h-0.88v-1.93
		c0-0.27-0.07-0.48-0.21-0.63c-0.14-0.14-0.33-0.22-0.57-0.22c-0.24,0-0.44,0.07-0.58,0.22c-0.14,0.15-0.21,0.35-0.21,0.63v1.93
		h-0.88v-3.5h0.88v0.42c0.11-0.15,0.26-0.26,0.44-0.35c0.18-0.08,0.38-0.13,0.59-0.13c0.27,0,0.52,0.06,0.73,0.17
		c0.21,0.12,0.38,0.28,0.5,0.5c0.11-0.2,0.28-0.36,0.5-0.49c0.22-0.12,0.45-0.18,0.7-0.18C488.51,192.9,488.85,193.03,489.12,193.29
		z"/>
	<path class="st1" d="M490.99,196.28c-0.27-0.15-0.48-0.36-0.63-0.63c-0.15-0.27-0.23-0.59-0.23-0.95c0-0.36,0.08-0.67,0.24-0.95
		c0.16-0.27,0.37-0.48,0.65-0.63c0.27-0.15,0.58-0.22,0.92-0.22c0.34,0,0.64,0.07,0.92,0.22c0.27,0.15,0.49,0.36,0.65,0.63
		c0.16,0.27,0.24,0.59,0.24,0.95c0,0.36-0.08,0.67-0.24,0.95c-0.16,0.27-0.38,0.49-0.66,0.63c-0.28,0.15-0.58,0.22-0.92,0.22
		C491.57,196.51,491.26,196.43,490.99,196.28z M492.35,195.62c0.14-0.08,0.25-0.19,0.34-0.35c0.08-0.16,0.13-0.34,0.13-0.57
		c0-0.33-0.09-0.59-0.26-0.77c-0.18-0.18-0.39-0.27-0.64-0.27c-0.25,0-0.46,0.09-0.63,0.27c-0.17,0.18-0.26,0.43-0.26,0.77
		c0,0.33,0.08,0.59,0.25,0.77c0.17,0.18,0.38,0.27,0.63,0.27C492.06,195.73,492.21,195.7,492.35,195.62z"/>
	<path class="st1" d="M494.37,193.75c0.15-0.27,0.35-0.48,0.61-0.63c0.26-0.15,0.56-0.22,0.9-0.22c0.43,0,0.79,0.11,1.08,0.33
		c0.28,0.22,0.47,0.52,0.57,0.91h-0.95c-0.05-0.15-0.14-0.27-0.26-0.36c-0.12-0.09-0.27-0.13-0.44-0.13c-0.25,0-0.45,0.09-0.6,0.27
		c-0.15,0.18-0.22,0.44-0.22,0.78c0,0.33,0.07,0.59,0.22,0.77c0.15,0.18,0.35,0.27,0.6,0.27c0.36,0,0.59-0.16,0.7-0.48h0.95
		c-0.1,0.38-0.29,0.68-0.57,0.9c-0.29,0.22-0.64,0.33-1.07,0.33c-0.34,0-0.64-0.08-0.9-0.22c-0.26-0.15-0.47-0.36-0.61-0.63
		c-0.15-0.27-0.22-0.59-0.22-0.95C494.15,194.34,494.22,194.02,494.37,193.75z"/>
	<path class="st1" d="M498.82,196.28c-0.27-0.15-0.48-0.36-0.63-0.63c-0.15-0.27-0.23-0.59-0.23-0.95c0-0.36,0.08-0.67,0.24-0.95
		c0.16-0.27,0.37-0.48,0.65-0.63c0.27-0.15,0.58-0.22,0.92-0.22c0.34,0,0.64,0.07,0.92,0.22c0.27,0.15,0.49,0.36,0.65,0.63
		c0.16,0.27,0.24,0.59,0.24,0.95c0,0.36-0.08,0.67-0.24,0.95c-0.16,0.27-0.38,0.49-0.66,0.63c-0.28,0.15-0.58,0.22-0.92,0.22
		C499.39,196.51,499.09,196.43,498.82,196.28z M500.18,195.62c0.14-0.08,0.25-0.19,0.34-0.35c0.08-0.16,0.13-0.34,0.13-0.57
		c0-0.33-0.09-0.59-0.26-0.77c-0.18-0.18-0.39-0.27-0.64-0.27c-0.25,0-0.46,0.09-0.63,0.27c-0.17,0.18-0.26,0.43-0.26,0.77
		c0,0.33,0.08,0.59,0.25,0.77c0.17,0.18,0.38,0.27,0.63,0.27C499.89,195.73,500.04,195.7,500.18,195.62z M500.48,192l-1.45,0.66
		v-0.63l1.45-0.75V192z"/>
	<path class="st1" d="M505.15,193.29c0.26,0.26,0.39,0.63,0.39,1.1v2.05h-0.88v-1.93c0-0.28-0.07-0.49-0.21-0.64
		c-0.14-0.15-0.33-0.22-0.57-0.22c-0.24,0-0.44,0.08-0.58,0.22c-0.14,0.15-0.21,0.36-0.21,0.64v1.93h-0.88v-3.5h0.88v0.44
		c0.12-0.15,0.27-0.27,0.45-0.36c0.18-0.09,0.38-0.13,0.6-0.13C504.56,192.9,504.9,193.03,505.15,193.29z"/>
</g>
<g>
	<path class="st1" d="M491.14,242.06c-0.14,0.04-0.25,0.11-0.34,0.22c-0.09,0.1-0.15,0.24-0.19,0.39c-0.04,0.18-0.03,0.34,0.02,0.49
		c0.05,0.15,0.14,0.28,0.27,0.39c0.13,0.11,0.29,0.18,0.48,0.23c0.2,0.04,0.38,0.04,0.54,0c0.16-0.05,0.3-0.13,0.41-0.25
		c0.11-0.12,0.18-0.27,0.22-0.46c0.05-0.23,0.03-0.42-0.06-0.59s-0.24-0.3-0.44-0.39l-0.22,1.02l-0.45-0.1l0.35-1.6l0.52,0.11
		c0.2,0.08,0.37,0.21,0.52,0.38c0.15,0.17,0.25,0.37,0.31,0.59s0.06,0.47,0.01,0.72c-0.06,0.29-0.18,0.53-0.36,0.73
		c-0.18,0.2-0.4,0.34-0.65,0.43c-0.26,0.08-0.53,0.09-0.82,0.03c-0.29-0.06-0.54-0.19-0.74-0.37c-0.2-0.18-0.34-0.4-0.42-0.66
		c-0.08-0.26-0.09-0.53-0.02-0.81c0.07-0.33,0.22-0.6,0.43-0.82c0.22-0.21,0.48-0.33,0.79-0.36L491.14,242.06z"/>
	<path class="st1" d="M491.65,240.93c-0.16-0.13-0.28-0.29-0.34-0.48c-0.06-0.18-0.07-0.38-0.03-0.58c0.04-0.18,0.11-0.32,0.21-0.44
		c0.1-0.12,0.21-0.2,0.34-0.26l-0.33-0.07l0.13-0.6l2.35,0.51l-0.13,0.6l-0.34-0.07c0.09,0.1,0.16,0.23,0.2,0.38
		c0.04,0.15,0.05,0.31,0.01,0.49c-0.04,0.2-0.13,0.37-0.27,0.51c-0.14,0.14-0.31,0.24-0.51,0.29c-0.21,0.05-0.43,0.05-0.67,0
		C492.02,241.16,491.82,241.07,491.65,240.93z M492.28,239.37c-0.12,0.03-0.21,0.09-0.29,0.18c-0.08,0.08-0.13,0.18-0.15,0.29
		c-0.02,0.11-0.02,0.22,0.01,0.32c0.03,0.1,0.1,0.2,0.19,0.28c0.09,0.08,0.21,0.14,0.35,0.17c0.14,0.03,0.27,0.03,0.39-0.01
		c0.12-0.03,0.22-0.09,0.29-0.18c0.08-0.08,0.13-0.18,0.15-0.28c0.02-0.11,0.02-0.22-0.01-0.33c-0.03-0.11-0.1-0.2-0.19-0.28
		c-0.09-0.08-0.21-0.13-0.35-0.17C492.52,239.34,492.39,239.34,492.28,239.37z"/>
	<path class="st1" d="M492.28,238.06c-0.16-0.14-0.27-0.31-0.33-0.5c-0.06-0.2-0.07-0.41-0.02-0.63c0.06-0.29,0.19-0.52,0.38-0.68
		c0.19-0.16,0.42-0.24,0.7-0.25l-0.14,0.64c-0.11,0.01-0.2,0.05-0.28,0.12c-0.08,0.07-0.13,0.16-0.15,0.28
		c-0.04,0.17,0,0.32,0.1,0.44c0.1,0.13,0.26,0.21,0.49,0.26c0.22,0.05,0.41,0.04,0.55-0.03c0.14-0.07,0.23-0.19,0.27-0.36
		c0.05-0.24-0.02-0.42-0.22-0.54l0.14-0.64c0.24,0.12,0.41,0.29,0.52,0.52c0.11,0.22,0.13,0.48,0.07,0.77
		c-0.05,0.23-0.14,0.42-0.28,0.57c-0.14,0.15-0.31,0.26-0.51,0.32c-0.2,0.06-0.43,0.06-0.67,0.01
		C492.65,238.29,492.44,238.19,492.28,238.06z"/>
	<path class="st1" d="M492.78,233.61c0.11-0.12,0.25-0.2,0.41-0.25c0.17-0.04,0.36-0.04,0.57,0l1.38,0.3l-0.13,0.59l-1.3-0.28
		c-0.19-0.04-0.34-0.03-0.46,0.05c-0.12,0.07-0.2,0.19-0.23,0.35c-0.04,0.16-0.01,0.3,0.07,0.42c0.08,0.12,0.21,0.2,0.4,0.24
		l1.3,0.28l-0.13,0.59l-3.14-0.68l0.13-0.59l1.08,0.24c-0.09-0.1-0.14-0.22-0.17-0.36s-0.03-0.29,0.01-0.44
		C492.6,233.88,492.67,233.73,492.78,233.61z"/>
	<path class="st1" d="M493.45,232.71c-0.16-0.13-0.28-0.29-0.34-0.48s-0.07-0.38-0.03-0.58c0.04-0.18,0.11-0.32,0.21-0.44
		c0.1-0.12,0.21-0.2,0.34-0.26l-0.33-0.07l0.13-0.6l2.35,0.51l-0.13,0.6l-0.34-0.07c0.09,0.1,0.16,0.23,0.2,0.38
		c0.04,0.15,0.05,0.31,0.01,0.49c-0.04,0.2-0.13,0.37-0.27,0.51c-0.14,0.14-0.31,0.24-0.51,0.29c-0.21,0.05-0.43,0.05-0.67,0
		C493.81,232.94,493.61,232.85,493.45,232.71z M494.07,231.15c-0.12,0.03-0.21,0.09-0.29,0.18c-0.08,0.08-0.13,0.18-0.15,0.29
		c-0.02,0.11-0.02,0.22,0.01,0.32c0.03,0.1,0.1,0.2,0.19,0.28c0.09,0.08,0.21,0.14,0.35,0.17c0.14,0.03,0.27,0.03,0.39-0.01
		c0.12-0.03,0.22-0.09,0.29-0.18c0.08-0.08,0.13-0.18,0.15-0.28c0.02-0.11,0.02-0.22-0.01-0.33c-0.03-0.11-0.1-0.2-0.19-0.28
		c-0.09-0.08-0.21-0.13-0.35-0.17C494.32,231.11,494.19,231.12,494.07,231.15z"/>
	<path class="st1" d="M494.21,227.78c0.21-0.13,0.48-0.17,0.8-0.1l1.38,0.3l-0.13,0.59l-1.3-0.28c-0.19-0.04-0.34-0.03-0.46,0.05
		c-0.12,0.07-0.2,0.19-0.23,0.35c-0.04,0.16-0.01,0.3,0.07,0.42c0.08,0.12,0.21,0.2,0.4,0.24l1.3,0.28l-0.13,0.59l-2.35-0.51
		l0.13-0.59l0.29,0.06c-0.08-0.1-0.14-0.22-0.17-0.36c-0.03-0.14-0.03-0.28,0-0.42C493.86,228.12,493.99,227.92,494.21,227.78z"/>
	<path class="st1" d="M496.13,226.78l0.23-1.05l0.49,0.11l-0.38,1.72l-0.48-0.1l-1.16-1.33l-0.22,1.02l-0.49-0.11l0.37-1.7l0.48,0.1
		L496.13,226.78z"/>
	<path class="st1" d="M494.23,224.74c-0.08,0.05-0.17,0.07-0.27,0.05c-0.1-0.02-0.17-0.07-0.23-0.16c-0.05-0.08-0.07-0.18-0.04-0.28
		c0.02-0.1,0.08-0.18,0.16-0.24c0.08-0.05,0.17-0.07,0.27-0.05c0.1,0.02,0.17,0.07,0.23,0.16c0.05,0.08,0.07,0.18,0.04,0.28
		C494.36,224.61,494.31,224.69,494.23,224.74z M494.73,224.27l2.35,0.51l-0.13,0.59l-2.35-0.51L494.73,224.27z"/>
	<path class="st1" d="M495.13,222.79c-0.04-0.15-0.05-0.31-0.01-0.48c0.04-0.2,0.13-0.37,0.27-0.51s0.3-0.24,0.51-0.29
		c0.2-0.05,0.42-0.06,0.66,0c0.24,0.05,0.44,0.15,0.61,0.28c0.16,0.13,0.28,0.29,0.35,0.48c0.07,0.18,0.08,0.38,0.03,0.58
		c-0.04,0.17-0.11,0.32-0.21,0.43c-0.1,0.12-0.21,0.2-0.34,0.26l1.45,0.32l-0.13,0.59l-3.47-0.76l0.13-0.59l0.34,0.07
		C495.24,223.07,495.17,222.94,495.13,222.79z M496.04,222.11c-0.12,0.04-0.21,0.09-0.29,0.18c-0.07,0.08-0.12,0.18-0.15,0.29
		c-0.02,0.11-0.02,0.21,0.02,0.32c0.03,0.11,0.1,0.2,0.19,0.28c0.09,0.08,0.21,0.14,0.35,0.17c0.14,0.03,0.27,0.03,0.39-0.01
		c0.12-0.04,0.21-0.09,0.29-0.18c0.08-0.08,0.13-0.18,0.15-0.28c0.02-0.11,0.02-0.22-0.02-0.33c-0.04-0.11-0.1-0.2-0.19-0.28
		c-0.09-0.08-0.21-0.14-0.35-0.17C496.28,222.08,496.15,222.08,496.04,222.11z"/>
	<path class="st1" d="M496.02,220.94c-0.16-0.13-0.28-0.29-0.34-0.48s-0.07-0.38-0.03-0.58c0.04-0.18,0.11-0.32,0.21-0.44
		c0.1-0.12,0.21-0.2,0.34-0.26l-0.33-0.07l0.13-0.6l2.35,0.51l-0.13,0.6l-0.34-0.07c0.09,0.1,0.16,0.23,0.2,0.38
		c0.04,0.15,0.05,0.31,0.01,0.49c-0.04,0.2-0.13,0.37-0.27,0.51c-0.14,0.14-0.31,0.24-0.51,0.29c-0.21,0.05-0.43,0.05-0.67,0
		C496.38,221.17,496.18,221.08,496.02,220.94z M496.64,219.38c-0.12,0.03-0.21,0.09-0.29,0.18c-0.08,0.08-0.13,0.18-0.15,0.29
		c-0.02,0.11-0.02,0.22,0.01,0.32c0.03,0.1,0.1,0.2,0.19,0.28c0.09,0.08,0.21,0.14,0.35,0.17c0.14,0.03,0.27,0.03,0.39-0.01
		c0.12-0.03,0.22-0.09,0.29-0.18c0.08-0.08,0.13-0.18,0.15-0.28c0.02-0.11,0.02-0.22-0.01-0.33c-0.03-0.11-0.1-0.2-0.19-0.28
		c-0.09-0.08-0.21-0.13-0.35-0.17C496.89,219.35,496.76,219.35,496.64,219.38z M495.23,219.07l0.23,1.07l-0.42-0.09l-0.29-1.08
		L495.23,219.07z"/>
</g>
<g>
	<path class="st1" d="M459.71,254.07v0.59h-0.98v3.07H458v-3.07h-0.98v-0.59H459.71z"/>
	<path class="st1" d="M460.78,257.6c-0.22-0.12-0.4-0.3-0.53-0.53c-0.13-0.23-0.19-0.49-0.19-0.79c0-0.3,0.07-0.56,0.2-0.79
		c0.13-0.23,0.31-0.4,0.54-0.53c0.23-0.12,0.48-0.19,0.76-0.19c0.28,0,0.53,0.06,0.76,0.19c0.23,0.12,0.41,0.3,0.54,0.53
		c0.13,0.23,0.2,0.49,0.2,0.79c0,0.3-0.07,0.56-0.2,0.79c-0.13,0.23-0.32,0.4-0.55,0.53c-0.23,0.12-0.49,0.19-0.77,0.19
		C461.25,257.78,461,257.72,460.78,257.6z M461.91,257.04c0.12-0.06,0.21-0.16,0.28-0.29c0.07-0.13,0.1-0.29,0.1-0.47
		c0-0.28-0.07-0.49-0.22-0.64c-0.15-0.15-0.32-0.22-0.53-0.22c-0.21,0-0.39,0.07-0.53,0.22c-0.14,0.15-0.21,0.36-0.21,0.64
		c0,0.28,0.07,0.49,0.21,0.64c0.14,0.15,0.31,0.22,0.52,0.22C461.67,257.14,461.79,257.11,461.91,257.04z"/>
	<path class="st1" d="M463.59,255.49c0.12-0.23,0.29-0.4,0.51-0.52c0.22-0.12,0.46-0.19,0.74-0.19c0.36,0,0.66,0.09,0.89,0.27
		c0.24,0.18,0.39,0.43,0.47,0.76h-0.79c-0.04-0.13-0.11-0.22-0.21-0.3c-0.1-0.07-0.22-0.11-0.37-0.11c-0.21,0-0.38,0.08-0.5,0.23
		c-0.12,0.15-0.18,0.37-0.18,0.65c0,0.28,0.06,0.49,0.18,0.64c0.12,0.15,0.29,0.23,0.5,0.23c0.3,0,0.49-0.13,0.58-0.4h0.79
		c-0.08,0.31-0.24,0.56-0.48,0.75c-0.24,0.19-0.53,0.28-0.89,0.28c-0.28,0-0.53-0.06-0.74-0.19c-0.22-0.12-0.39-0.3-0.51-0.52
		c-0.12-0.23-0.18-0.49-0.18-0.79C463.4,255.98,463.46,255.72,463.59,255.49z"/>
	<path class="st1" d="M466.73,255.49c0.12-0.23,0.28-0.4,0.48-0.52c0.2-0.12,0.43-0.18,0.67-0.18c0.22,0,0.41,0.04,0.57,0.13
		c0.16,0.09,0.29,0.2,0.39,0.33v-0.41h0.74v2.91h-0.74v-0.42c-0.09,0.14-0.22,0.25-0.39,0.34c-0.17,0.09-0.36,0.13-0.57,0.13
		c-0.24,0-0.47-0.06-0.67-0.19c-0.2-0.13-0.36-0.3-0.48-0.53c-0.12-0.23-0.18-0.49-0.18-0.79
		C466.56,255.98,466.62,255.72,466.73,255.49z M468.74,255.82c-0.07-0.13-0.16-0.23-0.28-0.29c-0.12-0.07-0.25-0.1-0.38-0.1
		c-0.14,0-0.26,0.03-0.38,0.1c-0.12,0.07-0.21,0.16-0.28,0.29c-0.07,0.13-0.11,0.28-0.11,0.45c0,0.17,0.04,0.33,0.11,0.46
		c0.07,0.13,0.17,0.23,0.28,0.3c0.12,0.07,0.24,0.1,0.38,0.1c0.14,0,0.26-0.03,0.38-0.1c0.12-0.07,0.21-0.17,0.28-0.29
		c0.07-0.13,0.1-0.28,0.1-0.46C468.84,256.1,468.81,255.95,468.74,255.82z"/>
	<path class="st1" d="M472.75,255.12c0.21,0.22,0.32,0.52,0.32,0.91v1.7h-0.73v-1.6c0-0.23-0.06-0.41-0.17-0.53
		s-0.27-0.19-0.47-0.19c-0.2,0-0.36,0.06-0.48,0.19c-0.12,0.12-0.18,0.3-0.18,0.53v1.6h-0.73v-2.91h0.73v0.36
		c0.1-0.13,0.22-0.22,0.38-0.3c0.15-0.07,0.32-0.11,0.5-0.11C472.26,254.79,472.54,254.9,472.75,255.12z"/>
	<path class="st1" d="M474.44,257.13h1.3v0.6h-2.13v-0.59l1.27-1.71h-1.26v-0.6h2.11v0.59L474.44,257.13z"/>
	<path class="st1" d="M476.35,254.36c-0.09-0.08-0.13-0.18-0.13-0.31s0.04-0.22,0.13-0.31c0.09-0.08,0.19-0.12,0.32-0.12
		c0.13,0,0.24,0.04,0.32,0.12c0.09,0.08,0.13,0.18,0.13,0.31s-0.04,0.22-0.13,0.31c-0.09,0.08-0.19,0.12-0.32,0.12
		C476.54,254.48,476.44,254.44,476.35,254.36z M477.04,254.83v2.91h-0.73v-2.91H477.04z"/>
	<path class="st1" d="M478.88,254.92c0.17-0.09,0.36-0.13,0.57-0.13c0.25,0,0.47,0.06,0.67,0.18c0.2,0.12,0.36,0.3,0.48,0.52
		c0.12,0.23,0.18,0.49,0.18,0.78c0,0.3-0.06,0.56-0.18,0.79c-0.12,0.23-0.28,0.41-0.48,0.53c-0.2,0.13-0.43,0.19-0.67,0.19
		c-0.21,0-0.4-0.04-0.56-0.13c-0.16-0.09-0.29-0.2-0.4-0.33v1.8h-0.73v-4.29h0.73v0.42C478.59,255.12,478.72,255,478.88,254.92z
		 M479.92,255.82c-0.07-0.13-0.17-0.22-0.28-0.29c-0.12-0.07-0.24-0.1-0.38-0.1c-0.13,0-0.26,0.03-0.37,0.1
		c-0.12,0.07-0.21,0.17-0.28,0.3c-0.07,0.13-0.11,0.28-0.11,0.46c0,0.17,0.04,0.33,0.11,0.46c0.07,0.13,0.17,0.23,0.28,0.3
		c0.12,0.07,0.24,0.1,0.37,0.1c0.14,0,0.26-0.04,0.38-0.1c0.12-0.07,0.21-0.17,0.28-0.3c0.07-0.13,0.11-0.28,0.11-0.46
		C480.03,256.1,479.99,255.95,479.92,255.82z"/>
	<path class="st1" d="M481.3,255.49c0.12-0.23,0.28-0.4,0.48-0.52c0.2-0.12,0.43-0.18,0.67-0.18c0.22,0,0.41,0.04,0.57,0.13
		c0.16,0.09,0.29,0.2,0.39,0.33v-0.41h0.74v2.91h-0.74v-0.42c-0.09,0.14-0.22,0.25-0.39,0.34c-0.17,0.09-0.36,0.13-0.57,0.13
		c-0.24,0-0.47-0.06-0.67-0.19c-0.2-0.13-0.36-0.3-0.48-0.53c-0.12-0.23-0.18-0.49-0.18-0.79
		C481.13,255.98,481.18,255.72,481.3,255.49z M483.31,255.82c-0.07-0.13-0.16-0.23-0.28-0.29c-0.12-0.07-0.25-0.1-0.38-0.1
		c-0.14,0-0.26,0.03-0.38,0.1c-0.12,0.07-0.21,0.16-0.28,0.29c-0.07,0.13-0.11,0.28-0.11,0.45c0,0.17,0.04,0.33,0.11,0.46
		c0.07,0.13,0.17,0.23,0.28,0.3c0.12,0.07,0.24,0.1,0.38,0.1c0.14,0,0.26-0.03,0.38-0.1c0.12-0.07,0.21-0.17,0.28-0.29
		c0.07-0.13,0.11-0.28,0.11-0.46C483.41,256.1,483.38,255.95,483.31,255.82z M483.31,254.07l-1.21,0.55v-0.52l1.21-0.62V254.07z"/>
</g>
<g>
	<path class="st1" d="M448.26,298.66c-0.25-0.11-0.44-0.26-0.58-0.45c-0.14-0.2-0.22-0.43-0.22-0.7h0.95
		c0.01,0.18,0.08,0.32,0.19,0.43c0.12,0.11,0.27,0.16,0.48,0.16c0.21,0,0.37-0.05,0.49-0.15c0.12-0.1,0.18-0.23,0.18-0.39
		c0-0.13-0.04-0.24-0.12-0.32c-0.08-0.08-0.18-0.15-0.3-0.2c-0.12-0.05-0.29-0.1-0.5-0.16c-0.29-0.08-0.52-0.17-0.7-0.25
		c-0.18-0.08-0.33-0.21-0.46-0.37c-0.13-0.17-0.19-0.39-0.19-0.67c0-0.26,0.07-0.49,0.2-0.68c0.13-0.19,0.31-0.34,0.55-0.44
		c0.24-0.1,0.51-0.15,0.81-0.15c0.45,0,0.82,0.11,1.11,0.33c0.28,0.22,0.44,0.53,0.47,0.92h-0.97c-0.01-0.15-0.07-0.28-0.19-0.38
		c-0.12-0.1-0.28-0.15-0.48-0.15c-0.17,0-0.31,0.04-0.41,0.13c-0.1,0.09-0.15,0.22-0.15,0.38c0,0.12,0.04,0.22,0.12,0.29
		c0.08,0.08,0.17,0.14,0.29,0.19c0.12,0.05,0.28,0.1,0.49,0.17c0.29,0.08,0.52,0.17,0.7,0.25c0.18,0.08,0.34,0.21,0.47,0.38
		c0.13,0.17,0.2,0.39,0.2,0.66c0,0.24-0.06,0.45-0.18,0.66c-0.12,0.2-0.3,0.36-0.54,0.48c-0.24,0.12-0.52,0.18-0.84,0.18
		C448.78,298.82,448.51,298.77,448.26,298.66z"/>
	<path class="st1" d="M452.06,298.61c-0.27-0.15-0.48-0.36-0.63-0.63c-0.15-0.27-0.23-0.59-0.23-0.95c0-0.36,0.08-0.67,0.24-0.95
		c0.16-0.27,0.37-0.48,0.65-0.63c0.27-0.15,0.58-0.22,0.92-0.22c0.34,0,0.64,0.07,0.92,0.22c0.27,0.15,0.49,0.36,0.65,0.63
		c0.16,0.27,0.24,0.59,0.24,0.95c0,0.36-0.08,0.67-0.24,0.95c-0.16,0.27-0.38,0.49-0.66,0.63c-0.28,0.15-0.58,0.22-0.92,0.22
		C452.63,298.83,452.33,298.76,452.06,298.61z M453.42,297.95c0.14-0.08,0.25-0.19,0.34-0.35c0.08-0.16,0.13-0.34,0.13-0.57
		c0-0.33-0.09-0.59-0.26-0.77c-0.18-0.18-0.39-0.27-0.64-0.27c-0.25,0-0.46,0.09-0.63,0.27c-0.17,0.18-0.26,0.43-0.26,0.77
		c0,0.33,0.08,0.59,0.25,0.77c0.17,0.18,0.38,0.27,0.63,0.27C453.13,298.06,453.28,298.03,453.42,297.95z"/>
	<path class="st1" d="M456.8,295.38c0.2-0.11,0.43-0.16,0.68-0.16c0.3,0,0.57,0.07,0.81,0.22c0.24,0.15,0.43,0.36,0.57,0.63
		c0.14,0.27,0.21,0.59,0.21,0.94c0,0.36-0.07,0.67-0.21,0.95c-0.14,0.28-0.33,0.49-0.57,0.64s-0.51,0.23-0.81,0.23
		c-0.26,0-0.48-0.05-0.68-0.16c-0.2-0.1-0.35-0.24-0.48-0.4v2.17h-0.88v-5.16h0.88v0.51C456.44,295.63,456.6,295.49,456.8,295.38z
		 M458.05,296.47c-0.09-0.15-0.2-0.27-0.34-0.35c-0.14-0.08-0.29-0.12-0.46-0.12c-0.16,0-0.31,0.04-0.45,0.12
		c-0.14,0.08-0.25,0.2-0.34,0.36c-0.09,0.16-0.13,0.34-0.13,0.55c0,0.21,0.04,0.39,0.13,0.55s0.2,0.27,0.34,0.36
		c0.14,0.08,0.29,0.12,0.45,0.12c0.16,0,0.32-0.04,0.46-0.13c0.14-0.08,0.25-0.2,0.34-0.36c0.09-0.16,0.13-0.34,0.13-0.56
		C458.18,296.81,458.13,296.62,458.05,296.47z"/>
	<path class="st1" d="M460.37,298.61c-0.27-0.15-0.48-0.36-0.63-0.63c-0.15-0.27-0.23-0.59-0.23-0.95c0-0.36,0.08-0.67,0.24-0.95
		c0.16-0.27,0.37-0.48,0.65-0.63c0.27-0.15,0.58-0.22,0.92-0.22c0.34,0,0.64,0.07,0.92,0.22c0.27,0.15,0.49,0.36,0.65,0.63
		c0.16,0.27,0.24,0.59,0.24,0.95c0,0.36-0.08,0.67-0.24,0.95c-0.16,0.27-0.38,0.49-0.66,0.63c-0.28,0.15-0.58,0.22-0.92,0.22
		C460.94,298.83,460.64,298.76,460.37,298.61z M461.73,297.95c0.14-0.08,0.25-0.19,0.34-0.35c0.08-0.16,0.13-0.34,0.13-0.57
		c0-0.33-0.09-0.59-0.26-0.77c-0.18-0.18-0.39-0.27-0.64-0.27c-0.25,0-0.46,0.09-0.63,0.27c-0.17,0.18-0.26,0.43-0.26,0.77
		c0,0.33,0.08,0.59,0.25,0.77c0.17,0.18,0.38,0.27,0.63,0.27C461.44,298.06,461.59,298.03,461.73,297.95z M462.03,294.33l-1.45,0.66
		v-0.63l1.45-0.75V294.33z"/>
</g>
<g>
	<path class="st1" d="M404.77,301.33c0.2-0.34,0.46-0.61,0.8-0.8c0.34-0.19,0.72-0.29,1.14-0.29c0.49,0,0.92,0.13,1.29,0.38
		c0.37,0.25,0.63,0.6,0.78,1.05h-1.02c-0.1-0.21-0.24-0.37-0.43-0.47c-0.18-0.11-0.39-0.16-0.63-0.16c-0.26,0-0.49,0.06-0.69,0.18
		c-0.2,0.12-0.36,0.29-0.47,0.51c-0.11,0.22-0.17,0.48-0.17,0.77c0,0.29,0.06,0.55,0.17,0.77c0.11,0.22,0.27,0.39,0.47,0.51
		c0.2,0.12,0.43,0.18,0.69,0.18c0.24,0,0.45-0.05,0.63-0.16c0.18-0.11,0.33-0.27,0.43-0.48h1.02c-0.15,0.45-0.4,0.8-0.77,1.05
		c-0.37,0.25-0.8,0.38-1.3,0.38c-0.42,0-0.8-0.1-1.14-0.29c-0.34-0.19-0.61-0.46-0.8-0.8c-0.2-0.34-0.29-0.73-0.29-1.16
		C404.47,302.07,404.57,301.68,404.77,301.33z"/>
	<path class="st1" d="M412.21,301.33c0.21,0.12,0.37,0.29,0.48,0.51c0.12,0.23,0.17,0.5,0.17,0.81v2.05h-0.88v-1.93
		c0-0.28-0.07-0.49-0.21-0.64s-0.33-0.22-0.57-0.22c-0.24,0-0.44,0.08-0.58,0.22c-0.14,0.15-0.21,0.36-0.21,0.64v1.93h-0.88v-4.67
		h0.88v1.61c0.11-0.15,0.27-0.27,0.45-0.36s0.4-0.13,0.63-0.13C411.77,301.16,412.01,301.22,412.21,301.33z"/>
	<path class="st1" d="M414.88,300.3l-1.45,0.66v-0.63l1.45-0.75V300.3z M414.63,301.21v3.5h-0.88v-3.5H414.63z"/>
	<path class="st1" d="M415.52,302.01c0.14-0.27,0.33-0.48,0.57-0.63c0.24-0.15,0.51-0.22,0.81-0.22c0.26,0,0.49,0.05,0.69,0.16
		s0.35,0.24,0.47,0.4v-0.5h0.89v3.5h-0.89v-0.51c-0.11,0.16-0.27,0.3-0.47,0.41c-0.2,0.11-0.43,0.16-0.69,0.16
		c-0.29,0-0.56-0.08-0.81-0.23s-0.43-0.36-0.57-0.64c-0.14-0.28-0.21-0.59-0.21-0.95C415.31,302.59,415.38,302.28,415.52,302.01z
		 M417.94,302.41c-0.08-0.15-0.2-0.27-0.34-0.35c-0.14-0.08-0.3-0.12-0.46-0.12c-0.16,0-0.32,0.04-0.45,0.12
		c-0.14,0.08-0.25,0.2-0.34,0.35c-0.09,0.15-0.13,0.34-0.13,0.55c0,0.21,0.04,0.39,0.13,0.55c0.09,0.16,0.2,0.28,0.34,0.36
		c0.14,0.08,0.29,0.13,0.45,0.13c0.16,0,0.32-0.04,0.46-0.12c0.14-0.08,0.26-0.2,0.34-0.35c0.08-0.15,0.13-0.34,0.13-0.55
		S418.02,302.56,417.94,302.41z"/>
</g>
<g>
	<path class="st1" d="M407.64,271.12c0.2-0.34,0.46-0.61,0.8-0.8c0.34-0.19,0.72-0.29,1.14-0.29c0.49,0,0.92,0.13,1.29,0.38
		c0.37,0.25,0.63,0.6,0.78,1.05h-1.02c-0.1-0.21-0.24-0.37-0.43-0.47c-0.18-0.11-0.39-0.16-0.63-0.16c-0.26,0-0.49,0.06-0.69,0.18
		c-0.2,0.12-0.36,0.29-0.47,0.51c-0.11,0.22-0.17,0.48-0.17,0.77c0,0.29,0.06,0.55,0.17,0.77s0.27,0.39,0.47,0.51
		c0.2,0.12,0.43,0.18,0.69,0.18c0.24,0,0.45-0.05,0.63-0.16c0.18-0.11,0.33-0.27,0.43-0.48h1.02c-0.15,0.45-0.4,0.8-0.77,1.05
		c-0.37,0.25-0.8,0.38-1.3,0.38c-0.42,0-0.8-0.1-1.14-0.29c-0.34-0.19-0.61-0.46-0.8-0.8c-0.2-0.34-0.29-0.73-0.29-1.16
		C407.35,271.85,407.45,271.47,407.64,271.12z"/>
	<path class="st1" d="M412.4,271.79c0.14-0.27,0.33-0.48,0.57-0.63c0.24-0.15,0.51-0.22,0.81-0.22c0.26,0,0.49,0.05,0.69,0.16
		s0.35,0.24,0.47,0.4V271h0.89v3.5h-0.89v-0.51c-0.11,0.16-0.27,0.3-0.47,0.41c-0.2,0.11-0.43,0.16-0.69,0.16
		c-0.29,0-0.56-0.08-0.81-0.23c-0.24-0.15-0.43-0.36-0.57-0.64c-0.14-0.28-0.21-0.59-0.21-0.95
		C412.19,272.38,412.26,272.07,412.4,271.79z M414.81,272.2c-0.08-0.15-0.2-0.27-0.34-0.35c-0.14-0.08-0.3-0.12-0.46-0.12
		c-0.16,0-0.32,0.04-0.45,0.12c-0.14,0.08-0.25,0.2-0.34,0.35c-0.09,0.15-0.13,0.34-0.13,0.55c0,0.21,0.04,0.39,0.13,0.55
		c0.09,0.16,0.2,0.28,0.34,0.36c0.14,0.08,0.29,0.13,0.45,0.13c0.16,0,0.32-0.04,0.46-0.12c0.14-0.08,0.26-0.2,0.34-0.35
		c0.08-0.15,0.13-0.34,0.13-0.55S414.9,272.35,414.81,272.2z"/>
	<path class="st1" d="M417.58,275.07c0,0.39-0.1,0.67-0.29,0.84c-0.19,0.17-0.47,0.26-0.82,0.26h-0.39v-0.75h0.25
		c0.13,0,0.23-0.03,0.28-0.08c0.05-0.05,0.08-0.14,0.08-0.26V271h0.88V275.07z M416.75,270.43c-0.1-0.1-0.15-0.22-0.15-0.37
		c0-0.15,0.05-0.27,0.15-0.37c0.1-0.1,0.23-0.15,0.39-0.15c0.16,0,0.28,0.05,0.39,0.15c0.1,0.1,0.15,0.22,0.15,0.37
		c0,0.15-0.05,0.27-0.15,0.37c-0.1,0.1-0.23,0.15-0.39,0.15C416.98,270.58,416.85,270.53,416.75,270.43z"/>
	<path class="st1" d="M418.51,270.43c-0.1-0.1-0.15-0.22-0.15-0.37c0-0.15,0.05-0.27,0.15-0.37c0.1-0.1,0.23-0.15,0.39-0.15
		s0.29,0.05,0.39,0.15c0.1,0.1,0.15,0.22,0.15,0.37c0,0.15-0.05,0.27-0.15,0.37c-0.1,0.1-0.23,0.15-0.39,0.15
		S418.61,270.53,418.51,270.43z M419.33,271v3.5h-0.88V271H419.33z"/>
	<path class="st1" d="M420.2,271.8c0.15-0.27,0.35-0.48,0.61-0.63c0.26-0.15,0.56-0.22,0.9-0.22c0.43,0,0.79,0.11,1.08,0.33
		c0.28,0.22,0.47,0.52,0.57,0.91h-0.95c-0.05-0.15-0.14-0.27-0.26-0.36c-0.12-0.09-0.27-0.13-0.44-0.13c-0.25,0-0.45,0.09-0.6,0.27
		c-0.15,0.18-0.22,0.44-0.22,0.78c0,0.33,0.07,0.59,0.22,0.77c0.15,0.18,0.35,0.27,0.6,0.27c0.36,0,0.59-0.16,0.7-0.48h0.95
		c-0.1,0.38-0.29,0.68-0.57,0.9c-0.29,0.22-0.64,0.33-1.07,0.33c-0.34,0-0.64-0.07-0.9-0.22c-0.26-0.15-0.47-0.36-0.61-0.63
		c-0.15-0.27-0.22-0.59-0.22-0.95C419.98,272.39,420.05,272.07,420.2,271.8z"/>
	<path class="st1" d="M423.99,271.79c0.14-0.27,0.33-0.48,0.57-0.63c0.24-0.15,0.51-0.22,0.81-0.22c0.26,0,0.49,0.05,0.69,0.16
		c0.2,0.11,0.35,0.24,0.47,0.4V271h0.89v3.5h-0.89v-0.51c-0.11,0.16-0.27,0.3-0.47,0.41c-0.2,0.11-0.43,0.16-0.69,0.16
		c-0.29,0-0.56-0.08-0.81-0.23s-0.43-0.36-0.57-0.64c-0.14-0.28-0.21-0.59-0.21-0.95C423.78,272.38,423.85,272.07,423.99,271.79z
		 M426.4,272.2c-0.08-0.15-0.2-0.27-0.34-0.35c-0.14-0.08-0.3-0.12-0.46-0.12c-0.16,0-0.32,0.04-0.45,0.12
		c-0.14,0.08-0.25,0.2-0.34,0.35c-0.09,0.15-0.13,0.34-0.13,0.55c0,0.21,0.04,0.39,0.13,0.55c0.09,0.16,0.2,0.28,0.34,0.36
		c0.14,0.08,0.29,0.13,0.45,0.13c0.16,0,0.32-0.04,0.46-0.12c0.14-0.08,0.26-0.2,0.34-0.35c0.08-0.15,0.13-0.34,0.13-0.55
		S426.49,272.35,426.4,272.2z M426.41,270.09l-1.45,0.66v-0.63l1.45-0.75V270.09z"/>
</g>
<g>
	<path class="st1" d="M392.18,252.86v0.71H391v3.69h-0.88v-3.69h-1.17v-0.71H392.18z"/>
	<path class="st1" d="M392.8,254.56c0.14-0.27,0.33-0.48,0.57-0.63s0.51-0.22,0.81-0.22c0.26,0,0.49,0.05,0.69,0.16
		s0.35,0.24,0.47,0.4v-0.5h0.89v3.5h-0.89v-0.51c-0.11,0.16-0.27,0.3-0.47,0.41c-0.2,0.11-0.43,0.16-0.69,0.16
		c-0.29,0-0.56-0.08-0.81-0.23c-0.24-0.15-0.43-0.37-0.57-0.64c-0.14-0.28-0.21-0.59-0.21-0.95
		C392.59,255.15,392.66,254.83,392.8,254.56z M395.22,254.96c-0.08-0.15-0.2-0.27-0.34-0.35c-0.14-0.08-0.3-0.12-0.46-0.12
		c-0.16,0-0.32,0.04-0.45,0.12c-0.14,0.08-0.25,0.2-0.34,0.35c-0.09,0.15-0.13,0.34-0.13,0.55c0,0.21,0.04,0.39,0.13,0.55
		c0.09,0.16,0.2,0.28,0.34,0.36c0.14,0.08,0.29,0.13,0.45,0.13c0.16,0,0.32-0.04,0.46-0.12c0.14-0.08,0.26-0.2,0.34-0.35
		c0.08-0.15,0.13-0.34,0.13-0.55C395.35,255.3,395.3,255.12,395.22,254.96z"/>
	<path class="st1" d="M398.45,253.87c0.2-0.11,0.43-0.16,0.68-0.16c0.3,0,0.57,0.07,0.81,0.22s0.43,0.36,0.57,0.63
		c0.14,0.27,0.21,0.59,0.21,0.94c0,0.36-0.07,0.67-0.21,0.95c-0.14,0.28-0.33,0.49-0.57,0.64c-0.24,0.15-0.51,0.23-0.81,0.23
		c-0.26,0-0.49-0.05-0.68-0.15c-0.2-0.1-0.35-0.24-0.47-0.4v0.5h-0.88v-4.67h0.88v1.69C398.1,254.11,398.25,253.97,398.45,253.87z
		 M399.7,254.96c-0.09-0.15-0.2-0.27-0.34-0.35c-0.14-0.08-0.29-0.12-0.46-0.12c-0.16,0-0.31,0.04-0.45,0.12
		c-0.14,0.08-0.25,0.2-0.34,0.36c-0.09,0.16-0.13,0.34-0.13,0.55c0,0.21,0.04,0.39,0.13,0.55c0.09,0.16,0.2,0.27,0.34,0.36
		c0.14,0.08,0.29,0.12,0.45,0.12c0.16,0,0.32-0.04,0.46-0.13c0.14-0.08,0.25-0.2,0.34-0.36c0.09-0.16,0.13-0.34,0.13-0.56
		C399.83,255.29,399.79,255.11,399.7,254.96z"/>
	<path class="st1" d="M401.44,253.2c-0.1-0.1-0.15-0.22-0.15-0.37c0-0.15,0.05-0.27,0.15-0.37c0.1-0.1,0.23-0.15,0.39-0.15
		s0.29,0.05,0.39,0.15c0.1,0.1,0.15,0.22,0.15,0.37c0,0.15-0.05,0.27-0.15,0.37c-0.1,0.1-0.23,0.15-0.39,0.15
		S401.54,253.3,401.44,253.2z M402.26,253.77v3.5h-0.88v-3.5H402.26z"/>
	<path class="st1" d="M403.78,257.1c-0.27-0.15-0.48-0.36-0.63-0.63c-0.15-0.27-0.23-0.59-0.23-0.95c0-0.36,0.08-0.67,0.24-0.95
		c0.16-0.27,0.37-0.48,0.65-0.63c0.27-0.15,0.58-0.22,0.92-0.22c0.34,0,0.64,0.07,0.92,0.22c0.27,0.15,0.49,0.36,0.65,0.63
		c0.16,0.27,0.24,0.59,0.24,0.95c0,0.36-0.08,0.67-0.24,0.95c-0.16,0.27-0.38,0.49-0.66,0.63c-0.28,0.15-0.58,0.22-0.92,0.22
		C404.35,257.32,404.05,257.25,403.78,257.1z M405.14,256.43c0.14-0.08,0.25-0.19,0.34-0.35c0.08-0.16,0.13-0.34,0.13-0.57
		c0-0.33-0.09-0.59-0.26-0.77c-0.18-0.18-0.39-0.27-0.64-0.27c-0.25,0-0.46,0.09-0.63,0.27c-0.17,0.18-0.26,0.43-0.26,0.77
		c0,0.33,0.08,0.59,0.25,0.77c0.17,0.18,0.38,0.27,0.63,0.27C404.85,256.55,405,256.51,405.14,256.43z"/>
</g>
<g>
	<path class="st1" d="M360.04,307.46v0.71h-1.17v3.69h-0.88v-3.69h-1.17v-0.71H360.04z"/>
	<path class="st1" d="M363.91,310.38h-2.56c0.02,0.25,0.11,0.45,0.27,0.59c0.16,0.14,0.35,0.21,0.57,0.21c0.33,0,0.56-0.14,0.7-0.42
		h0.95c-0.1,0.34-0.29,0.61-0.58,0.83c-0.29,0.22-0.64,0.33-1.05,0.33c-0.34,0-0.64-0.08-0.91-0.22c-0.27-0.15-0.48-0.36-0.62-0.63
		c-0.15-0.27-0.22-0.59-0.22-0.95c0-0.36,0.07-0.68,0.22-0.95c0.15-0.27,0.35-0.48,0.62-0.63c0.27-0.15,0.57-0.22,0.92-0.22
		c0.33,0,0.63,0.07,0.89,0.21c0.26,0.14,0.47,0.35,0.61,0.61c0.15,0.26,0.22,0.57,0.22,0.91
		C363.94,310.17,363.93,310.28,363.91,310.38z M363.02,309.79c0-0.23-0.09-0.41-0.25-0.55c-0.16-0.14-0.36-0.2-0.59-0.2
		c-0.22,0-0.4,0.07-0.55,0.2c-0.15,0.13-0.24,0.32-0.27,0.55H363.02z"/>
	<path class="st1" d="M367.53,308.71c0.26,0.26,0.39,0.63,0.39,1.1v2.05h-0.88v-1.93c0-0.28-0.07-0.49-0.21-0.64
		c-0.14-0.15-0.33-0.22-0.57-0.22c-0.24,0-0.44,0.08-0.58,0.22c-0.14,0.15-0.21,0.36-0.21,0.64v1.93h-0.88v-3.5h0.88v0.44
		c0.12-0.15,0.27-0.27,0.45-0.36c0.18-0.09,0.38-0.13,0.6-0.13C366.94,308.32,367.27,308.45,367.53,308.71z"/>
	<path class="st1" d="M369.64,312.44c0,0.39-0.1,0.67-0.29,0.84c-0.19,0.17-0.47,0.26-0.82,0.26h-0.39v-0.75h0.25
		c0.13,0,0.23-0.03,0.28-0.08c0.05-0.05,0.08-0.14,0.08-0.26v-4.08h0.88V312.44z M368.81,307.8c-0.1-0.1-0.15-0.22-0.15-0.37
		c0-0.15,0.05-0.27,0.15-0.37c0.1-0.1,0.23-0.15,0.39-0.15c0.16,0,0.28,0.05,0.39,0.15c0.1,0.1,0.15,0.22,0.15,0.37
		c0,0.15-0.05,0.27-0.15,0.37c-0.1,0.1-0.23,0.15-0.39,0.15C369.04,307.95,368.91,307.9,368.81,307.8z"/>
	<path class="st1" d="M371.15,311.7c-0.27-0.15-0.48-0.36-0.63-0.63c-0.15-0.27-0.23-0.59-0.23-0.95c0-0.36,0.08-0.67,0.24-0.95
		c0.16-0.27,0.37-0.48,0.65-0.63c0.27-0.15,0.58-0.22,0.92-0.22c0.34,0,0.64,0.07,0.92,0.22c0.27,0.15,0.49,0.36,0.65,0.63
		c0.16,0.27,0.24,0.59,0.24,0.95c0,0.36-0.08,0.67-0.24,0.95c-0.16,0.27-0.38,0.49-0.66,0.63c-0.28,0.15-0.58,0.22-0.92,0.22
		C371.72,311.92,371.42,311.85,371.15,311.7z M372.51,311.04c0.14-0.08,0.25-0.19,0.34-0.35c0.08-0.16,0.13-0.34,0.13-0.57
		c0-0.33-0.09-0.59-0.26-0.77c-0.18-0.18-0.39-0.27-0.64-0.27c-0.25,0-0.46,0.09-0.63,0.27c-0.17,0.18-0.26,0.43-0.26,0.77
		c0,0.33,0.08,0.59,0.25,0.77c0.17,0.18,0.38,0.27,0.63,0.27C372.22,311.15,372.37,311.11,372.51,311.04z"/>
</g>
<g>
	<path class="st1" d="M363.97,349.09c-0.2-0.34-0.31-0.7-0.31-1.09c0-0.39,0.1-0.77,0.31-1.13c0.24-0.43,0.56-0.74,0.96-0.94
		c0.4-0.2,0.83-0.26,1.29-0.17l-0.5,0.89c-0.23-0.01-0.44,0.03-0.62,0.14c-0.18,0.11-0.33,0.27-0.45,0.48
		c-0.13,0.22-0.19,0.45-0.18,0.69c0.01,0.23,0.08,0.45,0.22,0.66s0.33,0.38,0.59,0.52c0.25,0.14,0.5,0.22,0.75,0.23
		c0.25,0.01,0.47-0.04,0.67-0.16c0.2-0.12,0.37-0.29,0.49-0.51c0.12-0.21,0.17-0.42,0.17-0.63c0-0.21-0.07-0.41-0.21-0.6l0.5-0.89
		c0.32,0.35,0.5,0.74,0.54,1.19c0.04,0.44-0.06,0.88-0.31,1.32c-0.21,0.37-0.48,0.65-0.81,0.85c-0.33,0.2-0.7,0.31-1.09,0.31
		c-0.39,0-0.78-0.1-1.16-0.31C364.47,349.7,364.18,349.43,363.97,349.09z"/>
	<path class="st1" d="M369.42,345.93c-0.26,0.16-0.55,0.24-0.86,0.24c-0.31,0-0.63-0.09-0.94-0.26c-0.31-0.17-0.55-0.4-0.71-0.67
		c-0.16-0.27-0.24-0.56-0.24-0.87c0-0.31,0.09-0.61,0.25-0.91c0.16-0.29,0.38-0.52,0.64-0.69c0.26-0.17,0.55-0.25,0.87-0.25
		c0.32,0,0.63,0.08,0.94,0.26c0.31,0.17,0.55,0.4,0.71,0.67c0.16,0.28,0.24,0.57,0.23,0.88c0,0.31-0.09,0.62-0.26,0.92
		C369.89,345.54,369.68,345.77,369.42,345.93z M369.5,344.42c0-0.16-0.05-0.32-0.14-0.47c-0.09-0.15-0.24-0.28-0.43-0.39
		c-0.29-0.16-0.56-0.21-0.8-0.15c-0.24,0.07-0.42,0.21-0.55,0.43c-0.12,0.22-0.15,0.45-0.08,0.68c0.07,0.24,0.25,0.44,0.54,0.6
		c0.29,0.16,0.55,0.22,0.79,0.16c0.24-0.06,0.42-0.2,0.54-0.42C369.46,344.73,369.5,344.58,369.5,344.42z"/>
	<path class="st1" d="M369.3,340.81l1.48,0.83c0.1,0.06,0.19,0.07,0.26,0.05c0.07-0.02,0.14-0.09,0.21-0.21l0.2-0.36l0.65,0.36
		l-0.27,0.49c-0.36,0.65-0.86,0.8-1.49,0.44l-1.47-0.82l-0.2,0.36l-0.63-0.35l0.2-0.36l-0.75-0.42l0.43-0.78l0.75,0.42l0.38-0.68
		l0.63,0.35L369.3,340.81z"/>
	<path class="st1" d="M370.05,339.62c-0.17-0.26-0.26-0.53-0.27-0.81c-0.01-0.28,0.06-0.56,0.2-0.82c0.13-0.23,0.28-0.4,0.47-0.52
		c0.19-0.12,0.38-0.19,0.58-0.22l-0.44-0.24l0.43-0.78l3.05,1.71l-0.43,0.78l-0.45-0.25c0.09,0.18,0.13,0.38,0.13,0.61
		c0,0.23-0.07,0.45-0.2,0.68c-0.14,0.26-0.34,0.45-0.59,0.59c-0.25,0.14-0.53,0.2-0.84,0.19c-0.31-0.01-0.62-0.11-0.93-0.28
		C370.46,340.09,370.22,339.87,370.05,339.62z M371.58,337.71c-0.18,0-0.33,0.04-0.47,0.12c-0.14,0.08-0.25,0.2-0.33,0.34
		c-0.08,0.14-0.12,0.3-0.12,0.46c0,0.16,0.05,0.32,0.14,0.47c0.09,0.15,0.23,0.28,0.41,0.38c0.18,0.1,0.37,0.16,0.55,0.16
		c0.18,0,0.34-0.04,0.48-0.12c0.14-0.08,0.25-0.19,0.33-0.33c0.08-0.14,0.12-0.3,0.12-0.46c0-0.16-0.05-0.32-0.14-0.47
		c-0.09-0.15-0.23-0.28-0.42-0.38S371.75,337.71,371.58,337.71z"/>
</g>
</svg>
