<?xml version="1.0" encoding="utf-8"?>
<!-- Generator: Adobe Illustrator 24.0.0, SVG Export Plug-In . SVG Version: 6.00 Build 0)  -->
<svg version="1.1" id="Capa_1" xmlns="http://www.w3.org/2000/svg" xmlns:xlink="http://www.w3.org/1999/xlink" x="0px" y="0px"
	 viewBox="0 0 847 512" style="enable-background:new 0 0 847 512;" xml:space="preserve">
<style type="text/css">
	.st0{fill:none;stroke:#EDB20A;stroke-width:3;stroke-miterlimit:10;}
	.st1{fill:#6D6D6D;}
</style>
<g id="trazado_mapa">
	<path class="st0" d="M264.07,415.9l1.71-2.65l-0.09-2.39l-2.05-2.82c0,0-5.55-4.69-6.74-1.11c-1.19,3.58-2.22,3.75-4.52,5.29
		c-2.3,1.54-1.71,5.29-1.88,5.55s-3.5,0.68-3.5,0.68l-0.94-0.77l1.37-3.07c0,0,0.09-2.82-0.09-3.5c-0.17-0.68-2.22-3.07-2.22-3.07
		s-0.17-1.54,0.43-3.58c0.6-2.05,0.94-3.67,2.3-4.1c1.37-0.43-0.26-1.54,1.37-2.13c1.62-0.6,0.6-0.51,3.41-0.51
		c2.82,0,6.66,0.17,7.34-0.34s1.11-0.77,1.11-3.41c0-2.65-1.88-2.05,0.26-3.5c2.13-1.45,2.13-1.45,2.13-2.3s0-0.17,0-0.85
		s-1.79,1.88,0-0.68c1.79-2.56,1.62,0.51,1.79-2.56c0.17-3.07,0.17-1.88,0.17-3.07s1.79,0.17,2.39-5.03c0.6-5.2,1.79-6.14,2.39-6.83
		s1.37-0.51,5.2-6.66c3.84-6.14,10.58-14.59,9.81-16.72c-0.77-2.13-2.73-0.34-2.82-3.16c-0.09-2.82-2.39-2.56,0.51-4.78
		c2.9-2.22,1.45-4.01,3.84-4.01c2.39,0,2.13-0.51,4.1-1.88c1.96-1.37,2.3-1.45,2.22-3.93s1.96-7,4.44-7.42
		c2.47-0.43,1.71-2.39,3.33-2.73s3.93-0.17,6.06-0.34s7.59-1.96,8.96-4.78c1.37-2.82,4.61-5.2,4.61-5.2s2.73-2.99,4.27-2.99
		c1.54,0,1.54-3.24,1.54-3.24s-0.17-2.3-0.6-5.2c-0.43-2.9-1.79-2.13,1.28-2.99c3.07-0.85,5.2-3.58,5.2-3.58s4.27-1.19,4.35-4.44
		s0.6-7.34,1.02-8.7c0.43-1.37,1.71-1.19,2.22-1.96s2.39-4.69,1.71-6.83c-0.68-2.13-0.51-4.86-0.51-4.86l2.65-2.82
		c0,0,0,0.85,0-1.45c0-2.3-2.82-0.77-0.6-4.52c2.22-3.75,1.79-2.99,1.79-2.99s1.45-0.6,1.11-3.67c-0.34-3.07-0.17-15.02-0.17-15.02
		l1.37-3.5c0,0,2.05-1.28,1.45-2.65c-0.6-1.37,0.34-1.88,0.43-2.82c0.09-0.94,0.26,1.37,0.09-1.96s-4.1-12.46,3.67-12.63
		c7.76-0.17,10.41,1.02,11.26,0.6s2.22-1.79,1.88-3.24c-0.34-1.45,1.88,0.6-1.02-2.22c-2.9-2.82-2.47-7.42-2.47-7.42l2.56-5.2
		l3.16-2.65c0,0,4.69-5.03,4.27-7.59s1.45-7-3.24-7s0.09,0.6-4.69,0s-3.33-0.94-3.33-3.24s1.37-5.72,1.37-7.94s0.68-4.27,0.17-4.69
		c-0.51-0.43,0.68-2.9,2.82-3.16s4.95-3.33,5.03-4.52c0.09-1.19-1.37-0.77,0.34-3.5s2.3-2.82,2.22-3.24
		c-0.09-0.43-2.82-0.43-0.09-2.39c2.73-1.96,4.1-3.07,4.1-3.07s2.05-3.67-1.19-6.91s-4.52-6.31-4.52-7.17
		c0-0.85-2.47-4.86-1.62-7.51s-0.6-4.69-0.6-6.14s-2.13-5.03,3.5-9.9c5.63-4.86,8.87-8.36,8.87-8.36l2.9-2.65
		c0,0,1.11-1.88,0.85-2.3c-0.26-0.43-0.94-2.47-0.94-2.47l1.28-2.99l2.65-0.34l2.05-1.37l3.84,0.68c0,0,4.1,0.34,4.18-2.9
		c0.09-3.24,1.62-4.01,2.13-5.12c0.51-1.11,3.07-3.33,3.07-3.33l1.71-7.59l-0.51-3.84l0.68-6.57l4.01,1.02l4.52,0.34l3.75-0.68
		l3.75-1.37l1.71-1.11l0.43,7.51l4.69,8.11l1.79,3.33v4.1l9.04-5.2l5.29-0.85l2.65,0.94l4.95,3.58l2.56,1.45l2.9,2.3l1.19,2.13
		l5.46-0.85l5.46,2.13l1.62,3.24l3.58,2.9l2.3,2.82l14.51,5.03l4.86,0.6l2.9,1.79l0.26-1.96l-0.6-3.75l1.96-2.05l-0.17-3.93
		l2.56-1.54l4.35-4.1c0,0,1.37-3.5,4.52-0.26c3.16,3.24,5.63,8.45,5.63,8.45l3.84,2.05l0.6,2.99L525,95.5l3.07,1.62l4.78-0.51
		l1.11-2.3l3.38-5.67l0.59-5.21l1.12-3.65l3.08,3.93l3.36,3.22l1.68-0.56l0.7-2.66l-3.5-6.59l-1.12-4.77l5.61-3.79l8.69,9.11
		l4.77-4.49l16.26,9.25l0.28-12.9l2.52-2.52l2.94,3.79l2.66,2.38h2.1l0.42,5.61l0.14,4.21h4.63l2.8,0.28
		c-2.1,4.77-1.26,7.01-6.59,7.01c-5.33,0-5.75,4.63-5.75,4.63l-3.36,2.8v2.8l1.4,3.79l1.54,4.91l3.08,1.54l5.05,1.82l3.5,3.36
		l4.49,0.28l2.66,4.35l-0.7,6.45l-4.91,4.91l-4.07,2.8l-0.14,4.63l-0.56,3.93c0,0,0-0.42-6.03,3.36c-6.03,3.79-4.07,4.63-4.07,4.63
		l-1.54,1.82l-0.84,2.24l1.54,2.66v2.8l-1.54,2.24l-4.35,1.96l-3.08,0.14l-4.77,0.42l-3.36,2.52l1.54,4.49l2.1,2.52l3.65,3.36
		l3.08,1.54l4.49,0.84l2.24,3.65l-3.22,2.8l1.68,5.05h2.1l4.21,0.84l1.4,2.8v1.96v6.59l-6.17,6.87l-0.56,6.17l-1.54,2.66l-1.4,3.65
		l-3.79,3.22l-3.93,3.79l-3.65,1.12l-1.26,5.19l-0.42,5.75l-1.68,2.8l-4.35,1.96l-4.91,4.91l-5.47,3.08l-1.82,3.65l-2.66,3.5
		l-6.59,7.71l-3.22,5.89l-1.4,5.89l-4.35,5.19l-3.22,2.38l-2.66,5.05l-4.49,7.43l-2.1,3.79v4.49l0.98,3.79l2.1,5.19v2.8v2.66v3.93
		l-2.94,1.26l-2.52,4.35l1.68,9.81l-2.52,4.91l-1.26,3.93l-1.96,5.33l-1.96,2.66l-3.65,3.5l-6.73,0.56l-8.97-2.24l-3.22-0.28
		l-0.7,2.66l-1.4,3.36l0.42,2.52l2.38,0.84l0.98,2.38l-1.68,4.49v2.24l-0.28,1.96v1.68l-15.14,0.56l-13.04-0.56l-3.36,3.79
		l-2.1-0.84l-2.24,0.28l-1.54,2.24l-3.65-0.98l-0.84-1.68v-4.07l-2.1-1.68l-1.96-3.08l-0.84-1.4c0,0-3.08-0.98-5.47,0.7
		c-2.38,1.68-5.47-0.84-5.47-0.84l-4.07-0.28l-6.87-0.28l-1.68-2.1l-3.36-3.36l-4.21-0.56l-5.19-0.84l-4.07-1.4l-3.93,1.12
		l-1.12,1.12l-3.22,0.28l-3.08-3.79h-4.21l-0.28,3.22l-5.89-2.8l-3.93-0.42l-3.65,1.12l-2.1,4.07l4.35,5.05l-2.8,3.93l-1.12,0.14
		l2.38,4.77l0.84,4.77l-3.93,1.96l-2.38,5.33l-0.84,4.77l-3.79,1.68l-3.08-2.1l-1.96-2.52l-3.65,0.42l-3.22,4.07l-4.21,3.5
		l-2.52,1.26l0.14,7.15l-0.42,4.63v5.89l-1.82,6.87l-4.49,2.94l-2.52,6.31l-1.12,6.03l-3.08,0.28l-1.54,3.79l1.26,4.35l-0.28,4.91
		l3.08,2.24l-1.54,1.82l-5.75-2.38l-5.75,2.52l-4.77-0.98l-2.94-0.7l-3.22-4.07l1.54-3.79l4.07-7.29c0,0-3.5-2.1-5.89-2.1
		s-2.52,1.4-3.08,1.4s-3.36,1.12-3.36,1.12h-2.8l-2.1-0.84l-0.28-4.63l-0.56-3.93l-2.8-2.94l0.28-6.03l-0.7-3.36l-1.96-1.96
		l-0.28-5.05l-4.21-0.98l-2.52,3.22l-4.91-0.14l-0.7-1.54l-2.24-2.38l-3.08,1.12h-3.22l-2.1-1.54L264.07,415.9z"/>
	<polyline class="st0" points="566.25,172.59 554.2,174.22 548.63,173.02 542.25,173.82 536.28,181.78 527.91,191.15 520.14,197.72 
		510.98,202.9 502.41,209.07 498.23,211.27 498.23,215.65 501.22,219.03 501.02,222.42 504.2,225.21 501.62,232.38 494.24,238.76 
		487.07,243.54 481.7,242.34 480.7,238.95 480.9,233.38 478.11,229.19 477.91,226.01 475.52,222.02 470.34,219.63 463.57,221.23 
		459.58,226.01 458.39,231.58 456,236.37 451.02,241.34 448.83,248.91 448.63,253.89 443.85,255.49 442.05,260.67 442.05,266.24 
		438.67,269.43 440.06,281.58 438.07,287.56 436.88,293.93 439.47,302.3 435.08,306.48 431.1,309.47 429.31,310.67 428.51,318.04 
		422.33,321.02 417.75,317.84 407.39,314.85 402.81,312.46 400.42,307.08 396.04,307.28 389.86,303.69 384.09,300.51 378.11,297.12 
		374.13,296.12 372.34,304.69 371.54,311.26 369.95,318.24 369.95,326.2 369.95,336.56 361.98,350.51 349.23,366.44 341.66,375.01 
		340.07,380.98 330.9,379.39 312.18,396.12 309.39,400.7 308.59,404.29 306.2,409.67 301.82,414.25 297.44,418.83 297.24,424.81 
		298.63,430.38 296.24,435.16 293.25,436.16 290.48,438.13 	"/>
	<polyline class="st0" points="374.53,367.04 372.34,360.47 370.54,357.08 365.76,354.89 361.18,353.89 358.99,353.49 	"/>
	<polyline class="st0" points="368.95,313.26 364.97,313.06 360.58,312.66 356.8,307.68 349.83,308.67 346.24,307.88 341.66,306.68 
		337.87,305.29 330.7,305.29 324.74,304.55 	"/>
	<polyline class="st0" points="374.13,296.12 378.71,290.15 384.49,287.16 386.28,282.58 392.85,276.01 398.63,270.83 
		403.81,262.06 408.99,254.49 417.35,244.53 425.52,243.14 432.09,234.57 435.48,231.39 443.05,230.19 445.64,232.18 450.02,237.16 
		454.01,239.95 460.18,242.34 466.76,247.32 471.14,248.91 472.33,250.11 472.93,254.29 474.72,259.27 474.72,263.85 478.91,266.44 
		487.07,266.24 496.64,273.02 503.21,277.2 508.39,283.77 512.17,287.56 519.34,291.54 520.94,295.73 520.34,298.91 	"/>
	<path class="st0" d="M556.79,249.12l-16.61-11.22l2.69-6.28l3.82-5.39l-3.37-7.63l-6.06-6.96l-2.24-7.18l-1.57-8.3l-5.54-5
		l-21.84-16.77l-3.82,1.8l-9.65,4.71l-1.35-6.51l-5.16,1.35l-6.06,2.47l-6.51-3.14l-9.2,0.9l-9.65-1.35l-6.06-5.16l-8.3,3.37
		l-5.39-1.12l-8.08-0.9l-2.47,2.47c0,0-7.86,0.22-1.8-8.53s4.49-7.86,4.49-7.86v-5.16l4.26-8.75l2.92-5.16l2.92-6.28l3.82-10.32
		l2.02-7.86l-0.9-3.14l-0.22-7.41v-4.04l-6.73-2.92l-7.86-3.14l-7.63-2.47l-6.28,1.12l-3.14,0.22l-1.35-2.69l1.12-4.04l0.9-5.84
		l-3.59-4.04l-2.47-2.24l-3.14-2.24"/>
	<polyline class="st0" points="506.07,174.38 508.09,173.71 510.11,172.58 513.92,167.42 513.47,163.16 509.43,159.79 
		509.66,155.53 510.78,151.26 511.23,144.75 508.76,139.59 512.35,134.43 521.55,127.69 523.57,121.41 527.16,114 529.18,108.39 
		528.96,101.21 533.96,94.3 	"/>
	<polyline class="st0" points="438.25,377.56 441.4,373.69 441.4,369.2 443.85,366.34 443.03,361.85 446.3,357.77 450.38,354.5 
		453.65,351.24 452.42,346.34 456.5,334.91 457.73,327.57 461.4,321.45 460.18,314.92 462.22,305.12 454.05,303.9 451.2,300.22 
		446.3,296.14 442.22,292.47 438.07,287.56 	"/>
	<path class="st0" d="M412.22,250.82l-1.61-4.98l0.64-4.33l-2.73-1.77l-6.42-4.5l-2.41-5.3l-6.9-0.64l-5.94-3.37l-3.21-4.66
		l0.32-5.94c0,0,7.06-4.66-7.06-3.37l-4.66-2.25l-5.78-1.61"/>
</g>
<g>
	<path class="st1" d="M403.41,197.89h3.77v1.42h-5.71v-1.3l3.74-5.66h-3.74v-1.42h5.71v1.3L403.41,197.89z"/>
	<path class="st1" d="M408.72,191.58c-0.2-0.19-0.29-0.42-0.29-0.7s0.1-0.51,0.29-0.7c0.2-0.19,0.44-0.28,0.74-0.28
		s0.54,0.09,0.74,0.28c0.2,0.19,0.29,0.42,0.29,0.7s-0.1,0.51-0.29,0.7c-0.2,0.19-0.44,0.28-0.74,0.28S408.92,191.77,408.72,191.58z
		 M410.29,192.65v6.65h-1.68v-6.65H410.29z"/>
	<path class="st1" d="M414.52,192.85c0.38-0.2,0.81-0.31,1.3-0.31c0.57,0,1.08,0.14,1.54,0.42s0.82,0.68,1.09,1.19
		c0.27,0.52,0.4,1.11,0.4,1.79c0,0.68-0.13,1.28-0.4,1.81c-0.27,0.52-0.63,0.93-1.09,1.22s-0.97,0.43-1.54,0.43
		c-0.49,0-0.92-0.1-1.29-0.3c-0.37-0.2-0.67-0.45-0.91-0.76v4.12h-1.68v-9.82h1.68v0.96C413.84,193.31,414.14,193.06,414.52,192.85z
		 M416.89,194.92c-0.16-0.29-0.38-0.51-0.65-0.67c-0.27-0.15-0.56-0.23-0.87-0.23c-0.3,0-0.59,0.08-0.86,0.23
		c-0.27,0.16-0.48,0.38-0.65,0.68s-0.25,0.64-0.25,1.04c0,0.4,0.08,0.75,0.25,1.04s0.38,0.52,0.65,0.68
		c0.27,0.16,0.55,0.23,0.86,0.23c0.31,0,0.6-0.08,0.87-0.24c0.27-0.16,0.48-0.39,0.65-0.68c0.16-0.3,0.25-0.65,0.25-1.06
		C417.14,195.55,417.06,195.21,416.89,194.92z"/>
	<path class="st1" d="M420.05,194.17c0.27-0.52,0.63-0.92,1.09-1.2s0.97-0.42,1.54-0.42c0.5,0,0.93,0.1,1.3,0.3s0.67,0.45,0.89,0.76
		v-0.95h1.69v6.65h-1.69v-0.97c-0.22,0.31-0.51,0.57-0.89,0.77c-0.38,0.2-0.82,0.31-1.31,0.31c-0.56,0-1.07-0.14-1.53-0.43
		s-0.82-0.69-1.09-1.22c-0.27-0.52-0.4-1.13-0.4-1.81C419.65,195.28,419.78,194.69,420.05,194.17z M424.64,194.93
		c-0.16-0.29-0.38-0.52-0.65-0.67c-0.27-0.16-0.56-0.23-0.88-0.23c-0.31,0-0.6,0.08-0.86,0.23c-0.26,0.15-0.48,0.37-0.64,0.67
		c-0.16,0.29-0.25,0.64-0.25,1.04c0,0.4,0.08,0.75,0.25,1.05c0.16,0.3,0.38,0.53,0.65,0.69c0.27,0.16,0.55,0.24,0.86,0.24
		c0.31,0,0.6-0.08,0.88-0.23c0.27-0.16,0.49-0.38,0.65-0.67c0.16-0.29,0.24-0.64,0.24-1.05S424.8,195.22,424.64,194.93z"/>
	<path class="st1" d="M428.2,194.2c0.28-0.52,0.65-0.92,1.12-1.21c0.47-0.29,0.99-0.43,1.56-0.43c0.47,0,0.89,0.09,1.25,0.27
		c0.36,0.18,0.66,0.41,0.88,0.69v-0.86h1.69v9.82h-1.69v-4.08c-0.22,0.29-0.52,0.53-0.9,0.72c-0.38,0.19-0.8,0.29-1.27,0.29
		c-0.56,0-1.07-0.15-1.54-0.44s-0.84-0.7-1.11-1.22c-0.27-0.52-0.41-1.11-0.41-1.78S427.92,194.71,428.2,194.2z M432.76,194.92
		c-0.17-0.3-0.39-0.52-0.65-0.67c-0.27-0.15-0.55-0.23-0.86-0.23c-0.3,0-0.58,0.08-0.85,0.23c-0.27,0.15-0.49,0.37-0.65,0.67
		s-0.25,0.64-0.25,1.05s0.08,0.76,0.25,1.06c0.17,0.3,0.39,0.53,0.65,0.68c0.27,0.15,0.55,0.23,0.85,0.23c0.3,0,0.59-0.08,0.86-0.23
		c0.27-0.15,0.49-0.38,0.65-0.67s0.25-0.65,0.25-1.06S432.93,195.22,432.76,194.92z"/>
	<path class="st1" d="M442.63,192.65v6.65h-1.69v-0.84c-0.22,0.29-0.5,0.51-0.85,0.68c-0.35,0.16-0.73,0.25-1.13,0.25
		c-0.52,0-0.98-0.11-1.38-0.33c-0.4-0.22-0.71-0.54-0.94-0.97c-0.23-0.43-0.34-0.94-0.34-1.53v-3.9h1.68v3.66
		c0,0.53,0.13,0.93,0.4,1.22c0.26,0.28,0.62,0.43,1.08,0.43c0.46,0,0.83-0.14,1.09-0.43c0.26-0.28,0.4-0.69,0.4-1.22v-3.66H442.63z"
		/>
	<path class="st1" d="M444.4,191.58c-0.2-0.19-0.29-0.42-0.29-0.7s0.1-0.51,0.29-0.7c0.2-0.19,0.44-0.28,0.74-0.28
		s0.54,0.09,0.74,0.28c0.2,0.19,0.29,0.42,0.29,0.7s-0.1,0.51-0.29,0.7c-0.2,0.19-0.44,0.28-0.74,0.28S444.59,191.77,444.4,191.58z
		 M445.96,192.65v6.65h-1.68v-6.65H445.96z"/>
	<path class="st1" d="M450.14,192.86c0.35-0.2,0.75-0.3,1.19-0.3v1.76h-0.44c-0.53,0-0.93,0.12-1.19,0.37
		c-0.27,0.25-0.4,0.68-0.4,1.3v3.31h-1.68v-6.65h1.68v1.03C449.51,193.33,449.8,193.06,450.14,192.86z"/>
	<path class="st1" d="M452.44,194.17c0.27-0.52,0.63-0.92,1.09-1.2s0.97-0.42,1.54-0.42c0.5,0,0.93,0.1,1.3,0.3s0.67,0.45,0.89,0.76
		v-0.95h1.69v6.65h-1.69v-0.97c-0.22,0.31-0.51,0.57-0.89,0.77c-0.38,0.2-0.82,0.31-1.31,0.31c-0.56,0-1.07-0.14-1.53-0.43
		s-0.82-0.69-1.09-1.22c-0.27-0.52-0.4-1.13-0.4-1.81C452.03,195.28,452.17,194.69,452.44,194.17z M457.03,194.93
		c-0.16-0.29-0.38-0.52-0.65-0.67c-0.27-0.16-0.56-0.23-0.88-0.23c-0.31,0-0.6,0.08-0.86,0.23c-0.26,0.15-0.48,0.37-0.64,0.67
		c-0.16,0.29-0.25,0.64-0.25,1.04c0,0.4,0.08,0.75,0.25,1.05c0.16,0.3,0.38,0.53,0.65,0.69c0.27,0.16,0.55,0.24,0.86,0.24
		c0.31,0,0.6-0.08,0.88-0.23c0.27-0.16,0.49-0.38,0.65-0.67c0.16-0.29,0.24-0.64,0.24-1.05S457.19,195.22,457.03,194.93z
		 M457.04,190.93l-2.76,1.26v-1.2l2.76-1.43V190.93z"/>
</g>
<g>
	<path class="st1" d="M446.07,126.12c0.37-0.65,0.88-1.16,1.52-1.52c0.64-0.36,1.37-0.55,2.17-0.55c0.94,0,1.76,0.24,2.46,0.72
		c0.7,0.48,1.2,1.14,1.48,1.99h-1.93c-0.19-0.4-0.46-0.7-0.81-0.9c-0.35-0.2-0.75-0.3-1.21-0.3c-0.49,0-0.92,0.11-1.3,0.34
		c-0.38,0.23-0.68,0.55-0.89,0.97s-0.32,0.9-0.32,1.46c0,0.55,0.11,1.04,0.32,1.46s0.51,0.74,0.89,0.97
		c0.38,0.23,0.81,0.34,1.3,0.34c0.46,0,0.86-0.1,1.21-0.31c0.35-0.2,0.62-0.51,0.81-0.91h1.93c-0.28,0.86-0.77,1.52-1.47,2
		c-0.7,0.48-1.52,0.71-2.47,0.71c-0.8,0-1.52-0.18-2.17-0.55c-0.64-0.36-1.15-0.87-1.52-1.52c-0.37-0.65-0.56-1.38-0.56-2.21
		C445.51,127.51,445.7,126.77,446.07,126.12z"/>
	<path class="st1" d="M456.36,132.21c-0.51-0.28-0.91-0.69-1.21-1.21c-0.29-0.52-0.44-1.12-0.44-1.8c0-0.68,0.15-1.28,0.45-1.8
		c0.3-0.52,0.71-0.92,1.23-1.21c0.52-0.28,1.1-0.43,1.74-0.43c0.64,0,1.22,0.14,1.74,0.43c0.52,0.28,0.93,0.69,1.23,1.21
		c0.3,0.52,0.45,1.12,0.45,1.8c0,0.68-0.15,1.28-0.46,1.8c-0.31,0.52-0.72,0.92-1.25,1.21c-0.52,0.28-1.11,0.43-1.76,0.43
		C457.45,132.64,456.87,132.5,456.36,132.21z M458.95,130.95c0.27-0.15,0.48-0.37,0.64-0.67c0.16-0.3,0.24-0.66,0.24-1.08
		c0-0.63-0.17-1.12-0.5-1.46c-0.33-0.34-0.74-0.51-1.22-0.51c-0.48,0-0.88,0.17-1.21,0.51c-0.32,0.34-0.49,0.83-0.49,1.46
		s0.16,1.12,0.47,1.46c0.32,0.34,0.71,0.51,1.19,0.51C458.39,131.17,458.68,131.1,458.95,130.95z"/>
	<path class="st1" d="M466.71,126.07c0.38,0.2,0.67,0.45,0.89,0.76v-0.95h1.69v6.7c0,0.62-0.12,1.17-0.37,1.65
		c-0.25,0.48-0.62,0.87-1.12,1.15c-0.5,0.28-1.1,0.43-1.8,0.43c-0.94,0-1.72-0.22-2.32-0.66c-0.6-0.44-0.95-1.04-1.03-1.8h1.67
		c0.09,0.3,0.28,0.55,0.57,0.73s0.65,0.27,1.06,0.27c0.49,0,0.88-0.15,1.19-0.44s0.46-0.73,0.46-1.33v-1.03
		c-0.22,0.31-0.51,0.57-0.89,0.78c-0.38,0.21-0.81,0.31-1.3,0.31c-0.56,0-1.07-0.14-1.54-0.43c-0.46-0.29-0.83-0.69-1.1-1.22
		c-0.27-0.52-0.4-1.13-0.4-1.81c0-0.67,0.13-1.27,0.4-1.79c0.27-0.52,0.63-0.92,1.09-1.2s0.97-0.42,1.54-0.42
		C465.89,125.77,466.33,125.87,466.71,126.07z M467.35,128.16c-0.16-0.29-0.38-0.52-0.65-0.67c-0.27-0.16-0.56-0.23-0.88-0.23
		c-0.31,0-0.6,0.08-0.86,0.23c-0.26,0.15-0.48,0.37-0.64,0.67c-0.16,0.29-0.25,0.64-0.25,1.04c0,0.4,0.08,0.75,0.25,1.05
		c0.16,0.3,0.38,0.53,0.65,0.69c0.27,0.16,0.55,0.24,0.86,0.24c0.31,0,0.6-0.08,0.88-0.23c0.27-0.16,0.49-0.38,0.65-0.67
		c0.16-0.29,0.24-0.64,0.24-1.05S467.51,128.45,467.35,128.16z"/>
	<path class="st1" d="M477.2,125.88v6.65h-1.69v-0.84c-0.22,0.29-0.5,0.51-0.85,0.68c-0.35,0.16-0.73,0.25-1.13,0.25
		c-0.52,0-0.98-0.11-1.38-0.33c-0.4-0.22-0.71-0.54-0.94-0.97c-0.23-0.43-0.34-0.94-0.34-1.53v-3.9h1.68v3.66
		c0,0.53,0.13,0.93,0.4,1.22c0.26,0.28,0.62,0.43,1.08,0.43c0.46,0,0.83-0.14,1.09-0.43c0.26-0.28,0.4-0.69,0.4-1.22v-3.66H477.2z"
		/>
	<path class="st1" d="M478.83,127.39c0.27-0.52,0.63-0.92,1.09-1.2s0.97-0.42,1.54-0.42c0.5,0,0.93,0.1,1.3,0.3s0.67,0.45,0.89,0.76
		v-0.95h1.69v6.65h-1.69v-0.97c-0.22,0.31-0.51,0.57-0.89,0.77c-0.38,0.2-0.82,0.31-1.31,0.31c-0.56,0-1.07-0.14-1.53-0.43
		s-0.82-0.69-1.09-1.22c-0.27-0.52-0.4-1.13-0.4-1.81C478.43,128.51,478.56,127.91,478.83,127.39z M483.42,128.16
		c-0.16-0.29-0.38-0.52-0.65-0.67c-0.27-0.16-0.56-0.23-0.88-0.23c-0.31,0-0.6,0.08-0.86,0.23c-0.26,0.15-0.48,0.37-0.64,0.67
		c-0.16,0.29-0.25,0.64-0.25,1.04c0,0.4,0.08,0.75,0.25,1.05c0.16,0.3,0.38,0.53,0.65,0.69c0.27,0.16,0.55,0.24,0.86,0.24
		c0.31,0,0.6-0.08,0.88-0.23c0.27-0.16,0.49-0.38,0.65-0.67c0.16-0.29,0.24-0.64,0.24-1.05S483.58,128.45,483.42,128.16z"/>
</g>
<g>
	<path class="st1" d="M530.26,141.2h-1.68l-3.8-5.75v5.75h-1.68v-8.39h1.68l3.8,5.76v-5.76h1.68V141.2z"/>
	<path class="st1" d="M538.05,138.38h-4.86c0.04,0.48,0.21,0.86,0.5,1.13c0.3,0.27,0.66,0.41,1.09,0.41c0.62,0,1.07-0.27,1.33-0.8
		h1.81c-0.19,0.64-0.56,1.17-1.1,1.58c-0.54,0.41-1.21,0.62-2,0.62c-0.64,0-1.21-0.14-1.72-0.43c-0.51-0.28-0.9-0.69-1.19-1.21
		c-0.28-0.52-0.43-1.12-0.43-1.8c0-0.69,0.14-1.29,0.42-1.81c0.28-0.52,0.67-0.92,1.18-1.2s1.08-0.42,1.74-0.42
		c0.63,0,1.2,0.14,1.7,0.41c0.5,0.27,0.89,0.66,1.16,1.16c0.28,0.5,0.41,1.07,0.41,1.72C538.1,137.97,538.08,138.19,538.05,138.38z
		 M536.36,137.25c-0.01-0.43-0.16-0.78-0.47-1.04c-0.3-0.26-0.68-0.39-1.12-0.39c-0.42,0-0.77,0.13-1.05,0.38s-0.46,0.6-0.52,1.05
		H536.36z"/>
	<path class="st1" d="M549.55,135.21c0.5,0.5,0.75,1.2,0.75,2.09v3.9h-1.68v-3.67c0-0.52-0.13-0.92-0.4-1.19
		c-0.26-0.28-0.62-0.41-1.08-0.41s-0.82,0.14-1.09,0.41c-0.27,0.28-0.4,0.67-0.4,1.19v3.67h-1.68v-3.67c0-0.52-0.13-0.92-0.4-1.19
		c-0.26-0.28-0.62-0.41-1.08-0.41c-0.46,0-0.83,0.14-1.1,0.41c-0.27,0.28-0.4,0.67-0.4,1.19v3.67h-1.68v-6.65H541v0.8
		c0.22-0.28,0.49-0.5,0.83-0.66s0.71-0.24,1.12-0.24c0.52,0,0.98,0.11,1.39,0.33c0.41,0.22,0.72,0.53,0.95,0.94
		c0.22-0.38,0.53-0.69,0.94-0.92c0.41-0.23,0.86-0.35,1.34-0.35C548.4,134.46,549.05,134.71,549.55,135.21z"/>
	<path class="st1" d="M553.12,140.88c-0.51-0.28-0.91-0.69-1.21-1.21c-0.29-0.52-0.44-1.12-0.44-1.8c0-0.68,0.15-1.28,0.45-1.8
		c0.3-0.52,0.71-0.92,1.23-1.21c0.52-0.28,1.1-0.43,1.74-0.43c0.64,0,1.22,0.14,1.74,0.43c0.52,0.28,0.93,0.69,1.23,1.21
		c0.3,0.52,0.45,1.12,0.45,1.8c0,0.68-0.15,1.28-0.46,1.8c-0.31,0.52-0.72,0.92-1.25,1.21c-0.52,0.28-1.11,0.43-1.76,0.43
		C554.21,141.31,553.64,141.17,553.12,140.88z M555.71,139.62c0.27-0.15,0.48-0.37,0.64-0.67c0.16-0.3,0.24-0.66,0.24-1.08
		c0-0.63-0.17-1.12-0.5-1.46c-0.33-0.34-0.74-0.51-1.22-0.51c-0.48,0-0.88,0.17-1.21,0.51c-0.32,0.34-0.49,0.83-0.49,1.46
		s0.16,1.12,0.47,1.46c0.32,0.34,0.71,0.51,1.19,0.51C555.16,139.84,555.44,139.77,555.71,139.62z"/>
	<path class="st1" d="M559.55,136.07c0.28-0.52,0.67-0.92,1.16-1.2c0.5-0.28,1.06-0.43,1.7-0.43c0.82,0,1.51,0.21,2.05,0.62
		c0.54,0.41,0.9,0.99,1.09,1.73h-1.81c-0.1-0.29-0.26-0.51-0.49-0.68c-0.23-0.16-0.51-0.25-0.85-0.25c-0.48,0-0.86,0.17-1.14,0.52
		c-0.28,0.35-0.42,0.84-0.42,1.48c0,0.63,0.14,1.12,0.42,1.47c0.28,0.35,0.66,0.52,1.14,0.52c0.68,0,1.12-0.3,1.33-0.91h1.81
		c-0.18,0.72-0.55,1.29-1.09,1.72c-0.54,0.42-1.22,0.64-2.04,0.64c-0.64,0-1.21-0.14-1.7-0.43c-0.5-0.28-0.88-0.68-1.16-1.2
		c-0.28-0.52-0.42-1.12-0.42-1.81C559.13,137.19,559.27,136.59,559.55,136.07z"/>
	<path class="st1" d="M568,140.88c-0.51-0.28-0.91-0.69-1.21-1.21c-0.29-0.52-0.44-1.12-0.44-1.8c0-0.68,0.15-1.28,0.45-1.8
		c0.3-0.52,0.71-0.92,1.23-1.21c0.52-0.28,1.1-0.43,1.74-0.43c0.64,0,1.22,0.14,1.74,0.43c0.52,0.28,0.93,0.69,1.23,1.21
		c0.3,0.52,0.45,1.12,0.45,1.8c0,0.68-0.15,1.28-0.46,1.8c-0.31,0.52-0.72,0.92-1.25,1.21c-0.52,0.28-1.11,0.43-1.76,0.43
		C569.09,141.31,568.52,141.17,568,140.88z M570.59,139.62c0.27-0.15,0.48-0.37,0.64-0.67c0.16-0.3,0.24-0.66,0.24-1.08
		c0-0.63-0.17-1.12-0.5-1.46c-0.33-0.34-0.74-0.51-1.22-0.51c-0.48,0-0.88,0.17-1.21,0.51c-0.32,0.34-0.49,0.83-0.49,1.46
		s0.16,1.12,0.47,1.46c0.32,0.34,0.71,0.51,1.19,0.51C570.04,139.84,570.32,139.77,570.59,139.62z M571.16,132.74L568.4,134v-1.2
		l2.76-1.43V132.74z"/>
	<path class="st1" d="M580.04,135.21c0.49,0.5,0.73,1.2,0.73,2.09v3.9h-1.68v-3.67c0-0.53-0.13-0.93-0.4-1.22s-0.62-0.43-1.08-0.43
		c-0.46,0-0.83,0.14-1.1,0.43c-0.27,0.28-0.4,0.69-0.4,1.22v3.67h-1.68v-6.65h1.68v0.83c0.22-0.29,0.51-0.51,0.86-0.68
		c0.35-0.16,0.73-0.25,1.15-0.25C578.91,134.46,579.55,134.71,580.04,135.21z"/>
</g>
<g>
	<path class="st1" d="M553.41,227.91c-0.26,0.08-0.48,0.22-0.66,0.41c-0.17,0.2-0.29,0.45-0.36,0.75c-0.07,0.33-0.06,0.64,0.03,0.94
		c0.09,0.29,0.26,0.54,0.51,0.74c0.25,0.21,0.55,0.35,0.92,0.43c0.38,0.08,0.72,0.08,1.03-0.01c0.31-0.09,0.57-0.25,0.78-0.48
		c0.21-0.23,0.35-0.52,0.43-0.87c0.09-0.43,0.06-0.81-0.11-1.13s-0.45-0.57-0.84-0.75l-0.42,1.93l-0.86-0.19l0.66-3.04l0.98,0.21
		c0.38,0.16,0.7,0.4,0.98,0.72c0.28,0.32,0.48,0.7,0.59,1.13c0.12,0.43,0.12,0.89,0.02,1.37c-0.12,0.54-0.35,1.01-0.69,1.39
		c-0.34,0.38-0.75,0.65-1.24,0.81c-0.49,0.15-1.01,0.17-1.56,0.05c-0.55-0.12-1.02-0.35-1.4-0.7c-0.38-0.35-0.65-0.76-0.8-1.25
		c-0.15-0.49-0.16-1-0.05-1.54c0.14-0.63,0.41-1.15,0.82-1.55c0.41-0.4,0.91-0.63,1.51-0.68L553.41,227.91z"/>
	<path class="st1" d="M554.38,225.76c-0.31-0.26-0.52-0.56-0.65-0.91c-0.12-0.35-0.14-0.72-0.06-1.1c0.07-0.33,0.2-0.61,0.39-0.83
		c0.19-0.22,0.4-0.38,0.64-0.49l-0.64-0.14l0.25-1.14l4.46,0.97l-0.25,1.14l-0.65-0.14c0.18,0.19,0.31,0.43,0.39,0.71
		c0.08,0.29,0.09,0.59,0.01,0.93c-0.08,0.38-0.25,0.7-0.51,0.96c-0.26,0.27-0.59,0.45-0.98,0.55c-0.39,0.1-0.81,0.1-1.27,0
		C555.07,226.2,554.69,226.02,554.38,225.76z M555.56,222.8c-0.22,0.06-0.4,0.18-0.55,0.34c-0.14,0.16-0.24,0.34-0.29,0.55
		c-0.05,0.21-0.04,0.41,0.03,0.61c0.06,0.2,0.18,0.38,0.35,0.53c0.17,0.15,0.39,0.26,0.66,0.32c0.27,0.06,0.52,0.05,0.74-0.01
		c0.23-0.07,0.41-0.18,0.56-0.33c0.15-0.16,0.24-0.34,0.29-0.54c0.05-0.21,0.04-0.42-0.03-0.62c-0.07-0.21-0.18-0.38-0.36-0.53
		c-0.17-0.15-0.4-0.26-0.67-0.32C556.03,222.73,555.78,222.73,555.56,222.8z"/>
	<path class="st1" d="M555.58,220.29c-0.31-0.26-0.52-0.58-0.63-0.96c-0.12-0.37-0.13-0.78-0.04-1.21c0.12-0.55,0.36-0.98,0.71-1.28
		c0.36-0.3,0.8-0.46,1.32-0.47l-0.27,1.22c-0.21,0.02-0.38,0.1-0.53,0.23c-0.14,0.13-0.24,0.31-0.29,0.53
		c-0.07,0.32-0.01,0.6,0.18,0.84c0.19,0.24,0.5,0.41,0.93,0.5c0.42,0.09,0.77,0.07,1.05-0.07c0.27-0.14,0.45-0.37,0.52-0.69
		c0.1-0.46-0.04-0.8-0.42-1.03l0.27-1.22c0.46,0.23,0.79,0.56,0.99,0.98c0.21,0.43,0.25,0.91,0.13,1.46
		c-0.09,0.43-0.27,0.79-0.54,1.08c-0.26,0.29-0.59,0.49-0.98,0.61c-0.39,0.11-0.81,0.12-1.27,0.02
		C556.27,220.74,555.88,220.56,555.58,220.29z"/>
	<path class="st1" d="M556.52,211.83c0.2-0.23,0.47-0.39,0.79-0.47c0.32-0.08,0.68-0.08,1.08,0l2.62,0.57l-0.25,1.13l-2.46-0.54
		c-0.35-0.08-0.65-0.05-0.88,0.09c-0.23,0.14-0.38,0.36-0.44,0.66c-0.07,0.31-0.03,0.58,0.13,0.8c0.15,0.22,0.4,0.37,0.76,0.45
		l2.46,0.54l-0.25,1.13l-5.96-1.3l0.25-1.13l2.05,0.45c-0.16-0.19-0.27-0.41-0.33-0.68c-0.06-0.27-0.05-0.55,0.01-0.84
		C556.18,212.35,556.32,212.07,556.52,211.83z"/>
	<path class="st1" d="M557.79,210.13c-0.31-0.26-0.52-0.56-0.65-0.91c-0.12-0.35-0.14-0.72-0.06-1.1c0.07-0.33,0.2-0.61,0.39-0.83
		s0.4-0.38,0.64-0.49l-0.64-0.14l0.25-1.14l4.46,0.97l-0.25,1.14l-0.65-0.14c0.18,0.19,0.31,0.43,0.39,0.71
		c0.08,0.29,0.09,0.59,0.01,0.93c-0.08,0.38-0.25,0.7-0.51,0.96c-0.26,0.27-0.59,0.45-0.98,0.55c-0.39,0.1-0.81,0.1-1.27,0
		C558.48,210.57,558.1,210.39,557.79,210.13z M558.98,207.17c-0.22,0.06-0.4,0.18-0.55,0.34c-0.14,0.16-0.24,0.34-0.29,0.55
		c-0.05,0.21-0.04,0.41,0.03,0.61c0.06,0.2,0.18,0.38,0.35,0.53c0.17,0.15,0.39,0.26,0.66,0.32c0.27,0.06,0.52,0.05,0.74-0.01
		c0.23-0.07,0.41-0.18,0.56-0.33c0.15-0.16,0.24-0.34,0.29-0.54c0.05-0.21,0.04-0.42-0.03-0.62c-0.07-0.21-0.18-0.38-0.36-0.53
		c-0.17-0.15-0.4-0.26-0.67-0.31C559.44,207.1,559.2,207.1,558.98,207.17z"/>
	<path class="st1" d="M559.23,200.77c0.41-0.25,0.91-0.32,1.51-0.18l2.62,0.57l-0.25,1.13l-2.46-0.54
		c-0.35-0.08-0.65-0.05-0.88,0.09c-0.23,0.14-0.38,0.36-0.44,0.66c-0.07,0.31-0.03,0.58,0.13,0.8c0.15,0.22,0.4,0.37,0.76,0.45
		l2.46,0.54l-0.25,1.13l-4.46-0.97l0.25-1.13l0.56,0.12c-0.16-0.19-0.27-0.42-0.33-0.68c-0.06-0.26-0.06-0.53,0-0.8
		C558.56,201.41,558.83,201.02,559.23,200.77z"/>
	<path class="st1" d="M562.9,198.85l0.43-1.99l0.93,0.2l-0.71,3.27l-0.91-0.2l-2.2-2.52l-0.42,1.94l-0.93-0.2l0.71-3.24l0.91,0.2
		L562.9,198.85z"/>
	<path class="st1" d="M559.28,194.99c-0.16,0.1-0.33,0.14-0.51,0.09c-0.19-0.04-0.33-0.14-0.43-0.3c-0.1-0.16-0.12-0.34-0.08-0.54
		c0.04-0.2,0.14-0.35,0.3-0.45c0.16-0.1,0.33-0.14,0.51-0.09c0.19,0.04,0.33,0.14,0.43,0.3c0.1,0.16,0.12,0.34,0.08,0.54
		C559.53,194.73,559.43,194.88,559.28,194.99z M560.23,194.09l4.46,0.97l-0.25,1.13l-4.46-0.97L560.23,194.09z"/>
	<path class="st1" d="M560.98,191.28c-0.08-0.28-0.09-0.59-0.01-0.92c0.08-0.38,0.25-0.71,0.51-0.97c0.26-0.27,0.58-0.45,0.96-0.56
		c0.39-0.1,0.81-0.11,1.26-0.01c0.46,0.1,0.84,0.28,1.15,0.53c0.31,0.26,0.53,0.56,0.66,0.91c0.13,0.35,0.15,0.72,0.06,1.1
		c-0.07,0.33-0.2,0.6-0.39,0.82c-0.19,0.22-0.4,0.39-0.64,0.5l2.76,0.6l-0.25,1.13l-6.59-1.44l0.25-1.13l0.64,0.14
		C561.19,191.8,561.06,191.57,560.98,191.28z M562.72,189.99c-0.22,0.07-0.4,0.18-0.54,0.34c-0.14,0.16-0.24,0.34-0.28,0.55
		c-0.04,0.2-0.03,0.41,0.03,0.61c0.07,0.2,0.19,0.38,0.36,0.53c0.17,0.15,0.4,0.26,0.66,0.32c0.27,0.06,0.51,0.05,0.74-0.01
		s0.41-0.18,0.55-0.34c0.14-0.16,0.24-0.34,0.28-0.54c0.05-0.21,0.03-0.42-0.03-0.62c-0.07-0.2-0.19-0.38-0.36-0.54
		c-0.17-0.15-0.4-0.26-0.67-0.32C563.18,189.92,562.94,189.92,562.72,189.99z"/>
	<path class="st1" d="M562.68,187.76c-0.31-0.26-0.52-0.56-0.65-0.91c-0.12-0.35-0.14-0.72-0.06-1.1c0.07-0.33,0.2-0.61,0.39-0.83
		c0.19-0.22,0.4-0.38,0.64-0.49l-0.64-0.14l0.25-1.14l4.46,0.97l-0.25,1.14l-0.65-0.14c0.18,0.19,0.31,0.43,0.39,0.71
		c0.08,0.29,0.09,0.59,0.01,0.93c-0.08,0.38-0.25,0.7-0.51,0.96c-0.26,0.27-0.59,0.45-0.98,0.55c-0.39,0.1-0.81,0.1-1.27,0
		C563.37,188.2,562.98,188.02,562.68,187.76z M563.86,184.79c-0.22,0.06-0.4,0.18-0.55,0.34c-0.14,0.16-0.24,0.34-0.29,0.55
		c-0.05,0.21-0.04,0.41,0.03,0.61c0.06,0.2,0.18,0.38,0.35,0.53c0.17,0.15,0.39,0.26,0.66,0.32c0.27,0.06,0.52,0.05,0.74-0.01
		c0.23-0.07,0.41-0.18,0.56-0.33c0.15-0.16,0.24-0.34,0.29-0.54c0.05-0.21,0.04-0.42-0.03-0.62c-0.07-0.21-0.18-0.38-0.36-0.53
		c-0.17-0.15-0.4-0.26-0.67-0.31C564.32,184.73,564.08,184.73,563.86,184.79z M561.17,184.2l0.44,2.04l-0.81-0.18l-0.55-2.06
		L561.17,184.2z"/>
</g>
<g>
	<path class="st1" d="M493.66,250.74v1.13h-1.85v5.83h-1.4v-5.83h-1.85v-1.13H493.66z"/>
	<path class="st1" d="M495.69,257.44c-0.43-0.24-0.76-0.57-1-1c-0.24-0.43-0.36-0.93-0.36-1.5c0-0.56,0.12-1.06,0.37-1.5
		c0.25-0.43,0.59-0.77,1.02-1c0.43-0.24,0.91-0.35,1.45-0.35c0.53,0,1.01,0.12,1.45,0.35c0.43,0.24,0.77,0.57,1.02,1
		c0.25,0.43,0.37,0.93,0.37,1.5c0,0.57-0.13,1.06-0.38,1.5c-0.26,0.43-0.6,0.77-1.04,1c-0.44,0.24-0.92,0.35-1.46,0.35
		C496.6,257.79,496.12,257.67,495.69,257.44z M497.84,256.39c0.22-0.12,0.4-0.31,0.53-0.55c0.13-0.25,0.2-0.54,0.2-0.9
		c0-0.52-0.14-0.93-0.41-1.21c-0.28-0.28-0.61-0.42-1.01-0.42c-0.4,0-0.73,0.14-1,0.42c-0.27,0.28-0.4,0.69-0.4,1.21
		s0.13,0.93,0.39,1.21c0.26,0.28,0.59,0.42,0.99,0.42C497.38,256.57,497.62,256.51,497.84,256.39z"/>
	<path class="st1" d="M501.03,253.44c0.23-0.43,0.55-0.76,0.97-1c0.41-0.24,0.88-0.35,1.41-0.35c0.68,0,1.25,0.17,1.7,0.51
		c0.45,0.34,0.75,0.82,0.9,1.44h-1.51c-0.08-0.24-0.21-0.43-0.4-0.56c-0.19-0.14-0.42-0.2-0.7-0.2c-0.4,0-0.71,0.14-0.95,0.43
		c-0.23,0.29-0.35,0.7-0.35,1.23c0,0.52,0.12,0.93,0.35,1.22c0.23,0.29,0.55,0.43,0.95,0.43c0.56,0,0.93-0.25,1.11-0.76h1.51
		c-0.15,0.6-0.46,1.07-0.91,1.43c-0.45,0.35-1.02,0.53-1.69,0.53c-0.53,0-1-0.12-1.41-0.35c-0.41-0.24-0.73-0.57-0.97-1
		c-0.23-0.43-0.35-0.93-0.35-1.5C500.68,254.37,500.79,253.87,501.03,253.44z"/>
	<path class="st1" d="M507.01,253.43c0.22-0.43,0.52-0.76,0.91-1c0.38-0.23,0.81-0.35,1.28-0.35c0.41,0,0.77,0.08,1.08,0.25
		s0.56,0.38,0.74,0.63v-0.79h1.41v5.52h-1.41v-0.81c-0.18,0.26-0.43,0.47-0.74,0.64c-0.32,0.17-0.68,0.25-1.09,0.25
		c-0.46,0-0.89-0.12-1.27-0.36c-0.38-0.24-0.68-0.58-0.91-1.01c-0.22-0.43-0.33-0.94-0.33-1.5
		C506.68,254.36,506.79,253.86,507.01,253.43z M510.82,254.07c-0.13-0.24-0.31-0.43-0.54-0.56c-0.23-0.13-0.47-0.19-0.73-0.19
		c-0.26,0-0.5,0.06-0.72,0.19c-0.22,0.13-0.4,0.31-0.53,0.55c-0.14,0.24-0.2,0.53-0.2,0.86c0,0.33,0.07,0.62,0.2,0.87
		c0.14,0.25,0.32,0.44,0.54,0.57c0.22,0.13,0.46,0.2,0.71,0.2c0.26,0,0.5-0.06,0.73-0.19c0.23-0.13,0.4-0.32,0.54-0.56
		c0.13-0.24,0.2-0.53,0.2-0.87S510.96,254.31,510.82,254.07z"/>
	<path class="st1" d="M518.45,252.72c0.41,0.42,0.61,1,0.61,1.74v3.24h-1.4v-3.05c0-0.44-0.11-0.78-0.33-1.01
		c-0.22-0.24-0.52-0.35-0.9-0.35c-0.39,0-0.69,0.12-0.91,0.35c-0.22,0.24-0.33,0.57-0.33,1.01v3.05h-1.4v-5.52h1.4v0.69
		c0.19-0.24,0.42-0.43,0.71-0.56c0.29-0.14,0.61-0.2,0.95-0.2C517.51,252.1,518.04,252.3,518.45,252.72z"/>
	<path class="st1" d="M521.66,256.55h2.46v1.15h-4.05v-1.13l2.41-3.25h-2.4v-1.15h4.01v1.13L521.66,256.55z"/>
	<path class="st1" d="M525.29,251.29c-0.16-0.16-0.24-0.35-0.24-0.58c0-0.23,0.08-0.43,0.24-0.58c0.16-0.16,0.37-0.23,0.61-0.23
		s0.45,0.08,0.61,0.23c0.16,0.16,0.24,0.35,0.24,0.58c0,0.23-0.08,0.43-0.24,0.58c-0.16,0.16-0.37,0.23-0.61,0.23
		S525.46,251.44,525.29,251.29z M526.59,252.18v5.52h-1.4v-5.52H526.59z"/>
	<path class="st1" d="M530.11,252.34c0.32-0.17,0.68-0.25,1.08-0.25c0.47,0,0.9,0.12,1.28,0.35c0.38,0.23,0.68,0.56,0.91,0.99
		c0.22,0.43,0.33,0.92,0.33,1.49c0,0.56-0.11,1.07-0.33,1.5c-0.22,0.44-0.52,0.77-0.91,1.01c-0.38,0.24-0.81,0.36-1.28,0.36
		c-0.41,0-0.76-0.08-1.07-0.25c-0.31-0.17-0.56-0.38-0.75-0.63v3.42h-1.4v-8.15h1.4v0.8C529.54,252.72,529.79,252.51,530.11,252.34z
		 M532.08,254.06c-0.14-0.24-0.32-0.43-0.54-0.55c-0.22-0.13-0.46-0.19-0.72-0.19c-0.25,0-0.49,0.06-0.71,0.19
		c-0.22,0.13-0.4,0.32-0.54,0.56s-0.2,0.54-0.2,0.87c0,0.33,0.07,0.62,0.2,0.87c0.14,0.25,0.32,0.43,0.54,0.56
		c0.22,0.13,0.46,0.19,0.71,0.19c0.26,0,0.5-0.07,0.72-0.2c0.22-0.13,0.4-0.32,0.54-0.57c0.14-0.25,0.2-0.54,0.2-0.88
		C532.29,254.59,532.22,254.3,532.08,254.06z"/>
	<path class="st1" d="M534.7,253.43c0.22-0.43,0.52-0.76,0.91-1c0.38-0.23,0.81-0.35,1.28-0.35c0.41,0,0.77,0.08,1.08,0.25
		s0.56,0.38,0.74,0.63v-0.79h1.41v5.52h-1.41v-0.81c-0.18,0.26-0.43,0.47-0.74,0.64c-0.32,0.17-0.68,0.25-1.09,0.25
		c-0.46,0-0.89-0.12-1.27-0.36c-0.38-0.24-0.68-0.58-0.91-1.01c-0.22-0.43-0.33-0.94-0.33-1.5
		C534.37,254.36,534.48,253.86,534.7,253.43z M538.52,254.07c-0.13-0.24-0.31-0.43-0.54-0.56c-0.23-0.13-0.47-0.19-0.73-0.19
		c-0.26,0-0.5,0.06-0.72,0.19c-0.22,0.13-0.4,0.31-0.53,0.55c-0.14,0.24-0.2,0.53-0.2,0.86c0,0.33,0.07,0.62,0.2,0.87
		c0.14,0.25,0.32,0.44,0.54,0.57c0.22,0.13,0.46,0.2,0.71,0.2c0.26,0,0.5-0.06,0.73-0.19c0.23-0.13,0.4-0.32,0.54-0.56
		c0.13-0.24,0.2-0.53,0.2-0.87S538.65,254.31,538.52,254.07z M538.53,250.74l-2.29,1.05v-1l2.29-1.19V250.74z"/>
</g>
<g>
	<path class="st1" d="M471.9,335.5c-0.47-0.2-0.84-0.49-1.11-0.86c-0.27-0.38-0.41-0.82-0.42-1.33h1.8
		c0.02,0.34,0.15,0.62,0.37,0.82c0.22,0.2,0.52,0.3,0.91,0.3c0.39,0,0.7-0.09,0.92-0.28c0.22-0.19,0.34-0.43,0.34-0.74
		c0-0.25-0.08-0.45-0.23-0.61s-0.34-0.29-0.57-0.38c-0.23-0.09-0.54-0.19-0.94-0.31c-0.54-0.16-0.99-0.32-1.33-0.47
		s-0.63-0.39-0.88-0.71s-0.37-0.74-0.37-1.27c0-0.5,0.12-0.93,0.37-1.3c0.25-0.37,0.6-0.65,1.04-0.85c0.45-0.2,0.96-0.29,1.54-0.29
		c0.86,0,1.57,0.21,2.11,0.63s0.84,1.01,0.89,1.76h-1.85c-0.02-0.29-0.14-0.53-0.37-0.71c-0.23-0.19-0.53-0.28-0.91-0.28
		c-0.33,0-0.59,0.08-0.79,0.25c-0.2,0.17-0.29,0.41-0.29,0.73c0,0.22,0.07,0.41,0.22,0.56c0.15,0.15,0.33,0.27,0.55,0.36
		c0.22,0.09,0.53,0.2,0.93,0.32c0.54,0.16,0.99,0.32,1.33,0.48c0.34,0.16,0.64,0.4,0.89,0.72c0.25,0.32,0.37,0.74,0.37,1.26
		c0,0.45-0.12,0.86-0.35,1.25s-0.57,0.69-1.02,0.92c-0.45,0.23-0.98,0.34-1.6,0.34C472.89,335.8,472.37,335.7,471.9,335.5z"/>
	<path class="st1" d="M479.12,335.4c-0.51-0.28-0.91-0.69-1.21-1.21c-0.29-0.52-0.44-1.12-0.44-1.8c0-0.68,0.15-1.28,0.45-1.8
		c0.3-0.52,0.71-0.92,1.23-1.21c0.52-0.28,1.1-0.43,1.74-0.43c0.64,0,1.22,0.14,1.74,0.43c0.52,0.28,0.93,0.69,1.23,1.21
		c0.3,0.52,0.45,1.12,0.45,1.8c0,0.68-0.15,1.28-0.46,1.8c-0.31,0.52-0.72,0.92-1.25,1.21c-0.52,0.28-1.11,0.43-1.76,0.43
		C480.2,335.83,479.63,335.68,479.12,335.4z M481.7,334.14c0.27-0.15,0.48-0.37,0.64-0.67c0.16-0.3,0.24-0.66,0.24-1.08
		c0-0.63-0.17-1.12-0.5-1.46c-0.33-0.34-0.74-0.51-1.22-0.51c-0.48,0-0.88,0.17-1.21,0.51c-0.32,0.34-0.49,0.83-0.49,1.46
		s0.16,1.12,0.47,1.46c0.32,0.34,0.71,0.51,1.19,0.51C481.15,334.36,481.43,334.29,481.7,334.14z"/>
	<path class="st1" d="M488.12,329.27c0.38-0.2,0.81-0.31,1.3-0.31c0.57,0,1.08,0.14,1.54,0.42s0.82,0.68,1.09,1.19
		c0.27,0.52,0.4,1.11,0.4,1.79c0,0.68-0.13,1.28-0.4,1.81c-0.27,0.52-0.63,0.93-1.09,1.22s-0.97,0.43-1.54,0.43
		c-0.49,0-0.92-0.1-1.29-0.3c-0.37-0.2-0.67-0.45-0.91-0.76v4.12h-1.68v-9.82h1.68v0.96C487.44,329.73,487.74,329.47,488.12,329.27z
		 M490.5,331.33c-0.16-0.29-0.38-0.51-0.65-0.67c-0.27-0.15-0.56-0.23-0.87-0.23c-0.3,0-0.59,0.08-0.86,0.23
		c-0.27,0.16-0.48,0.38-0.65,0.68s-0.25,0.64-0.25,1.04c0,0.4,0.08,0.75,0.25,1.04s0.38,0.52,0.65,0.68
		c0.27,0.16,0.55,0.23,0.86,0.23c0.31,0,0.6-0.08,0.87-0.24c0.27-0.16,0.48-0.39,0.65-0.68c0.16-0.3,0.25-0.65,0.25-1.06
		C490.74,331.97,490.66,331.62,490.5,331.33z"/>
	<path class="st1" d="M494.91,335.4c-0.51-0.28-0.91-0.69-1.21-1.21c-0.29-0.52-0.44-1.12-0.44-1.8c0-0.68,0.15-1.28,0.45-1.8
		c0.3-0.52,0.71-0.92,1.23-1.21c0.52-0.28,1.1-0.43,1.74-0.43c0.64,0,1.22,0.14,1.74,0.43c0.52,0.28,0.93,0.69,1.23,1.21
		c0.3,0.52,0.45,1.12,0.45,1.8c0,0.68-0.15,1.28-0.46,1.8c-0.31,0.52-0.72,0.92-1.25,1.21c-0.52,0.28-1.11,0.43-1.76,0.43
		C496,335.83,495.42,335.68,494.91,335.4z M497.49,334.14c0.27-0.15,0.48-0.37,0.64-0.67c0.16-0.3,0.24-0.66,0.24-1.08
		c0-0.63-0.17-1.12-0.5-1.46c-0.33-0.34-0.74-0.51-1.22-0.51c-0.48,0-0.88,0.17-1.21,0.51c-0.32,0.34-0.49,0.83-0.49,1.46
		s0.16,1.12,0.47,1.46c0.32,0.34,0.71,0.51,1.19,0.51C496.94,334.36,497.23,334.29,497.49,334.14z M498.06,327.26l-2.76,1.26v-1.2
		l2.76-1.43V327.26z"/>
</g>
<g>
	<path class="st1" d="M389.22,340.58c0.37-0.65,0.88-1.16,1.52-1.52c0.64-0.36,1.37-0.55,2.17-0.55c0.94,0,1.76,0.24,2.46,0.72
		c0.7,0.48,1.2,1.14,1.48,1.99h-1.93c-0.19-0.4-0.46-0.7-0.81-0.9c-0.35-0.2-0.75-0.3-1.21-0.3c-0.49,0-0.92,0.11-1.3,0.34
		c-0.38,0.23-0.68,0.55-0.89,0.97s-0.32,0.9-0.32,1.46c0,0.55,0.11,1.04,0.32,1.46s0.51,0.74,0.89,0.97
		c0.38,0.23,0.81,0.34,1.3,0.34c0.46,0,0.86-0.1,1.21-0.31c0.35-0.2,0.62-0.51,0.81-0.91h1.93c-0.28,0.86-0.77,1.52-1.47,2
		c-0.7,0.48-1.52,0.71-2.47,0.71c-0.8,0-1.52-0.18-2.17-0.55c-0.64-0.36-1.15-0.87-1.52-1.52c-0.37-0.65-0.56-1.38-0.56-2.21
		C388.66,341.97,388.85,341.23,389.22,340.58z"/>
	<path class="st1" d="M403.37,340.58c0.39,0.22,0.7,0.54,0.92,0.97c0.22,0.43,0.33,0.94,0.33,1.54v3.9h-1.68v-3.67
		c0-0.53-0.13-0.93-0.4-1.22s-0.62-0.43-1.08-0.43c-0.46,0-0.83,0.14-1.1,0.43c-0.27,0.28-0.4,0.69-0.4,1.22v3.67h-1.68v-8.88h1.68
		v3.06c0.22-0.29,0.5-0.51,0.86-0.68s0.76-0.25,1.2-0.25C402.53,340.25,402.98,340.36,403.37,340.58z"/>
	<path class="st1" d="M408.44,338.61l-2.76,1.26v-1.2l2.76-1.43V338.61z M407.97,340.34v6.65h-1.68v-6.65H407.97z"/>
	<path class="st1" d="M409.67,341.85c0.27-0.52,0.63-0.92,1.09-1.2s0.97-0.42,1.54-0.42c0.5,0,0.93,0.1,1.3,0.3s0.67,0.45,0.89,0.76
		v-0.95h1.69v6.65h-1.69v-0.97c-0.22,0.31-0.51,0.57-0.89,0.77c-0.38,0.2-0.82,0.31-1.31,0.31c-0.56,0-1.07-0.14-1.53-0.43
		s-0.82-0.69-1.09-1.22c-0.27-0.52-0.4-1.13-0.4-1.81C409.26,342.97,409.4,342.37,409.67,341.85z M414.26,342.62
		c-0.16-0.29-0.38-0.52-0.65-0.67c-0.27-0.16-0.56-0.23-0.88-0.23c-0.31,0-0.6,0.08-0.86,0.23c-0.26,0.15-0.48,0.37-0.64,0.67
		c-0.16,0.29-0.25,0.64-0.25,1.04c0,0.4,0.08,0.75,0.25,1.05c0.16,0.3,0.38,0.53,0.65,0.69c0.27,0.16,0.55,0.24,0.86,0.24
		c0.31,0,0.6-0.08,0.88-0.23c0.27-0.16,0.49-0.38,0.65-0.67c0.16-0.29,0.24-0.64,0.24-1.05S414.42,342.91,414.26,342.62z"/>
</g>
<g>
	<path class="st1" d="M394.69,283.15c0.37-0.65,0.88-1.16,1.52-1.52c0.64-0.36,1.37-0.55,2.17-0.55c0.94,0,1.76,0.24,2.46,0.72
		c0.7,0.48,1.2,1.14,1.48,1.99h-1.93c-0.19-0.4-0.46-0.7-0.81-0.9c-0.35-0.2-0.75-0.3-1.21-0.3c-0.49,0-0.92,0.11-1.3,0.34
		c-0.38,0.23-0.68,0.55-0.89,0.97s-0.32,0.9-0.32,1.46c0,0.55,0.11,1.04,0.32,1.46s0.51,0.74,0.89,0.97
		c0.38,0.23,0.81,0.34,1.3,0.34c0.46,0,0.86-0.1,1.21-0.31c0.35-0.2,0.62-0.51,0.81-0.91h1.93c-0.28,0.86-0.77,1.52-1.47,2
		c-0.7,0.48-1.52,0.71-2.47,0.71c-0.8,0-1.52-0.18-2.17-0.55c-0.64-0.36-1.15-0.87-1.52-1.52c-0.37-0.65-0.56-1.38-0.56-2.21
		C394.13,284.54,394.32,283.8,394.69,283.15z"/>
	<path class="st1" d="M403.72,284.43c0.27-0.52,0.63-0.92,1.09-1.2s0.97-0.42,1.54-0.42c0.5,0,0.93,0.1,1.3,0.3s0.67,0.45,0.89,0.76
		v-0.95h1.69v6.65h-1.69v-0.97c-0.22,0.31-0.51,0.57-0.89,0.77c-0.38,0.2-0.82,0.31-1.31,0.31c-0.56,0-1.07-0.14-1.53-0.43
		s-0.82-0.69-1.09-1.22c-0.27-0.52-0.4-1.13-0.4-1.81C403.32,285.54,403.46,284.95,403.72,284.43z M408.31,285.19
		c-0.16-0.29-0.38-0.52-0.65-0.67c-0.27-0.16-0.56-0.23-0.88-0.23c-0.31,0-0.6,0.08-0.86,0.23c-0.26,0.15-0.48,0.37-0.64,0.67
		c-0.16,0.29-0.25,0.64-0.25,1.04c0,0.4,0.08,0.75,0.25,1.05c0.16,0.3,0.38,0.53,0.65,0.69c0.27,0.16,0.55,0.24,0.86,0.24
		c0.31,0,0.6-0.08,0.88-0.23c0.27-0.16,0.49-0.38,0.65-0.67c0.16-0.29,0.24-0.64,0.24-1.05S408.47,285.48,408.31,285.19z"/>
	<path class="st1" d="M413.57,290.65c0,0.74-0.18,1.27-0.55,1.59c-0.36,0.32-0.89,0.49-1.57,0.49h-0.74v-1.43h0.48
		c0.26,0,0.44-0.05,0.54-0.15s0.16-0.26,0.16-0.49v-7.75h1.68V290.65z M411.99,281.84c-0.2-0.19-0.29-0.42-0.29-0.7
		s0.1-0.51,0.29-0.7c0.2-0.19,0.45-0.28,0.75-0.28c0.3,0,0.54,0.09,0.73,0.28c0.19,0.19,0.29,0.42,0.29,0.7s-0.1,0.51-0.29,0.7
		c-0.19,0.19-0.44,0.28-0.73,0.28C412.44,282.12,412.19,282.03,411.99,281.84z"/>
	<path class="st1" d="M415.34,281.84c-0.2-0.19-0.29-0.42-0.29-0.7s0.1-0.51,0.29-0.7c0.2-0.19,0.44-0.28,0.74-0.28
		s0.54,0.09,0.74,0.28c0.2,0.19,0.29,0.42,0.29,0.7s-0.1,0.51-0.29,0.7c-0.2,0.19-0.44,0.28-0.74,0.28S415.54,282.03,415.34,281.84z
		 M416.91,282.91v6.65h-1.68v-6.65H416.91z"/>
	<path class="st1" d="M418.55,284.43c0.28-0.52,0.67-0.92,1.16-1.2c0.5-0.28,1.06-0.43,1.7-0.43c0.82,0,1.51,0.21,2.05,0.62
		c0.54,0.41,0.9,0.99,1.09,1.73h-1.81c-0.1-0.29-0.26-0.51-0.49-0.68c-0.23-0.16-0.51-0.25-0.85-0.25c-0.48,0-0.86,0.17-1.14,0.52
		c-0.28,0.35-0.42,0.84-0.42,1.48c0,0.63,0.14,1.12,0.42,1.47c0.28,0.35,0.66,0.52,1.14,0.52c0.68,0,1.12-0.3,1.33-0.91h1.81
		c-0.18,0.72-0.55,1.29-1.09,1.72c-0.54,0.42-1.22,0.64-2.04,0.64c-0.64,0-1.21-0.14-1.7-0.43c-0.5-0.28-0.88-0.68-1.16-1.2
		c-0.28-0.52-0.42-1.12-0.42-1.81C418.13,285.55,418.27,284.95,418.55,284.43z"/>
	<path class="st1" d="M425.75,284.43c0.27-0.52,0.63-0.92,1.09-1.2s0.97-0.42,1.54-0.42c0.5,0,0.93,0.1,1.3,0.3s0.67,0.45,0.89,0.76
		v-0.95h1.69v6.65h-1.69v-0.97c-0.22,0.31-0.51,0.57-0.89,0.77c-0.38,0.2-0.82,0.31-1.31,0.31c-0.56,0-1.07-0.14-1.53-0.43
		s-0.82-0.69-1.09-1.22c-0.27-0.52-0.4-1.13-0.4-1.81C425.35,285.54,425.49,284.95,425.75,284.43z M430.34,285.19
		c-0.16-0.29-0.38-0.52-0.65-0.67c-0.27-0.16-0.56-0.23-0.88-0.23c-0.31,0-0.6,0.08-0.86,0.23c-0.26,0.15-0.48,0.37-0.64,0.67
		c-0.16,0.29-0.25,0.64-0.25,1.04c0,0.4,0.08,0.75,0.25,1.05c0.16,0.3,0.38,0.53,0.65,0.69c0.27,0.16,0.55,0.24,0.86,0.24
		c0.31,0,0.6-0.08,0.88-0.23c0.27-0.16,0.49-0.38,0.65-0.67c0.16-0.29,0.24-0.64,0.24-1.05S430.5,285.48,430.34,285.19z
		 M430.36,281.19l-2.76,1.26v-1.2l2.76-1.43V281.19z"/>
</g>
<g>
	<path class="st1" d="M365.29,248.43v1.36h-2.23v7.02h-1.68v-7.02h-2.23v-1.36H365.29z"/>
	<path class="st1" d="M366.48,251.67c0.27-0.52,0.63-0.92,1.09-1.2s0.97-0.42,1.54-0.42c0.5,0,0.93,0.1,1.3,0.3s0.67,0.45,0.89,0.76
		v-0.95H373v6.65h-1.69v-0.97c-0.22,0.31-0.51,0.57-0.89,0.77c-0.38,0.2-0.82,0.31-1.31,0.31c-0.56,0-1.07-0.14-1.53-0.43
		s-0.82-0.69-1.09-1.22c-0.27-0.52-0.4-1.13-0.4-1.81C366.08,252.78,366.21,252.19,366.48,251.67z M371.07,252.43
		c-0.16-0.29-0.38-0.52-0.65-0.67c-0.27-0.16-0.56-0.23-0.88-0.23c-0.31,0-0.6,0.08-0.86,0.23c-0.26,0.15-0.48,0.37-0.64,0.67
		c-0.16,0.29-0.25,0.64-0.25,1.04c0,0.4,0.08,0.75,0.25,1.05c0.16,0.3,0.38,0.53,0.65,0.69c0.27,0.16,0.55,0.24,0.86,0.24
		c0.31,0,0.6-0.08,0.88-0.23c0.27-0.16,0.49-0.38,0.65-0.67c0.16-0.29,0.24-0.64,0.24-1.05S371.23,252.72,371.07,252.43z"/>
	<path class="st1" d="M377.22,250.35c0.38-0.2,0.81-0.3,1.3-0.3c0.57,0,1.08,0.14,1.54,0.42s0.82,0.68,1.09,1.19
		c0.27,0.52,0.4,1.11,0.4,1.79c0,0.68-0.13,1.28-0.4,1.81c-0.27,0.52-0.63,0.93-1.09,1.22s-0.97,0.43-1.54,0.43
		c-0.5,0-0.93-0.1-1.3-0.29c-0.37-0.2-0.67-0.45-0.89-0.76v0.95h-1.68v-8.88h1.68v3.2C376.54,250.81,376.84,250.55,377.22,250.35z
		 M379.59,252.42c-0.16-0.29-0.38-0.51-0.65-0.67c-0.27-0.15-0.56-0.23-0.87-0.23c-0.3,0-0.59,0.08-0.86,0.23
		c-0.27,0.16-0.48,0.38-0.65,0.68s-0.25,0.64-0.25,1.04c0,0.4,0.08,0.75,0.25,1.04s0.38,0.52,0.65,0.68
		c0.27,0.16,0.55,0.23,0.86,0.23c0.31,0,0.6-0.08,0.87-0.24c0.27-0.16,0.48-0.39,0.65-0.68c0.16-0.3,0.25-0.65,0.25-1.06
		C379.84,253.06,379.76,252.71,379.59,252.42z"/>
	<path class="st1" d="M382.89,249.08c-0.2-0.19-0.29-0.42-0.29-0.7s0.1-0.51,0.29-0.7c0.2-0.19,0.44-0.28,0.74-0.28
		s0.54,0.09,0.74,0.28c0.2,0.19,0.29,0.42,0.29,0.7s-0.1,0.51-0.29,0.7c-0.2,0.19-0.44,0.28-0.74,0.28S383.09,249.27,382.89,249.08z
		 M384.46,250.15v6.65h-1.68v-6.65H384.46z"/>
	<path class="st1" d="M387.34,256.49c-0.51-0.28-0.91-0.69-1.21-1.21c-0.29-0.52-0.44-1.12-0.44-1.8c0-0.68,0.15-1.28,0.45-1.8
		c0.3-0.52,0.71-0.92,1.23-1.21c0.52-0.28,1.1-0.43,1.74-0.43c0.64,0,1.22,0.14,1.74,0.43c0.52,0.28,0.93,0.69,1.23,1.21
		c0.3,0.52,0.45,1.12,0.45,1.8c0,0.68-0.15,1.28-0.46,1.8c-0.31,0.52-0.72,0.92-1.25,1.21c-0.52,0.28-1.11,0.43-1.76,0.43
		C388.43,256.91,387.85,256.77,387.34,256.49z M389.93,255.23c0.27-0.15,0.48-0.37,0.64-0.67c0.16-0.3,0.24-0.66,0.24-1.08
		c0-0.63-0.17-1.12-0.5-1.46c-0.33-0.34-0.74-0.51-1.22-0.51c-0.48,0-0.88,0.17-1.21,0.51c-0.32,0.34-0.49,0.83-0.49,1.46
		s0.16,1.12,0.47,1.46c0.32,0.34,0.71,0.51,1.19,0.51C389.37,255.45,389.66,255.37,389.93,255.23z"/>
</g>
<g>
	<path class="st1" d="M304.2,352.22v1.36h-2.23v7.02h-1.68v-7.02h-2.23v-1.36H304.2z"/>
	<path class="st1" d="M311.56,357.78h-4.86c0.04,0.48,0.21,0.86,0.5,1.13c0.3,0.27,0.66,0.41,1.09,0.41c0.62,0,1.07-0.27,1.33-0.8
		h1.81c-0.19,0.64-0.56,1.17-1.1,1.58c-0.54,0.41-1.21,0.62-2,0.62c-0.64,0-1.21-0.14-1.72-0.43c-0.51-0.28-0.9-0.69-1.19-1.21
		c-0.28-0.52-0.43-1.12-0.43-1.8c0-0.69,0.14-1.29,0.42-1.81c0.28-0.52,0.67-0.92,1.18-1.2s1.08-0.42,1.74-0.42
		c0.63,0,1.2,0.14,1.7,0.41c0.5,0.27,0.89,0.66,1.16,1.16c0.28,0.5,0.41,1.07,0.41,1.72C311.6,357.37,311.59,357.59,311.56,357.78z
		 M309.86,356.65c-0.01-0.43-0.16-0.78-0.47-1.04c-0.3-0.26-0.68-0.39-1.12-0.39c-0.42,0-0.77,0.13-1.05,0.38s-0.46,0.6-0.52,1.05
		H309.86z"/>
	<path class="st1" d="M318.43,354.6c0.49,0.5,0.73,1.2,0.73,2.09v3.9h-1.68v-3.67c0-0.53-0.13-0.93-0.4-1.22s-0.62-0.43-1.08-0.43
		c-0.46,0-0.83,0.14-1.1,0.43c-0.27,0.28-0.4,0.69-0.4,1.22v3.67h-1.68v-6.65h1.68v0.83c0.22-0.29,0.51-0.51,0.86-0.68
		c0.35-0.16,0.73-0.25,1.15-0.25C317.3,353.85,317.95,354.1,318.43,354.6z"/>
	<path class="st1" d="M322.44,361.69c0,0.74-0.18,1.27-0.55,1.59c-0.36,0.32-0.89,0.49-1.57,0.49h-0.74v-1.43h0.48
		c0.26,0,0.44-0.05,0.54-0.15s0.16-0.26,0.16-0.49v-7.75h1.68V361.69z M320.86,352.88c-0.2-0.19-0.29-0.42-0.29-0.7
		s0.1-0.51,0.29-0.7c0.2-0.19,0.45-0.28,0.75-0.28c0.3,0,0.54,0.09,0.73,0.28c0.19,0.19,0.29,0.42,0.29,0.7s-0.1,0.51-0.29,0.7
		c-0.19,0.19-0.44,0.28-0.73,0.28C321.31,353.16,321.06,353.06,320.86,352.88z"/>
	<path class="st1" d="M325.32,360.28c-0.51-0.28-0.91-0.69-1.21-1.21c-0.29-0.52-0.44-1.12-0.44-1.8c0-0.68,0.15-1.28,0.45-1.8
		c0.3-0.52,0.71-0.92,1.23-1.21c0.52-0.28,1.1-0.43,1.74-0.43c0.64,0,1.22,0.14,1.74,0.43c0.52,0.28,0.93,0.69,1.23,1.21
		c0.3,0.52,0.45,1.12,0.45,1.8c0,0.68-0.15,1.28-0.46,1.8c-0.31,0.52-0.72,0.92-1.25,1.21c-0.52,0.28-1.11,0.43-1.76,0.43
		C326.41,360.71,325.83,360.56,325.32,360.28z M327.91,359.02c0.27-0.15,0.48-0.37,0.64-0.67c0.16-0.3,0.24-0.66,0.24-1.08
		c0-0.63-0.17-1.12-0.5-1.46c-0.33-0.34-0.74-0.51-1.22-0.51c-0.48,0-0.88,0.17-1.21,0.51c-0.32,0.34-0.49,0.83-0.49,1.46
		s0.16,1.12,0.47,1.46c0.32,0.34,0.71,0.51,1.19,0.51C327.35,359.24,327.64,359.17,327.91,359.02z"/>
</g>
<g>
	<path class="st1" d="M311.68,431.35c-0.39-0.64-0.58-1.34-0.59-2.07c0-0.74,0.19-1.46,0.58-2.16c0.46-0.82,1.07-1.41,1.83-1.79
		c0.76-0.38,1.58-0.49,2.46-0.31l-0.94,1.69c-0.44-0.03-0.84,0.06-1.18,0.27c-0.35,0.21-0.63,0.51-0.85,0.91
		c-0.24,0.43-0.35,0.86-0.34,1.3c0.01,0.44,0.15,0.86,0.41,1.25c0.26,0.39,0.63,0.72,1.12,0.99c0.48,0.27,0.96,0.42,1.43,0.44
		c0.47,0.02,0.9-0.08,1.28-0.3c0.38-0.22,0.7-0.54,0.93-0.97c0.22-0.4,0.33-0.8,0.32-1.2c-0.01-0.4-0.14-0.79-0.39-1.15l0.94-1.69
		c0.61,0.66,0.95,1.41,1.03,2.26c0.07,0.84-0.12,1.68-0.58,2.5c-0.39,0.7-0.9,1.24-1.53,1.62c-0.63,0.38-1.32,0.58-2.07,0.59
		c-0.75,0.01-1.48-0.19-2.2-0.59C312.62,432.52,312.07,431.99,311.68,431.35z"/>
	<path class="st1" d="M322.02,425.35c-0.5,0.31-1.04,0.46-1.64,0.46c-0.6,0-1.19-0.17-1.78-0.5c-0.59-0.33-1.04-0.76-1.35-1.27
		c-0.31-0.52-0.46-1.07-0.45-1.66c0.01-0.59,0.17-1.17,0.48-1.73c0.31-0.56,0.72-1,1.22-1.31c0.5-0.31,1.05-0.48,1.65-0.48
		c0.6-0.01,1.2,0.15,1.79,0.49c0.59,0.33,1.04,0.76,1.34,1.28c0.3,0.52,0.45,1.08,0.44,1.68c-0.01,0.6-0.17,1.18-0.49,1.74
		C322.93,424.61,322.52,425.04,322.02,425.35z M322.19,422.48c0-0.31-0.09-0.6-0.27-0.89c-0.18-0.28-0.45-0.53-0.83-0.74
		c-0.55-0.31-1.06-0.4-1.52-0.28c-0.46,0.12-0.81,0.4-1.04,0.81c-0.23,0.42-0.28,0.85-0.14,1.3c0.14,0.45,0.48,0.83,1.04,1.14
		c0.55,0.31,1.05,0.41,1.5,0.3c0.45-0.11,0.79-0.37,1.03-0.79C322.11,423.07,322.19,422.78,322.19,422.48z"/>
	<path class="st1" d="M321.8,415.61l2.81,1.57c0.2,0.11,0.36,0.14,0.5,0.1c0.14-0.04,0.27-0.18,0.4-0.4l0.38-0.68l1.24,0.69
		l-0.52,0.92c-0.69,1.24-1.64,1.52-2.84,0.84l-2.79-1.56l-0.39,0.69l-1.2-0.67l0.39-0.69l-1.43-0.8l0.83-1.48l1.43,0.8l0.73-1.3
		l1.2,0.67L321.8,415.61z"/>
	<path class="st1" d="M323.22,413.35c-0.32-0.49-0.49-1-0.51-1.54c-0.02-0.54,0.11-1.06,0.39-1.55c0.24-0.43,0.54-0.76,0.9-0.99
		c0.36-0.23,0.72-0.36,1.1-0.41l-0.83-0.46l0.83-1.48l5.8,3.25l-0.83,1.48l-0.85-0.47c0.17,0.34,0.25,0.73,0.24,1.16
		c-0.01,0.43-0.13,0.86-0.37,1.3c-0.27,0.49-0.65,0.86-1.13,1.12c-0.48,0.26-1.01,0.38-1.6,0.36c-0.59-0.02-1.18-0.2-1.77-0.53
		C324,414.24,323.54,413.83,323.22,413.35z M326.13,409.71c-0.33,0-0.63,0.08-0.9,0.24c-0.27,0.16-0.48,0.38-0.63,0.65
		c-0.15,0.27-0.23,0.56-0.22,0.87c0,0.3,0.09,0.6,0.27,0.89c0.17,0.29,0.44,0.53,0.79,0.72c0.35,0.2,0.69,0.29,1.04,0.3
		c0.34,0,0.65-0.07,0.92-0.23c0.27-0.16,0.48-0.37,0.63-0.63c0.15-0.27,0.23-0.56,0.22-0.88c0-0.31-0.09-0.61-0.27-0.89
		c-0.18-0.28-0.44-0.52-0.8-0.72C326.81,409.82,326.46,409.72,326.13,409.71z"/>
</g>
</svg>
