<?xml version="1.0" encoding="utf-8"?>
<!-- Generator: Adobe Illustrator 24.0.0, SVG Export Plug-In . SVG Version: 6.00 Build 0)  -->
<svg version="1.1" id="Capa_1" xmlns="http://www.w3.org/2000/svg" xmlns:xlink="http://www.w3.org/1999/xlink" x="0px" y="0px"
	 viewBox="0 0 1920 1080" style="enable-background:new 0 0 1920 1080;" xml:space="preserve">
<style type="text/css">
	.st0{opacity:0.59;}
	.st1{clip-path:url(#SVGID_2_);fill:#F6B83B;}
	.st2{fill:#F5A524;}
	.st3{fill:#F6B83B;}
	.st4{fill:none;stroke:#FFFFFF;stroke-width:0.8913;stroke-miterlimit:10;}
	.st5{fill:#FFFFFF;}
	.st6{fill:none;stroke:#FFFFFF;stroke-width:0.4183;stroke-miterlimit:10;}
	.st7{fill:none;stroke:#FFFFFF;stroke-width:0.8653;stroke-miterlimit:10;}
	.st8{fill:#F29A30;}
	.st9{fill:none;stroke:#F29A30;stroke-miterlimit:10;}
</style>
<g class="st0">
	<defs>
		<polygon id="SVGID_1_" class="st0" points="1743,1079 184,1079 184,536 1743,536 1743,809.2 		"/>
	</defs>
	<clipPath id="SVGID_2_">
		<use xlink:href="#SVGID_1_"  style="overflow:visible;"/>
	</clipPath>
	<path class="st1" d="M1551,801.09c-90.45,0-164,71.96-166.39,161.62c-16.17-5.22-33.41-8.08-51.33-8.08
		c-62.45,0-116.83,34.32-145.33,85.06h-86.07l-105.1-147.92c0-1.39-82.66-1.39-82.66,0l-105.1,147.92h-86.07
		c-28.5-50.74-82.88-85.06-145.33-85.06c-17.92,0-35.16,2.86-51.33,8.08c-2.39-89.66-75.94-161.62-166.39-161.62
		c-91.96,0-166.5,74.37-166.5,166.11c0,91.74,74.55,166.11,166.5,166.11c17.92,0,35.16-2.86,51.33-8.08
		c2.39,89.66,75.94,161.62,166.39,161.62c91.96,0,166.5-74.37,166.5-166.11c0-15.09-2.06-29.7-5.84-43.6h213.45h7.43h213.45
		c-3.78,13.9-5.84,28.51-5.84,43.6c0,91.74,74.55,166.11,166.5,166.11c90.45,0,164-71.96,166.39-161.62
		c16.17,5.22,33.41,8.08,51.33,8.08c91.96,0,166.5-74.37,166.5-166.11C1717.5,875.45,1642.96,801.09,1551,801.09z"/>
</g>
<path class="st2" d="M1371.68,318.28h-79.59c-2.5-26.72-24.96-47.61-52.34-47.61c-9.52,0-18.45,2.53-26.15,6.99
	c-0.01,0-0.01,0.01-0.02,0.01c-5.38-23.32-26.22-40.72-51.17-40.72c-29.03,0-52.57,23.53-52.57,52.57c0,10.62,3.17,20.49,8.59,28.75
	h-10.57c-3.81,0-7.29,1.58-9.82,4.08c-2.5,2.53-4.08,6.01-4.08,9.82c0,7.65,6.25,13.89,13.9,13.89h84.56h94.71h84.56
	c3.81,0,7.29-1.58,9.79-4.08c2.5-2.53,4.08-6.01,4.08-9.82C1385.54,324.53,1379.3,318.28,1371.68,318.28z"/>
<path class="st3" d="M557.83,242h65.12c2.04-21.86,20.43-38.95,42.82-38.95c7.79,0,15.09,2.07,21.4,5.72c0.01,0,0.01,0.01,0.02,0.01
	c4.4-19.08,21.46-33.31,41.87-33.31c23.75,0,43.01,19.26,43.01,43.01c0,8.69-2.6,16.76-7.03,23.53h8.65c3.12,0,5.96,1.29,8.03,3.34
	c2.04,2.07,3.33,4.92,3.33,8.03c0,6.26-5.11,11.37-11.37,11.37H704.5h-77.49h-69.19c-3.12,0-5.96-1.29-8.01-3.34
	c-2.04-2.07-3.33-4.92-3.33-8.03C546.48,247.12,551.59,242,557.83,242z"/>
<path class="st3" d="M1234.42,479.68h43.42c1.36-14.58,13.62-25.97,28.55-25.97c5.19,0,10.06,1.38,14.27,3.81c0,0,0.01,0,0.01,0.01
	c2.93-12.72,14.31-22.21,27.92-22.21c15.84,0,28.67,12.84,28.67,28.67c0,5.79-1.73,11.18-4.69,15.68h5.77
	c2.08,0,3.98,0.86,5.36,2.22c1.36,1.38,2.22,3.28,2.22,5.36c0,4.17-3.41,7.58-7.58,7.58h-46.13h-51.66h-46.13
	c-2.08,0-3.98-0.86-5.34-2.22c-1.36-1.38-2.22-3.28-2.22-5.36C1226.86,483.09,1230.27,479.68,1234.42,479.68z"/>
<path class="st2" d="M1179.38,142.86h32.81c1.03-11.01,10.29-19.62,21.57-19.62c3.92,0,7.6,1.04,10.78,2.88c0,0,0.01,0,0.01,0.01
	c2.22-9.61,10.81-16.78,21.09-16.78c11.97,0,21.67,9.7,21.67,21.67c0,4.38-1.31,8.44-3.54,11.85h4.36c1.57,0,3,0.65,4.05,1.68
	c1.03,1.04,1.68,2.48,1.68,4.05c0,3.15-2.58,5.73-5.73,5.73h-34.85h-39.04h-34.85c-1.57,0-3-0.65-4.03-1.68
	c-1.03-1.04-1.68-2.48-1.68-4.05C1173.66,145.44,1176.24,142.86,1179.38,142.86z"/>
<path class="st2" d="M484.98,669.38h79.59c2.5-26.72,24.96-47.61,52.34-47.61c9.52,0,18.45,2.53,26.15,6.99
	c0.01,0,0.01,0.01,0.02,0.01c5.38-23.32,26.22-40.72,51.17-40.72c29.03,0,52.57,23.53,52.57,52.56c0,10.62-3.17,20.49-8.59,28.75
	h10.57c3.81,0,7.29,1.58,9.82,4.08c2.5,2.53,4.08,6.01,4.08,9.82c0,7.65-6.25,13.89-13.9,13.89h-84.56h-94.71h-84.56
	c-3.81,0-7.29-1.58-9.79-4.08c-2.5-2.53-4.08-6.01-4.08-9.82C471.11,675.63,477.36,669.38,484.98,669.38z"/>
<g>
	<g>
		<path class="st3" d="M1038.54,747.99c29.05,15.39,51.08,33.41,64.42,58.89c4.3,8.2,16.8,5.26,17.16-3.99
			c2.6-66.5-26.96-134.28-79.21-175.87L1038.54,747.99z"/>
		<path class="st3" d="M864.71,753.5c-25.52,13.52-45.28,29.19-58.01,50.71c-5.23,8.84-18.84,5.19-18.92-5.08
			c-0.49-60.63,27.1-121.62,74.7-159.51L864.71,753.5z"/>
		<path class="st2" d="M1069.22,828.18c7.92-62.07,12.38-131.88,12.38-205.69c0-258.18-54.42-467.48-121.55-467.48
			c-67.13,0-121.55,209.3-121.55,467.48c0,73.81,4.45,143.62,12.38,205.69H1069.22z"/>
		<path class="st3" d="M958.12,155.09c-66.24,3.97-119.62,211.69-119.62,467.39c0,73.81,4.45,143.62,12.38,205.69h107.24V155.09z"/>
	</g>
	<g>
		<g>
			
				<ellipse transform="matrix(0.7071 -0.7071 0.7071 0.7071 -129.2418 849.6096)" class="st4" cx="960.95" cy="580.81" rx="72.19" ry="72.19"/>
			
				<ellipse transform="matrix(0.7071 -0.7071 0.7071 0.7071 -129.2418 849.6096)" class="st5" cx="960.95" cy="580.81" rx="62.31" ry="62.31"/>
			<circle class="st2" cx="960.95" cy="580.81" r="45.23"/>
		</g>
		<g>
			<path class="st6" d="M924.41,581.94c4.56-5.3,9.15-10.65,14.66-14.95c5.51-4.31,12.06-7.56,19.04-8.05
				c7.83-0.55,15.58,2.42,22.08,6.82c6.5,4.4,11.93,10.17,17.3,15.9"/>
			<path class="st6" d="M997.49,581.2c-4.56,5.3-9.15,10.65-14.66,14.95c-5.51,4.31-12.06,7.56-19.04,8.05
				c-7.83,0.55-15.58-2.42-22.08-6.82c-6.5-4.4-11.93-10.17-17.3-15.9"/>
			<path class="st5" d="M977.77,582.33c0,9.24-7.49,16.73-16.73,16.73c-9.24,0-16.73-7.49-16.73-16.73
				c0-9.24,7.49-16.73,16.73-16.73C970.28,565.6,977.77,573.09,977.77,582.33z"/>
			<circle class="st3" cx="961.04" cy="582.33" r="7.08"/>
			<path class="st5" d="M961.99,551.86c0,0.84-0.68,1.51-1.51,1.51c-0.84,0-1.51-0.68-1.51-1.51c0-0.84,0.68-1.51,1.51-1.51
				C961.31,550.34,961.99,551.02,961.99,551.86z"/>
			<path class="st5" d="M962.74,609.77c0,0.84-0.68,1.51-1.51,1.51c-0.84,0-1.51-0.68-1.51-1.51c0-0.84,0.68-1.51,1.51-1.51
				C962.07,608.25,962.74,608.93,962.74,609.77z"/>
			<path class="st5" d="M978.26,555.64c0,0.84-0.68,1.51-1.51,1.51c-0.84,0-1.51-0.68-1.51-1.51c0-0.84,0.68-1.51,1.51-1.51
				C977.59,554.13,978.26,554.81,978.26,555.64z"/>
			<path class="st5" d="M982.81,603.33c0,0.84-0.68,1.51-1.51,1.51c-0.84,0-1.51-0.68-1.51-1.51s0.68-1.51,1.51-1.51
				C982.13,601.82,982.81,602.5,982.81,603.33z"/>
			<path class="st5" d="M946.47,556.78c0,0.84-0.68,1.51-1.51,1.51c-0.84,0-1.51-0.68-1.51-1.51c0-0.84,0.68-1.51,1.51-1.51
				C945.79,555.27,946.47,555.94,946.47,556.78z"/>
			<path class="st5" d="M993.78,566.62c0,0.84-0.68,1.51-1.51,1.51c-0.84,0-1.51-0.68-1.51-1.51c0-0.84,0.68-1.51,1.51-1.51
				C993.1,565.11,993.78,565.78,993.78,566.62z"/>
			<circle class="st5" cx="942.68" cy="604.47" r="1.51"/>
			<path class="st5" d="M996.43,592.74c0,0.84-0.68,1.51-1.51,1.51c-0.84,0-1.51-0.68-1.51-1.51c0-0.84,0.68-1.51,1.51-1.51
				C995.75,591.22,996.43,591.9,996.43,592.74z"/>
			<circle class="st5" cx="927.54" cy="593.49" r="1.51"/>
			<circle class="st5" cx="929.06" cy="568.51" r="1.51"/>
		</g>
		<g>
			<g>
				
					<ellipse transform="matrix(0.2298 -0.9732 0.9732 0.2298 359.8279 1236.2499)" class="st7" cx="960.95" cy="390.79" rx="70.09" ry="70.09"/>
				
					<ellipse transform="matrix(0.2298 -0.9732 0.9732 0.2298 359.8278 1236.2499)" class="st5" cx="960.95" cy="390.79" rx="56.7" ry="56.7"/>
				
					<ellipse transform="matrix(0.3827 -0.9239 0.9239 0.3827 232.1638 1129.0449)" class="st2" cx="960.95" cy="390.79" rx="41.16" ry="41.16"/>
			</g>
			<path class="st5" d="M985.91,383.33h-5.05c-0.36-0.84-0.77-1.65-1.24-2.42l3.04-3.68c0.27-0.32,0.22-0.8-0.1-1.07l-7.99-6.61
				c-0.32-0.27-0.8-0.22-1.07,0.1l-2.66,3.22c-1.08-0.52-2.21-0.95-3.39-1.28l0,0v-4.21c0-0.42-0.34-0.76-0.76-0.76h-10.37
				c-0.42,0-0.76,0.34-0.76,0.76v4.42c-1.17,0.37-2.29,0.85-3.36,1.41l-2.95-3.56c-0.27-0.32-0.75-0.37-1.07-0.1l-7.99,6.61
				c-0.32,0.27-0.37,0.75-0.1,1.07l3.61,4.36l0,0c-0.31,0.56-0.59,1.14-0.85,1.74h-6.86c-0.42,0-0.76,0.34-0.76,0.76v10.37
				c0,0.42,0.34,0.76,0.76,0.76h5.52c0.36,1.97,1,3.85,1.87,5.58c0,0,0,0,0,0l-4.14,5.01c-0.27,0.32-0.22,0.8,0.1,1.07l7.99,6.61
				c0.32,0.27,0.8,0.22,1.07-0.1l3.23-3.91c1.24,0.71,2.55,1.29,3.93,1.73v5.52c0,0.42,0.34,0.76,0.76,0.76h10.37
				c0.42,0,0.76-0.34,0.76-0.76v-5.31l0,0c1.5-0.42,2.93-1,4.27-1.73c0,0,0,0,0,0l3.06,3.7c0.27,0.32,0.75,0.37,1.07,0.1l7.99-6.61
				c0.32-0.27,0.37-0.75,0.1-1.07l-3.82-4.61l0,0c0.98-1.84,1.69-3.85,2.08-5.98h3.7c0.42,0,0.76-0.34,0.76-0.76v-10.37
				C986.67,383.67,986.33,383.33,985.91,383.33z M961.86,401.61c-5.58,0-10.11-4.53-10.11-10.11c0-5.58,4.53-10.11,10.11-10.11
				s10.11,4.53,10.11,10.11C971.97,397.09,967.44,401.61,961.86,401.61z"/>
		</g>
	</g>
	<line class="st7" x1="958.72" y1="232.32" x2="958.72" y2="320.7"/>
	<circle class="st7" cx="958.72" cy="221.35" r="9.81"/>
	<line class="st7" x1="958.73" y1="460.88" x2="958.73" y2="508.62"/>
	<path class="st8" d="M955.26,897L955.26,897c-7.62,0-13.85-6.23-13.85-13.85V724.67c0-7.62,6.23-13.85,13.85-13.85l0,0
		c7.62,0,13.85,6.23,13.85,13.85v158.48C969.11,890.77,962.88,897,955.26,897z"/>
	<line class="st9" x1="844" y1="757.47" x2="1076" y2="757.47"/>
	<path class="st9" d="M876.69,828.46c0,0-5.54-43.76-4.43-71.46"/>
	<line class="st9" x1="915.46" y1="827.91" x2="913.8" y2="757.55"/>
	<line class="st9" x1="999.67" y1="827.36" x2="1001.33" y2="757"/>
	<line class="st9" x1="1039.55" y1="828.46" x2="1044.54" y2="756.45"/>
</g>
</svg>
